{
.appVersion = "3418";
copyright = "Copyright 2021 The M+ FONTS Project Authors (https://github.com/coz-m/MPLUS_FONTS)";
customParameters = (
{
name = "Enforce Compatibility Check";
value = 1;
},
{
name = fsType;
value = (
);
},
{
name = license;
value = "This Font Software is licensed under the SIL Open Font License, Version 1.1. This license is available with a FAQ at: https://scripts.sil.org/OFL";
},
{
name = licenseURL;
value = "https://scripts.sil.org/OFL";
},
{
name = vendorID;
value = UFDN;
},
{
name = Axes;
value = (
{
Name = Weight;
Tag = wght;
}
);
},
{
name = note;
value = "%:    60% (Black +20, Thin 20, Medium +20)\012ord*: 80% (Black +10, Thin 20, Medium +10)\012*sup: 60% (Black +20, Thin 20, Medium +20)\012©®:   60% (Black +20, Thin 20, Medium +20)\012TM:   50% (Black +0~10, Thin 20, Medium +20)\012\012*sml: X100、Y-8、W80%、H80% (Black +20, Thin 20, Medium +6)\012\012full-width bracket pairs: X1000, Y720 Rotate180";
}
);
date = "2025-02-02 06:34:35 +0000";
designer = "Coji Morishita";
designerURL = "http://www.underforest.com";
familyName = "M PLUS 1";
featurePrefixes = (
{
automatic = 1;
code = "languagesystem DFLT dflt;\012\012languagesystem latn dflt;\012languagesystem latn AZE;\012languagesystem latn CRT;\012languagesystem latn KAZ;\012languagesystem latn TAT;\012languagesystem latn TRK;\012languagesystem latn ROM;\012languagesystem latn MOL;\012languagesystem latn CAT;\012";
name = Languagesystems;
},
{

glyphs = (
{
glyphname = A;
lastChange = "2025-01-21 12:56:24 +0000";
layers = (
{
anchors = (
{
name = bottom;
position = "{342, 0}";
},
{
name = ogonek;
position = "{662, 0}";
},
{
name = top;
position = "{342, 730}";
},
{
name = top_ring;
position = "{342, 640}";
}
);
layerId = "D65C9A1E-0FCA-4B2D-8EDF-9F36CA9182A1";
leftMetricsKey = "=H*.2";
paths = (
{
closed = 1;
nodes = (
"44 0 LINE",
"341 711 LINE",
"343 711 LINE",
"640 0 LINE",
"662 0 LINE",
"356 730 LINE",
"328 730 LINE",
"22 0 LINE"
);
},
{
closed = 1;
nodes = (
"552 237 LINE",
"552 257 LINE",
"132 257 LINE",
"132 237 LINE"
);
}
);
width = 684;
},
{
anchors = (
{
name = bottom;
position = "{353, 0}";
},
{
name = ogonek;
position = "{693, 0}";
},
{
name = top;
position = "{353, 730}";
},
{
name = top_ring;
position = "{353, 610}";
}
);
layerId = "9527F797-22C1-480E-A1FE-2CDBEBE1FD4C";
paths = (
{
closed = 1;
nodes = (
"134 0 LINE",
"352 636 LINE",
"354 636 LINE",
"572 0 LINE",
"693 0 LINE",
"428 730 LINE",
"279 730 LINE",
"13 0 LINE"
);
},
{
closed = 1;
nodes = (
"556 183 LINE",
"556 283 LINE",
"151 283 LINE",
"151 183 LINE"
);
}
);
width = 706;
},
{
anchors = (
{
name = bottom;
position = "{366, 0}";
},
{
name = ogonek;
position = "{726, 0}";
},
{
name = top;
position = "{366, 730}";
},
{
name = top_ring;
position = "{366, 585}";
}
);
layerId = "9E6B41AB-2970-4C41-8B35-4DBE0D296A43";
leftMetricsKey = "=H*.1";
paths = (
{
closed = 1;
nodes = (
"226 0 LINE",
"365 560 LINE",
"367 560 LINE",
"506 0 LINE",
"726 0 LINE",
"501 730 LINE",
"231 730 LINE",
"6 0 LINE"
);
},
{
closed = 1;
nodes = (
"561 135 LINE",
"561 300 LINE",
"171 300 LINE",
"171 135 LINE"
);
}
);
width = 732;
}
);
leftKerningGroup = A;
leftMetricsKey = "=H*.15";
rightKerningGroup = A;
rightMetricsKey = "=|";
unicode = 0041;
},
{
glyphname = AE;
lastChange = "2025-01-21 12:56:24 +0000";
layers = (
{
anchors = (
{
name = bottom;
position = "{491, 0}";
},
{
name = top;
position = "{491, 730}";
}
);
layerId = "D65C9A1E-0FCA-4B2D-8EDF-9F36CA9182A1";
paths = (
{
closed = 1;
nodes = (
"45 0 LINE",
"460 710 LINE",
"472 710 LINE",
"472 0 LINE",
"832 0 LINE",
"832 20 LINE",
"492 20 LINE",
"492 380 LINE",
"809 380 LINE",
"809 400 LINE",
"492 400 LINE",
"492 710 LINE",
"832 710 LINE",
"832 730 LINE",
"449 730 LINE",
"22 0 LINE"
);
},
{
closed = 1;
nodes = (
"482 237 LINE",
"482 257 LINE",
"178 257 LINE",
"178 237 LINE"
);
}
);
width = 915;
},
{
anchors = (
{
name = bottom;
position = "{484, 0}";
},
{
name = top;
position = "{484, 730}";
}
);
layerId = "9527F797-22C1-480E-A1FE-2CDBEBE1FD4C";
paths = (
{
closed = 1;
nodes = (
"135 0 LINE",
"417 640 LINE",
"438 640 LINE",
"438 0 LINE",
"843 0 LINE",
"843 98 LINE",
"548 98 LINE",
"548 334 LINE",
"822 334 LINE",
"822 430 LINE",
"548 430 LINE",
"548 632 LINE",
"843 632 LINE",
"843 730 LINE",
"347 730 LINE",
"13 0 LINE"
);
},
{
closed = 1;
nodes = (
"498 183 LINE",
"498 283 LINE",
"169 283 LINE",
"169 183 LINE"
);
}
);
width = 911;
},
{
anchors = (
{
name = bottom;
position = "{479, 0}";
},
{
name = top;
position = "{479, 730}";
}
);
layerId = "9E6B41AB-2970-4C41-8B35-4DBE0D296A43";
paths = (
{
closed = 1;
nodes = (
"226 0 LINE",
"376 570 LINE",
"406 570 LINE",
"406 0 LINE",
"856 0 LINE",
"856 160 LINE",
"606 160 LINE",
"606 298 LINE",
"836 298 LINE",
"836 452 LINE",
"606 452 LINE",
"606 570 LINE",
"856 570 LINE",
"856 730 LINE",
"246 730 LINE",
"6 0 LINE"
);
},
{
closed = 1;
nodes = (
"516 135 LINE",
"516 300 LINE",
"161 300 LINE",
"161 135 LINE"
);
}
);
width = 907;
}
);
leftKerningGroup = A;
leftMetricsKey = "=A";
rightKerningGroup = E;
rightMetricsKey = "=E";
unicode = 00C6;
},
{
glyphname = B;
lastChange = "2025-01-21 12:56:24 +0000";
layers = (
{
layerId = "9527F797-22C1-480E-A1FE-2CDBEBE1FD4C";
rightMetricsKey = "=|*.45";
paths = (
{
closed = 1;
nodes = (
"315 0 LINE SMOOTH",
"523 0 OFFCURVE",
"625 67 OFFCURVE",
"625 205 CURVE SMOOTH",
"625 308 OFFCURVE",
"568 370 OFFCURVE",
"458 387 CURVE",
"458 389 LINE",
"545 407 OFFCURVE",
"595 466 OFFCURVE",
"595 553 CURVE SMOOTH",
"595 672 OFFCURVE",
"502 730 OFFCURVE",
"310 730 CURVE SMOOTH",
"85 730 LINE",
"85 0 LINE"
);
},
{
closed = 1;
nodes = (
"195 98 LINE",
"195 632 LINE",
"315 632 LINE SMOOTH",
"435 632 OFFCURVE",
"485 603 OFFCURVE",
"485 534 CURVE SMOOTH",
"485 463 OFFCURVE",
"432 430 OFFCURVE",
"315 430 CURVE SMOOTH",
"140 430 LINE",
"140 335 LINE",
"315 335 LINE SMOOTH",
"451 335 OFFCURVE",
"513 298 OFFCURVE",
"513 216 CURVE SMOOTH",
"513 134 OFFCURVE",
"452 98 OFFCURVE",
"315 98 CURVE SMOOTH"
);
}
);
width = 663;
},
{
layerId = "9E6B41AB-2970-4C41-8B35-4DBE0D296A43";
rightMetricsKey = "=|*.5";
paths = (
{
closed = 1;
nodes = (
"330 0 LINE SMOOTH",
"538 0 OFFCURVE",
"650 73 OFFCURVE",
"650 210 CURVE SMOOTH",
"650 310 OFFCURVE",
"591 370 OFFCURVE",
"480 384 CURVE",
"480 386 LINE",
"574 400 OFFCURVE",
"630 461 OFFCURVE",
"630 550 CURVE SMOOTH",
"630 668 OFFCURVE",
"523 730 OFFCURVE",
"320 730 CURVE SMOOTH",
"60 730 LINE",
"60 0 LINE"
);
},
{
closed = 1;
nodes = (
"260 155 LINE",
"260 575 LINE",
"330 575 LINE SMOOTH",
"403 575 OFFCURVE",
"430 558 OFFCURVE",
"430 512 CURVE SMOOTH",
"430 466 OFFCURVE",
"404 450 OFFCURVE",
"330 450 CURVE SMOOTH",
"160 450 LINE",
"160 300 LINE",
"330 300 LINE SMOOTH",
"410 300 OFFCURVE",
"445 278 OFFCURVE",
"445 228 CURVE SMOOTH",
"445 178 OFFCURVE",
"409 155 OFFCURVE",
"330 155 CURVE SMOOTH"
);
}
);
width = 680;
},
{
layerId = "D65C9A1E-0FCA-4B2D-8EDF-9F36CA9182A1";
rightMetricsKey = "=|*.4";
paths = (
{
closed = 1;
nodes = (
"300 0 LINE SMOOTH",
"504 0 OFFCURVE",
"600 63 OFFCURVE",
"600 200 CURVE SMOOTH",
"600 308 OFFCURVE",
"541 369 OFFCURVE",
"416 390 CURVE",
"416 392 LINE",
"512 414 OFFCURVE",
"560 467 OFFCURVE",
"560 555 CURVE SMOOTH",
"560 673 OFFCURVE",
"473 730 OFFCURVE",
"300 730 CURVE SMOOTH",
"110 730 LINE",
"110 0 LINE"
);
},
{
closed = 1;
nodes = (
"130 20 LINE",
"130 710 LINE",
"300 710 LINE SMOOTH",
"463 710 OFFCURVE",
"540 660 OFFCURVE",
"540 555 CURVE SMOOTH",
"540 450 OFFCURVE",
"463 400 OFFCURVE",
"300 400 CURVE SMOOTH",
"120 400 LINE",
"120 380 LINE",
"300 380 LINE SMOOTH",
"493 380 OFFCURVE",
"580 324 OFFCURVE",
"580 200 CURVE SMOOTH",
"580 76 OFFCURVE",
"493 20 OFFCURVE",
"300 20 CURVE SMOOTH"
);
}
);
width = 644;
}
);
leftKerningGroup = H;
leftMetricsKey = "=H";
rightKerningGroup = B;
rightMetricsKey = "=|*.5";
unicode = 0042;
},
{
glyphname = C;
lastChange = "2025-01-21 12:56:24 +0000";
layers = (
{
anchors = (
{
name = bottom;
position = "{413, 0}";
},
{
name = cedi;
position = "{351, 0}";
},
{
name = top;
position = "{413, 730}";
}
);
layerId = "D65C9A1E-0FCA-4B2D-8EDF-9F36CA9182A1";
paths = (
{
closed = 1;
nodes = (
"510 -10 OFFCURVE",
"588 12 OFFCURVE",
"655 55 CURVE",
"644 72 LINE",
"580 31 OFFCURVE",
"506 10 OFFCURVE",
"424 10 CURVE SMOOTH",
"212 10 OFFCURVE",
"75 150 OFFCURVE",
"75 365 CURVE SMOOTH",
"75 580 OFFCURVE",
"212 720 OFFCURVE",
"424 720 CURVE SMOOTH",
"506 720 OFFCURVE",
"580 699 OFFCURVE",
"644 658 CURVE",
"655 675 LINE",
"588 718 OFFCURVE",
"510 740 OFFCURVE",
"424 740 CURVE SMOOTH",
"201 740 OFFCURVE",
"55 591 OFFCURVE",
"55 365 CURVE SMOOTH",
"55 139 OFFCURVE",
"201 -10 OFFCURVE",
"424 -10 CURVE SMOOTH"
);
}
);
width = 721;
},
{
anchors = (
{
name = bottom;
position = "{405, 0}";
},
{
name = cedi;
position = "{331, 0}";
},
{
name = top;
position = "{405, 730}";
}
);
layerId = "9527F797-22C1-480E-A1FE-2CDBEBE1FD4C";
paths = (
{
closed = 1;
nodes = (
"512 -10 OFFCURVE",
"593 10 OFFCURVE",
"663 50 CURVE",
"636 148 LINE",
"566 109 OFFCURVE",
"498 90 OFFCURVE",
"427 90 CURVE SMOOTH",
"260 90 OFFCURVE",
"157 194 OFFCURVE",
"157 365 CURVE SMOOTH",
"157 536 OFFCURVE",
"260 640 OFFCURVE",
"427 640 CURVE SMOOTH",
"499 640 OFFCURVE",
"568 621 OFFCURVE",
"636 582 CURVE",
"663 680 LINE",
"593 720 OFFCURVE",
"512 740 OFFCURVE",
"423 740 CURVE SMOOTH",
"186 740 OFFCURVE",
"43 599 OFFCURVE",
"43 365 CURVE SMOOTH",
"43 131 OFFCURVE",
"186 -10 OFFCURVE",
"423 -10 CURVE SMOOTH"
);
}
);
width = 714;
},
{
anchors = (
{
name = bottom;
position = "{396, 0}";
},
{
name = cedi;
position = "{311, 0}";
},
{
name = top;
position = "{396, 730}";
}
);
layerId = "9E6B41AB-2970-4C41-8B35-4DBE0D296A43";
paths = (
{
closed = 1;
nodes = (
"514 -10 OFFCURVE",
"597 8 OFFCURVE",
"670 46 CURVE",
"627 216 LINE",
"555 178 OFFCURVE",
"489 160 OFFCURVE",
"429 160 CURVE SMOOTH",
"307 160 OFFCURVE",
"238 234 OFFCURVE",
"238 365 CURVE SMOOTH",
"238 496 OFFCURVE",
"307 570 OFFCURVE",
"429 570 CURVE SMOOTH",
"489 570 OFFCURVE",
"555 552 OFFCURVE",
"627 514 CURVE",
"670 684 LINE",
"597 722 OFFCURVE",
"514 740 OFFCURVE",
"421 740 CURVE SMOOTH",
"170 740 OFFCURVE",
"30 606 OFFCURVE",
"30 365 CURVE SMOOTH",
"30 124 OFFCURVE",
"170 -10 OFFCURVE",
"421 -10 CURVE SMOOTH"
);
}
);
width = 706;
}
);
leftKerningGroup = O;
leftMetricsKey = "=O";
rightKerningGroup = C;
rightMetricsKey = "=H*.6";
unicode = 0043;
},
{
glyphname = D;
lastChange = "2025-01-21 12:56:24 +0000";
layers = (
{
anchors = (
{
name = bottom;
position = "{335, 0}";
},
{
name = center;
position = "{335, 365}";
},
{
name = top;
position = "{335, 730}";
}
);
layerId = "D65C9A1E-0FCA-4B2D-8EDF-9F36CA9182A1";
paths = (
{
closed = 1;
nodes = (
"260 0 LINE SMOOTH",
"515 0 OFFCURVE",
"650 126 OFFCURVE",
"650 365 CURVE SMOOTH",
"650 604 OFFCURVE",
"515 730 OFFCURVE",
"260 730 CURVE SMOOTH",
"110 730 LINE",
"110 0 LINE"
);
},
{
closed = 1;
nodes = (
"130 20 LINE",
"130 710 LINE",
"260 710 LINE SMOOTH",
"505 710 OFFCURVE",
"630 592 OFFCURVE",
"630 365 CURVE SMOOTH",
"630 138 OFFCURVE",
"505 20 OFFCURVE",
"260 20 CURVE SMOOTH"
);
}
);
width = 705;
},
{
anchors = (
{
name = bottom;
position = "{335, 0}";
},
{
name = center;
position = "{335, 365}";
},
{
name = top;
position = "{335, 730}";
}
);
layerId = "9527F797-22C1-480E-A1FE-2CDBEBE1FD4C";
paths = (
{
closed = 1;
nodes = (
"285 0 LINE SMOOTH",
"542 0 OFFCURVE",
"665 118 OFFCURVE",
"665 365 CURVE SMOOTH",
"665 612 OFFCURVE",
"542 730 OFFCURVE",
"285 730 CURVE SMOOTH",
"85 730 LINE",
"85 0 LINE"
);
},
{
closed = 1;
nodes = (
"195 100 LINE",
"195 630 LINE",
"292 630 LINE SMOOTH",
"474 630 OFFCURVE",
"553 550 OFFCURVE",
"553 365 CURVE SMOOTH",
"553 180 OFFCURVE",
"474 100 OFFCURVE",
"292 100 CURVE SMOOTH"
);
}
);
width = 708;
},
{
anchors = (
{
name = bottom;
position = "{335, 0}";
},
{
name = center;
position = "{335, 365}";
},
{
name = top;
position = "{335, 730}";
}
);
layerId = "9E6B41AB-2970-4C41-8B35-4DBE0D296A43";
paths = (
{
closed = 1;
nodes = (
"310 0 LINE SMOOTH",
"569 0 OFFCURVE",
"680 109 OFFCURVE",
"680 365 CURVE SMOOTH",
"680 621 OFFCURVE",
"569 730 OFFCURVE",
"310 730 CURVE",
"60 730 LINE",
"60 0 LINE"
);
},
{
closed = 1;
nodes = (
"260 160 LINE",
"260 570 LINE",
"323 570 LINE SMOOTH",
"441 570 OFFCURVE",
"475 524 OFFCURVE",
"475 365 CURVE SMOOTH",
"475 206 OFFCURVE",
"441 160 OFFCURVE",
"323 160 CURVE SMOOTH"
);
}
);
width = 710;
}
);
leftKerningGroup = H;
leftMetricsKey = "=H";
rightKerningGroup = O;
rightMetricsKey = "=O";
unicode = 0044;
},
{
glyphname = Eth;
lastChange = "2025-01-21 12:56:24 +0000";
layers = (
{
anchors = (
{
name = bottom;
position = "{387, 0}";
},
{
name = center;
position = "{387, 365}";
},
{
name = top;
position = "{387, 730}";
}
);
components = (
{
name = D;
transform = "{1, 0, 0, 1, 51, 0}";
}
);
layerId = "D65C9A1E-0FCA-4B2D-8EDF-9F36CA9182A1";
paths = (
{
closed = 1;
nodes = (
"446 355 LINE",
"446 375 LINE",
"36 375 LINE",
"36 355 LINE"
);
}
);
width = 756;
},
{
anchors = (
{
name = bottom;
position = "{399, 0}";
},
{
name = center;
position = "{399, 365}";
},
{
name = top;
position = "{399, 730}";
}
);
components = (
{
alignment = -1;
name = D;
transform = "{1, 0, 0, 1, 56, 0}";
}
);
layerId = "9527F797-22C1-480E-A1FE-2CDBEBE1FD4C";
paths = (
{
closed = 1;
nodes = (
"446 320 LINE",
"446 410 LINE",
"28 410 LINE",
"28 320 LINE"
);
}
);
width = 764;
},
{
anchors = (
{
name = bottom;
position = "{408, 0}";
},
{
name = center;
position = "{408, 365}";
},
{
name = top;
position = "{408, 730}";
}
);
components = (
{
name = D;
transform = "{1, 0, 0, 1, 59, 0}";
}
);
layerId = "9E6B41AB-2970-4C41-8B35-4DBE0D296A43";
paths = (
{
closed = 1;
nodes = (
"445 295 LINE",
"445 435 LINE",
"19 435 LINE",
"19 295 LINE"
);
}
);
width = 769;
}
);
leftKerningGroup = f;
leftMetricsKey = "=f*1.2";
rightKerningGroup = O;
rightMetricsKey = "=O";
unicode = 00D0;
},
{
glyphname = E;
lastChange = "2025-01-21 12:56:24 +0000";
layers = (
{
anchors = (
{
name = bottom;
position = "{325, 0}";
},
{
name = ogonek;
position = "{540, 0}";
},
{
name = top;
position = "{325, 730}";
},
{
name = topleft;
position = "{-12, 730}";
}
);
layerId = "D65C9A1E-0FCA-4B2D-8EDF-9F36CA9182A1";
rightMetricsKey = "=H*.75";
paths = (
{
closed = 1;
nodes = (
"540 0 LINE",
"540 20 LINE",
"130 20 LINE",
"130 380 LINE",
"520 380 LINE",
"520 400 LINE",
"130 400 LINE",
"130 710 LINE",
"540 710 LINE",
"540 730 LINE",
"110 730 LINE",
"110 0 LINE"
);
}
);
width = 623;
},
{
anchors = (
{
name = bottom;
position = "{325, 0}";
},
{
name = ogonek;
position = "{565, 0}";
},
{
name = top;
position = "{325, 730}";
},
{
name = topleft;
position = "{-1, 730}";
}
);
layerId = "9527F797-22C1-480E-A1FE-2CDBEBE1FD4C";
rightMetricsKey = "=H*.8";
paths = (
{
closed = 1;
nodes = (
"565 0 LINE",
"565 98 LINE",
"195 98 LINE",
"195 334 LINE",
"545 334 LINE",
"545 430 LINE",
"195 430 LINE",
"195 632 LINE",
"565 632 LINE",
"565 730 LINE",
"85 730 LINE",
"85 0 LINE"
);
}
);
width = 633;
},
{
anchors = (
{
name = bottom;
position = "{325, 0}";
},
{
name = ogonek;
position = "{590, 0}";
},
{
name = top;
position = "{325, 730}";
},
{
name = topleft;
position = "{10, 730}";
}
);
layerId = "9E6B41AB-2970-4C41-8B35-4DBE0D296A43";
rightMetricsKey = "=H*.85";
paths = (
{
closed = 1;
nodes = (
"590 0 LINE",
"590 160 LINE",
"260 160 LINE",
"260 298 LINE",
"570 298 LINE",
"570 452 LINE",
"260 452 LINE",
"260 570 LINE",
"590 570 LINE",
"590 730 LINE",
"60 730 LINE",
"60 0 LINE"
);
}
);
width = 641;
}
);
leftKerningGroup = H;
leftMetricsKey = "=H";
rightKerningGroup = E;
rightMetricsKey = "=H*.85";
unicode = 0045;
},
{
glyphname = Schwa;
lastChange = "2025-01-21 12:56:24 +0000";
layers = (
{
layerId = "D65C9A1E-0FCA-4B2D-8EDF-9F36CA9182A1";
paths = (
{
closed = 1;
nodes = (
"257 740 OFFCURVE",
"159 716 OFFCURVE",
"83 676 CURVE",
"92 658 LINE",
"167 698 OFFCURVE",
"262 720 OFFCURVE",
"353 720 CURVE SMOOTH",
"573 720 OFFCURVE",
"693 596 OFFCURVE",
"693 365 CURVE",
"693 365 LINE",
"693 139 OFFCURVE",
"579 10 OFFCURVE",
"383 10 CURVE SMOOTH",
"187 10 OFFCURVE",
"73 139 OFFCURVE",
"73 365 CURVE",
"57 348 LINE",
"703 348 LINE",
"703 368 LINE",
"52 368 LINE",
"52 366 OFFCURVE",
"52 366 OFFCURVE",
"52 365 CURVE SMOOTH",
"52 129 OFFCURVE",
"175 -10 OFFCURVE",
"383 -10 CURVE SMOOTH",
"591 -10 OFFCURVE",
"713 129 OFFCURVE",
"713 365 CURVE SMOOTH",
"713 606 OFFCURVE",
"585 740 OFFCURVE",
"353 740 CURVE SMOOTH"
);
}
);
width = 768;
},
{
layerId = "9527F797-22C1-480E-A1FE-2CDBEBE1FD4C";
paths = (
{
closed = 1;
nodes = (
"245 740 OFFCURVE",
"151 720 OFFCURVE",
"82 688 CURVE",
"107 588 LINE",
"181 622 OFFCURVE",
"263 640 OFFCURVE",
"343 640 CURVE SMOOTH",
"524 640 OFFCURVE",
"611 559 OFFCURVE",
"611 396 CURVE",
"611 354 LINE",
"611 180 OFFCURVE",
"531 90 OFFCURVE",
"381 90 CURVE SMOOTH",
"231 90 OFFCURVE",
"151 180 OFFCURVE",
"151 354 CURVE",
"110 314 LINE",
"643 314 LINE",
"643 413 LINE",
"44 413 LINE",
"42 403 OFFCURVE",
"41 377 OFFCURVE",
"41 358 CURVE SMOOTH",
"41 126 OFFCURVE",
"166 -10 OFFCURVE",
"378 -10 CURVE SMOOTH",
"593 -10 OFFCURVE",
"721 130 OFFCURVE",
"721 365 CURVE SMOOTH",
"721 606 OFFCURVE",
"584 740 OFFCURVE",
"336 740 CURVE SMOOTH"
);
}
);
width = 764;
},
{
layerId = "9E6B41AB-2970-4C41-8B35-4DBE0D296A43";
paths = (
{
closed = 1;
nodes = (
"232 740 OFFCURVE",
"142 725 OFFCURVE",
"81 701 CURVE",
"116 536 LINE",
"187 559 OFFCURVE",
"257 570 OFFCURVE",
"332 570 CURVE SMOOTH",
"474 570 OFFCURVE",
"529 531 OFFCURVE",
"529 430 CURVE SMOOTH",
"529 343 LINE SMOOTH",
"529 215 OFFCURVE",
"483 160 OFFCURVE",
"379 160 CURVE SMOOTH",
"275 160 OFFCURVE",
"229 215 OFFCURVE",
"229 343 CURVE",
"162 290 LINE",
"583 290 LINE",
"583 448 LINE",
"34 448 LINE",
"31 433 OFFCURVE",
"29 384 OFFCURVE",
"29 351 CURVE SMOOTH",
"29 123 OFFCURVE",
"156 -10 OFFCURVE",
"372 -10 CURVE SMOOTH",
"594 -10 OFFCURVE",
"729 131 OFFCURVE",
"729 365 CURVE SMOOTH",
"729 606 OFFCURVE",
"582 740 OFFCURVE",
"319 740 CURVE SMOOTH"
);
}
);
width = 759;
}
);
leftKerningGroup = O;
leftMetricsKey = "=O*.95";
rightKerningGroup = O;
rightMetricsKey = "=O";
unicode = 018F;
},
{
glyphname = F;
lastChange = "2025-01-21 12:56:24 +0000";
layers = (
{
layerId = "D65C9A1E-0FCA-4B2D-8EDF-9F36CA9182A1";
rightMetricsKey = "=H*.55";
paths = (
{
closed = 1;
nodes = (
"130 0 LINE",
"130 355 LINE",
"550 355 LINE",
"550 375 LINE",
"130 375 LINE",
"130 710 LINE",
"570 710 LINE",
"570 730 LINE",
"110 730 LINE",
"110 0 LINE"
);
}
);
width = 631;
},
{
layerId = "9527F797-22C1-480E-A1FE-2CDBEBE1FD4C";
rightMetricsKey = "=H*.65";
paths = (
{
closed = 1;
nodes = (
"195 0 LINE",
"195 309 LINE",
"565 309 LINE",
"565 407 LINE",
"195 407 LINE",
"195 630 LINE",
"585 630 LINE",
"585 730 LINE",
"85 730 LINE",
"85 0 LINE"
);
}
);
width = 640;
},
{
layerId = "9E6B41AB-2970-4C41-8B35-4DBE0D296A43";
rightMetricsKey = "=H*.75";
paths = (
{
closed = 1;
nodes = (
"260 0 LINE",
"260 270 LINE",
"580 270 LINE",
"580 430 LINE",
"260 430 LINE",
"260 565 LINE",
"600 565 LINE",
"600 730 LINE",
"60 730 LINE",
"60 0 LINE"
);
}
);
width = 645;
}
);
leftKerningGroup = H;
leftMetricsKey = "=H";
rightKerningGroup = F;
rightMetricsKey = "=H*.75";
unicode = 0046;
},
{
glyphname = G;
lastChange = "2025-01-21 12:56:24 +0000";
layers = (
{
anchors = (
{
name = bottom;
position = "{393, 0}";
},
{
name = top;
position = "{393, 730}";
}
);
layerId = "D65C9A1E-0FCA-4B2D-8EDF-9F36CA9182A1";
paths = (
{
closed = 1;
nodes = (
"527 -10 OFFCURVE",
"627 11 OFFCURVE",
"695 44 CURVE",
"695 395 LINE",
"345 395 LINE",
"345 375 LINE",
"675 375 LINE",
"675 45 LINE",
"686 62 LINE",
"621 30 OFFCURVE",
"524 10 OFFCURVE",
"437 10 CURVE SMOOTH",
"212 10 OFFCURVE",
"75 145 OFFCURVE",
"75 365 CURVE SMOOTH",
"75 585 OFFCURVE",
"212 720 OFFCURVE",
"437 720 CURVE SMOOTH",
"522 720 OFFCURVE",
"595 701 OFFCURVE",
"657 663 CURVE",
"667 680 LINE",
"602 720 OFFCURVE",
"525 740 OFFCURVE",
"437 740 CURVE SMOOTH",
"201 740 OFFCURVE",
"55 596 OFFCURVE",
"55 365 CURVE SMOOTH",
"55 134 OFFCURVE",
"201 -10 OFFCURVE",
"437 -10 CURVE SMOOTH"
);
}
);
width = 789;
},
{
anchors = (
{
name = bottom;
position = "{379, 0}";
},
{
name = top;
position = "{379, 730}";
}
);
layerId = "9E6B41AB-2970-4C41-8B35-4DBE0D296A43";
paths = (
{
closed = 1;
nodes = (
"538 -10 OFFCURVE",
"637 11 OFFCURVE",
"710 50 CURVE",
"710 446 LINE",
"350 446 LINE",
"350 281 LINE",
"510 281 LINE",
"510 131 LINE",
"533 177 LINE",
"502 161 OFFCURVE",
"477 155 OFFCURVE",
"438 155 CURVE SMOOTH",
"306 155 OFFCURVE",
"240 225 OFFCURVE",
"240 365 CURVE SMOOTH",
"240 503 OFFCURVE",
"305 575 OFFCURVE",
"427 575 CURVE SMOOTH",
"493 575 OFFCURVE",
"571 554 OFFCURVE",
"621 524 CURVE",
"663 684 LINE",
"599 721 OFFCURVE",
"519 740 OFFCURVE",
"427 740 CURVE SMOOTH",
"178 740 OFFCURVE",
"30 600 OFFCURVE",
"30 365 CURVE SMOOTH",
"30 128 OFFCURVE",
"181 -10 OFFCURVE",
"438 -10 CURVE SMOOTH"
);
}
);
width = 761;
},
{
anchors = (
{
name = bottom;
position = "{386, 0}";
},
{
name = top;
position = "{386, 730}";
}
);
layerId = "9527F797-22C1-480E-A1FE-2CDBEBE1FD4C";
paths = (
{
closed = 1;
nodes = (
"532 -10 OFFCURVE",
"632 11 OFFCURVE",
"703 47 CURVE",
"703 421 LINE",
"348 421 LINE",
"348 327 LINE",
"593 327 LINE",
"593 88 LINE",
"610 127 LINE",
"563 103 OFFCURVE",
"501 90 OFFCURVE",
"438 90 CURVE SMOOTH",
"262 90 OFFCURVE",
"161 190 OFFCURVE",
"161 365 CURVE SMOOTH",
"161 538 OFFCURVE",
"262 640 OFFCURVE",
"432 640 CURVE SMOOTH",
"506 640 OFFCURVE",
"582 621 OFFCURVE",
"639 587 CURVE",
"665 682 LINE",
"602 720 OFFCURVE",
"520 740 OFFCURVE",
"432 740 CURVE SMOOTH",
"190 740 OFFCURVE",
"43 598 OFFCURVE",
"43 365 CURVE SMOOTH",
"43 131 OFFCURVE",
"191 -10 OFFCURVE",
"438 -10 CURVE SMOOTH"
);
}
);
width = 775;
}
);
leftKerningGroup = O;
leftMetricsKey = "=O";
rightKerningGroup = G;
rightMetricsKey = "=H*.85";
unicode = 0047;
},
{
glyphname = H;
lastChange = "2025-01-21 12:56:24 +0000";
layers = (
{
anchors = (
{
name = bottom;
position = "{365, 0}";
},
{
name = center;
position = "{365, 365}";
},
{
name = top;
position = "{365, 730}";
},
{
name = topleft;
position = "{15, 730}";
}
);
layerId = "D65C9A1E-0FCA-4B2D-8EDF-9F36CA9182A1";
paths = (
{
closed = 1;
nodes = (
"620 0 LINE",
"620 730 LINE",
"600 730 LINE",
"600 0 LINE"
);
},
{
closed = 1;
nodes = (
"130 0 LINE",
"130 730 LINE",
"110 730 LINE",
"110 0 LINE"
);
},
{
closed = 1;
nodes = (
"610 380 LINE",
"610 400 LINE",
"120 400 LINE",
"120 380 LINE"
);
}
);
width = 730;
},
{
anchors = (
{
name = bottom;
position = "{365, 0}";
},
{
name = center;
position = "{365, 365}";
},
{
name = top;
position = "{365, 730}";
},
{
name = topleft;
position = "{10, 730}";
}
);
layerId = "9527F797-22C1-480E-A1FE-2CDBEBE1FD4C";
paths = (
{
closed = 1;
nodes = (
"645 0 LINE",
"645 730 LINE",
"535 730 LINE",
"535 0 LINE"
);
},
{
closed = 1;
nodes = (
"195 0 LINE",
"195 730 LINE",
"85 730 LINE",
"85 0 LINE"
);
},
{
closed = 1;
nodes = (
"590 332 LINE",
"590 432 LINE",
"140 432 LINE",
"140 332 LINE"
);
}
);
width = 730;
},
{
anchors = (
{
name = bottom;
position = "{365, 0}";
},
{
name = center;
position = "{365, 365}";
},
{
name = top;
position = "{365, 730}";
},
{
name = topleft;
position = "{5, 730}";
}
);
layerId = "9E6B41AB-2970-4C41-8B35-4DBE0D296A43";
paths = (
{
closed = 1;
nodes = (
"670 0 LINE",
"670 730 LINE",
"470 730 LINE",
"470 0 LINE"
);
},
{
closed = 1;
nodes = (
"260 0 LINE",
"260 730 LINE",
"60 730 LINE",
"60 0 LINE"
);
},
{
closed = 1;
nodes = (
"570 290 LINE",
"570 460 LINE",
"160 460 LINE",
"160 290 LINE"
);
}
);
width = 730;
}
);
leftKerningGroup = H;
rightKerningGroup = H;
rightMetricsKey = "=|";
unicode = 0048;
},
{
glyphname = Hbar;
lastChange = "2025-01-21 12:56:24 +0000";
layers = (
{
components = (
{
name = H;
transform = "{1, 0, 0, 1, 35, 0}";
}
);
layerId = "D65C9A1E-0FCA-4B2D-8EDF-9F36CA9182A1";
paths = (
{
closed = 1;
nodes = (
"775 586 LINE",
"775 606 LINE",
"35 606 LINE",
"35 586 LINE"
);
}
);
width = 810;
},
{
components = (
{
alignment = -1;
name = H;
transform = "{1, 0, 0, 1, 42, 0}";
}
);
layerId = "9527F797-22C1-480E-A1FE-2CDBEBE1FD4C";
paths = (
{
closed = 1;
nodes = (
"804 551 LINE",
"804 641 LINE",
"30 641 LINE",
"30 551 LINE"
);
}
);
width = 834;
},
{
components = (
{
name = H;
transform = "{1, 0, 0, 1, 49, 0}";
}
);
layerId = "9E6B41AB-2970-4C41-8B35-4DBE0D296A43";
paths = (
{
closed = 1;
nodes = (
"834 526 LINE",
"834 666 LINE",
"24 666 LINE",
"24 526 LINE"
);
}
);
width = 858;
}
);
leftKerningGroup = W;
leftMetricsKey = "=W";
rightKerningGroup = W;
rightMetricsKey = "=|";
unicode = 0126;
},
{
glyphname = I;
lastChange = "2025-01-21 12:56:24 +0000";
layers = (
{
anchors = (
{
name = bottom;
position = "{131, 0}";
},
{
name = ogonek;
position = "{141, 0}";
},
{
name = top;
position = "{131, 730}";
},
{
name = topleft;
position = "{36, 730}";
}
);
layerId = "D65C9A1E-0FCA-4B2D-8EDF-9F36CA9182A1";
paths = (
{
closed = 1;
nodes = (
"141 0 LINE",
"141 730 LINE",
"121 730 LINE",
"121 0 LINE"
);
}
);
width = 262;
},
{
anchors = (
{
name = bottom;
position = "{151, 0}";
},
{
name = ogonek;
position = "{208, 0}";
},
{
name = top;
position = "{151, 730}";
},
{
name = topleft;
position = "{26, 730}";
}
);
layerId = "9527F797-22C1-480E-A1FE-2CDBEBE1FD4C";
paths = (
{
closed = 1;
nodes = (
"208 0 LINE",
"208 730 LINE",
"94 730 LINE",
"94 0 LINE"
);
}
);
width = 302;
},
{
anchors = (
{
name = bottom;
position = "{171, 0}";
},
{
name = ogonek;
position = "{276, 0}";
},
{
name = top;
position = "{171, 730}";
},
{
name = topleft;
position = "{14, 730}";
}
);
layerId = "9E6B41AB-2970-4C41-8B35-4DBE0D296A43";
paths = (
{
closed = 1;
nodes = (
"276 0 LINE",
"276 730 LINE",
"66 730 LINE",
"66 0 LINE"
);
}
);
width = 342;
}
);
leftKerningGroup = I;
leftMetricsKey = "=H*1.1";
rightKerningGroup = I;
rightMetricsKey = "=|";
unicode = 0049;
},
{
glyphname = J;
lastChange = "2025-01-21 12:56:24 +0000";
layers = (
{
anchors = (
{
name = bottom;
position = "{301, 0}";
},
{
name = top;
position = "{301, 730}";
}
);
layerId = "9527F797-22C1-480E-A1FE-2CDBEBE1FD4C";
leftMetricsKey = "=H*.2";
paths = (
{
closed = 1;
nodes = (
"439 -10 OFFCURVE",
"527 72 OFFCURVE",
"527 250 CURVE SMOOTH",
"527 730 LINE",
"415 730 LINE",
"415 270 LINE SMOOTH",
"415 143 OFFCURVE",
"365 92 OFFCURVE",
"241 92 CURVE SMOOTH",
"174 92 OFFCURVE",
"114 107 OFFCURVE",
"39 142 CURVE",
"17 40 LINE",
"85 6 OFFCURVE",
"161 -10 OFFCURVE",
"247 -10 CURVE SMOOTH"
);
}
);
width = 604;
},
{
anchors = (
{
name = bottom;
position = "{297, 0}";
},
{
name = top;
position = "{297, 730}";
}
);
layerId = "9E6B41AB-2970-4C41-8B35-4DBE0D296A43";
leftMetricsKey = "=H*.1";
paths = (
{
closed = 1;
nodes = (
"454 -10 OFFCURVE",
"546 72 OFFCURVE",
"546 260 CURVE SMOOTH",
"546 730 LINE",
"341 730 LINE",
"341 300 LINE SMOOTH",
"341 195 OFFCURVE",
"316 165 OFFCURVE",
"230 165 CURVE SMOOTH",
"180 165 OFFCURVE",
"132 175 OFFCURVE",
"36 204 CURVE",
"6 29 LINE",
"78 4 OFFCURVE",
"161 -10 OFFCURVE",
"243 -10 CURVE SMOOTH"
);
}
);
width = 600;
},
{
anchors = (
{
name = bottom;
position = "{309, 0}";
},
{
name = top;
position = "{309, 730}";
}
);
layerId = "D65C9A1E-0FCA-4B2D-8EDF-9F36CA9182A1";
leftMetricsKey = "=H*.3";
paths = (
{
closed = 1;
nodes = (
"429 -10 OFFCURVE",
"513 72 OFFCURVE",
"513 240 CURVE SMOOTH",
"513 730 LINE",
"493 730 LINE",
"493 240 LINE SMOOTH",
"493 83 OFFCURVE",
"418 10 OFFCURVE",
"256 10 CURVE SMOOTH",
"173 10 OFFCURVE",
"101 29 OFFCURVE",
"44 67 CURVE",
"33 50 LINE",
"94 10 OFFCURVE",
"170 -10 OFFCURVE",
"256 -10 CURVE SMOOTH"
);
}
);
width = 612;
}
);
leftKerningGroup = J;
leftMetricsKey = "=H*.05";
rightKerningGroup = U;
rightMetricsKey = "=U";
unicode = 004A;
},
{
glyphname = K;
lastChange = "2025-01-21 12:56:24 +0000";
layers = (
{
anchors = (
{
name = bottom;
position = "{325, 0}";
},
{
name = top;
position = "{325, 730}";
}
);
layerId = "D65C9A1E-0FCA-4B2D-8EDF-9F36CA9182A1";
rightMetricsKey = "=H*.3";
paths = (
{
closed = 1;
nodes = (
"130 0 LINE",
"130 376 LINE",
"132 376 LINE",
"618 0 LINE",
"650 0 LINE",
"146 390 LINE",
"640 730 LINE",
"606 730 LINE",
"132 404 LINE",
"130 404 LINE",
"130 730 LINE",
"110 730 LINE",
"110 0 LINE"
);
}
);
width = 683;
},
{
anchors = (
{
name = bottom;
position = "{338, 0}";
},
{
name = top;
position = "{338, 730}";
}
);
layerId = "9527F797-22C1-480E-A1FE-2CDBEBE1FD4C";
rightMetricsKey = "=H*.25";
paths = (
{
closed = 1;
nodes = (
"195 0 LINE",
"195 351 LINE",
"197 351 LINE",
"545 0 LINE",
"685 0 LINE",
"306 382 LINE",
"675 730 LINE",
"535 730 LINE",
"197 413 LINE",
"195 413 LINE",
"195 730 LINE",
"85 730 LINE",
"85 0 LINE"
);
}
);
width = 706;
},
{
anchors = (
{
name = bottom;
position = "{350, 0}";
},
{
name = top;
position = "{350, 730}";
}
);
layerId = "9E6B41AB-2970-4C41-8B35-4DBE0D296A43";
rightMetricsKey = "=H*.2";
paths = (
{
closed = 1;
nodes = (
"260 0 LINE",
"260 335 LINE",
"262 335 LINE",
"490 0 LINE",
"720 0 LINE",
"465 375 LINE",
"710 730 LINE",
"480 730 LINE",
"262 415 LINE",
"260 415 LINE",
"260 730 LINE",
"60 730 LINE",
"60 0 LINE"
);
}
);
width = 732;
}
);
leftKerningGroup = H;
leftMetricsKey = "=H";
rightKerningGroup = K;
rightMetricsKey = "=H*.2";
unicode = 004B;
},
{
glyphname = L;
lastChange = "2025-01-21 12:56:24 +0000";
layers = (
{
anchors = (
{
name = bottom;
position = "{322, 0}";
},
{
name = center;
position = "{322, 375}";
},
{
name = pdcenter;
position = "{525, 375}";
},
{
name = top;
position = "{322, 730}";
},
{
name = topright;
position = "{593, 730}";
}
);
layerId = "D65C9A1E-0FCA-4B2D-8EDF-9F36CA9182A1";
rightMetricsKey = "=H*.5";
paths = (
{
closed = 1;
nodes = (
"580 0 LINE",
"580 20 LINE",
"130 20 LINE",
"130 730 LINE",
"110 730 LINE",
"110 0 LINE"
);
}
);
width = 635;
},
{
anchors = (
{
name = bottom;
position = "{318, 0}";
},
{
name = center;
position = "{318, 375}";
},
{
name = pdcenter;
position = "{565, 375}";
},
{
name = top;
position = "{318, 730}";
},
{
name = topright;
position = "{611, 730}";
}
);
layerId = "9527F797-22C1-480E-A1FE-2CDBEBE1FD4C";
rightMetricsKey = "=H*.45";
paths = (
{
closed = 1;
nodes = (
"595 0 LINE",
"595 100 LINE",
"198 100 LINE",
"198 730 LINE",
"85 730 LINE",
"85 0 LINE"
);
}
);
width = 633;
},
{
anchors = (
{
name = bottom;
position = "{316, 0}";
},
{
name = center;
position = "{316, 375}";
},
{
name = pdcenter;
position = "{605, 375}";
},
{
name = top;
position = "{316, 730}";
},
{
name = topright;
position = "{611, 730}";
}
);
layerId = "9E6B41AB-2970-4C41-8B35-4DBE0D296A43";
rightMetricsKey = "=H*.4";
paths = (
{
closed = 1;
nodes = (
"610 0 LINE",
"610 170 LINE",
"265 170 LINE",
"265 730 LINE",
"60 730 LINE",
"60 0 LINE"
);
}
);
width = 634;
}
);
leftKerningGroup = H;
leftMetricsKey = "=H";
rightKerningGroup = L;
rightMetricsKey = "=H*.4";
unicode = 004C;
},
{
glyphname = Lslash;
lastChange = "2025-01-21 12:56:24 +0000";
layers = (
{
components = (
{
name = L;
transform = "{1, 0, 0, 1, 65, 0}";
}
);
layerId = "D65C9A1E-0FCA-4B2D-8EDF-9F36CA9182A1";
paths = (
{
closed = 1;
nodes = (
"359 431 LINE",
"351 449 LINE",
"21 299 LINE",
"29 281 LINE"
);
}
);
width = 700;
},
{
components = (
{
name = L;
transform = "{1, 0, 0, 1, 79, 0}";
}
);
layerId = "9527F797-22C1-480E-A1FE-2CDBEBE1FD4C";
paths = (
{
closed = 1;
nodes = (
"445 407 LINE",
"409 491 LINE",
"9 323 LINE",
"45 239 LINE"
);
}
);
width = 712;
},
{
components = (
{
name = L;
transform = "{1, 0, 0, 1, 99, 0}";
}
);
layerId = "9E6B41AB-2970-4C41-8B35-4DBE0D296A43";
paths = (
{
closed = 1;
nodes = (
"531 393 LINE",
"476 523 LINE",
"7 337 LINE",
"62 207 LINE"
);
}
);
width = 733;
}
);
leftKerningGroup = t;
leftMetricsKey = "=t*.5";
rightKerningGroup = L;
rightMetricsKey = "=L";
unicode = 0141;
},
{
glyphname = M;
lastChange = "2025-01-21 12:56:24 +0000";
layers = (
{
layerId = "D65C9A1E-0FCA-4B2D-8EDF-9F36CA9182A1";
paths = (
{
closed = 1;
nodes = (
"130 0 LINE",
"130 709 LINE",
"132 709 LINE",
"428 155 LINE",
"452 155 LINE",
"748 709 LINE",
"750 709 LINE",
"750 0 LINE",
"770 0 LINE",
"770 730 LINE",
"739 730 LINE",
"441 174 LINE",
"439 174 LINE",
"141 730 LINE",
"110 730 LINE",
"110 0 LINE"
);
}
);
width = 880;
},
{
layerId = "9527F797-22C1-480E-A1FE-2CDBEBE1FD4C";
paths = (
{
closed = 1;
nodes = (
"195 0 LINE",
"195 555 LINE",
"197 555 LINE",
"388 155 LINE",
"492 155 LINE",
"683 555 LINE",
"685 555 LINE",
"685 0 LINE",
"795 0 LINE",
"795 730 LINE",
"655 730 LINE",
"441 283 LINE",
"439 283 LINE",
"225 730 LINE",
"85 730 LINE",
"85 0 LINE"
);
}
);
width = 880;
},
{
layerId = "9E6B41AB-2970-4C41-8B35-4DBE0D296A43";
paths = (
{
closed = 1;
nodes = (
"260 0 LINE",
"260 420 LINE",
"262 420 LINE",
"350 155 LINE",
"530 155 LINE",
"618 420 LINE",
"620 420 LINE",
"620 0 LINE",
"820 0 LINE",
"820 730 LINE",
"572 730 LINE",
"441 340 LINE",
"439 340 LINE",
"308 730 LINE",
"60 730 LINE",
"60 0 LINE"
);
}
);
width = 880;
}
);
leftKerningGroup = H;
leftMetricsKey = "=H";
rightKerningGroup = H;
rightMetricsKey = "=|";
unicode = 004D;
},
{
glyphname = N;
lastChange = "2025-01-21 12:56:24 +0000";
layers = (
{
anchors = (
{
name = bottom;
position = "{380, 0}";
},
{
name = top;
position = "{380, 730}";
}
);
layerId = "D65C9A1E-0FCA-4B2D-8EDF-9F36CA9182A1";
paths = (
{
closed = 1;
nodes = (
"130 0 LINE",
"130 709 LINE",
"132 709 LINE",
"619 0 LINE",
"650 0 LINE",
"650 730 LINE",
"630 730 LINE",
"630 21 LINE",
"628 21 LINE",
"141 730 LINE",
"110 730 LINE",
"110 0 LINE"
);
}
);
width = 760;
},
{
anchors = (
{
name = bottom;
position = "{375, 0}";
},
{
name = top;
position = "{375, 730}";
}
);
layerId = "9527F797-22C1-480E-A1FE-2CDBEBE1FD4C";
paths = (
{
closed = 1;
nodes = (
"195 0 LINE",
"195 550 LINE",
"197 550 LINE",
"545 0 LINE",
"665 0 LINE",
"665 730 LINE",
"555 730 LINE",
"555 180 LINE",
"553 180 LINE",
"205 730 LINE",
"85 730 LINE",
"85 0 LINE"
);
}
);
width = 750;
},
{
anchors = (
{
name = bottom;
position = "{370, 0}";
},
{
name = top;
position = "{370, 730}";
}
);
layerId = "9E6B41AB-2970-4C41-8B35-4DBE0D296A43";
paths = (
{
closed = 1;
nodes = (
"260 0 LINE",
"260 390 LINE",
"262 390 LINE",
"480 0 LINE",
"680 0 LINE",
"680 730 LINE",
"480 730 LINE",
"480 340 LINE",
"478 340 LINE",
"260 730 LINE",
"60 730 LINE",
"60 0 LINE"
);
}
);
width = 740;
}
);
leftKerningGroup = H;
leftMetricsKey = "=H";
rightKerningGroup = H;
rightMetricsKey = "=|";
unicode = 004E;
},
{
glyphname = Eng;
lastChange = "2025-01-21 12:56:24 +0000";
layers = (
{
anchors = (
{
name = bottom;
position = "{380, 0}";
},
{
name = top;
position = "{380, 730}";
}
);
layerId = "D65C9A1E-0FCA-4B2D-8EDF-9F36CA9182A1";
paths = (
{
closed = 1;
nodes = (
"607 -211 OFFCURVE",
"650 -164 OFFCURVE",
"650 -61 CURVE SMOOTH",
"650 730 LINE",
"630 730 LINE",
"630 21 LINE",
"628 21 LINE",
"141 730 LINE",
"110 730 LINE",
"110 0 LINE",
"130 0 LINE",
"130 709 LINE",
"132 709 LINE",
"641 -32 LINE",
"630 0 LINE",
"630 -61 LINE SMOOTH",
"630 -153 OFFCURVE",
"595 -191 OFFCURVE",
"510 -191 CURVE SMOOTH",
"485 -191 OFFCURVE",
"459 -186 OFFCURVE",
"437 -177 CURVE",
"430 -196 LINE",
"454 -205 OFFCURVE",
"483 -211 OFFCURVE",
"510 -211 CURVE SMOOTH"
);
}
);
width = 760;
},
{
anchors = (
{
name = bottom;
position = "{375, 0}";
},
{
name = top;
position = "{375, 730}";
}
);
layerId = "9527F797-22C1-480E-A1FE-2CDBEBE1FD4C";
paths = (
{
closed = 1;
nodes = (
"613 -221 OFFCURVE",
"665 -163 OFFCURVE",
"665 -26 CURVE SMOOTH",
"665 730 LINE",
"555 730 LINE",
"555 180 LINE",
"553 180 LINE",
"205 730 LINE",
"85 730 LINE",
"85 0 LINE",
"195 0 LINE",
"195 550 LINE",
"197 550 LINE",
"571 -41 LINE",
"557 9 LINE",
"557 -26 LINE SMOOTH",
"557 -97 OFFCURVE",
"531 -126 OFFCURVE",
"467 -126 CURVE SMOOTH",
"442 -126 OFFCURVE",
"416 -122 OFFCURVE",
"392 -114 CURVE",
"375 -205 LINE",
"413 -216 OFFCURVE",
"451 -221 OFFCURVE",
"489 -221 CURVE SMOOTH"
);
}
);
width = 750;
},
{
anchors = (
{
name = bottom;
position = "{370, 0}";
},
{
name = top;
position = "{370, 730}";
}
);
layerId = "9E6B41AB-2970-4C41-8B35-4DBE0D296A43";
paths = (
{
closed = 1;
nodes = (
"625 -229 OFFCURVE",
"680 -169 OFFCURVE",
"680 0 CURVE SMOOTH",
"680 730 LINE",
"480 730 LINE",
"480 340 LINE",
"478 340 LINE",
"260 730 LINE",
"60 730 LINE",
"60 0 LINE",
"260 0 LINE",
"260 390 LINE",
"262 390 LINE",
"524 -79 LINE",
"480 90 LINE",
"480 0 LINE",
"480 -55 OFFCURVE",
"468 -70 OFFCURVE",
"425 -70 CURVE SMOOTH",
"404 -70 OFFCURVE",
"370 -66 OFFCURVE",
"342 -59 CURVE",
"322 -214 LINE",
"370 -223 OFFCURVE",
"420 -229 OFFCURVE",
"468 -229 CURVE SMOOTH"
);
}
);
width = 740;
}
);
leftKerningGroup = H;
leftMetricsKey = "=N";
rightKerningGroup = H;
rightMetricsKey = "=N";
unicode = 014A;
},
{
glyphname = O;
lastChange = "2025-01-21 12:56:24 +0000";
layers = (
{
anchors = (
{
name = bottom;
position = "{425, 0}";
},
{
name = center;
position = "{425, 365}";
},
{
name = ogonek;
position = "{475, 0}";
},
{
name = top;
position = "{425, 730}";
},
{
name = topleft;
position = "{47, 730}";
},
{
name = topright;
position = "{632, 640}";
}
);
layerId = "D65C9A1E-0FCA-4B2D-8EDF-9F36CA9182A1";
paths = (
{
closed = 1;
nodes = (
"645 -10 OFFCURVE",
"795 142 OFFCURVE",
"795 365 CURVE SMOOTH",
"795 588 OFFCURVE",
"645 740 OFFCURVE",
"425 740 CURVE SMOOTH",
"205 740 OFFCURVE",
"55 588 OFFCURVE",
"55 365 CURVE SMOOTH",
"55 142 OFFCURVE",
"205 -10 OFFCURVE",
"425 -10 CURVE SMOOTH"
);
},
{
closed = 1;
nodes = (
"216 10 OFFCURVE",
"75 153 OFFCURVE",
"75 365 CURVE SMOOTH",
"75 577 OFFCURVE",
"216 720 OFFCURVE",
"425 720 CURVE SMOOTH",
"634 720 OFFCURVE",
"775 577 OFFCURVE",
"775 365 CURVE SMOOTH",
"775 153 OFFCURVE",
"634 10 OFFCURVE",
"425 10 CURVE SMOOTH"
);
}
);
width = 850;
},
{
anchors = (
{
name = bottom;
position = "{418, 0}";
},
{
name = center;
position = "{418, 365}";
},
{
name = ogonek;
position = "{485, 0}";
},
{
name = top;
position = "{418, 730}";
},
{
name = topleft;
position = "{36, 730}";
},
{
name = topright;
position = "{623, 650}";
}
);
layerId = "9527F797-22C1-480E-A1FE-2CDBEBE1FD4C";
paths = (
{
closed = 1;
nodes = (
"647 -10 OFFCURVE",
"793 136 OFFCURVE",
"793 365 CURVE SMOOTH",
"793 594 OFFCURVE",
"647 740 OFFCURVE",
"418 740 CURVE SMOOTH",
"189 740 OFFCURVE",
"43 594 OFFCURVE",
"43 365 CURVE SMOOTH",
"43 136 OFFCURVE",
"189 -10 OFFCURVE",
"418 -10 CURVE SMOOTH"
);
},
{
closed = 1;
nodes = (
"255 90 OFFCURVE",
"156 195 OFFCURVE",
"156 365 CURVE SMOOTH",
"156 535 OFFCURVE",
"255 640 OFFCURVE",
"418 640 CURVE SMOOTH",
"580 640 OFFCURVE",
"680 535 OFFCURVE",
"680 365 CURVE SMOOTH",
"680 195 OFFCURVE",
"580 90 OFFCURVE",
"418 90 CURVE SMOOTH"
);
}
);
width = 836;
},
{
anchors = (
{
name = bottom;
position = "{410, 0}";
},
{
name = center;
position = "{410, 365}";
},
{
name = ogonek;
position = "{493, 0}";
},
{
name = top;
position = "{410, 730}";
},
{
name = topleft;
position = "{23, 730}";
},
{
name = topright;
position = "{622, 640}";
}
);
layerId = "9E6B41AB-2970-4C41-8B35-4DBE0D296A43";
paths = (
{
closed = 1;
nodes = (
"649 -10 OFFCURVE",
"790 129 OFFCURVE",
"790 365 CURVE SMOOTH",
"790 601 OFFCURVE",
"649 740 OFFCURVE",
"410 740 CURVE SMOOTH",
"171 740 OFFCURVE",
"30 601 OFFCURVE",
"30 365 CURVE SMOOTH",
"30 129 OFFCURVE",
"171 -10 OFFCURVE",
"410 -10 CURVE SMOOTH"
);
},
{
closed = 1;
nodes = (
"294 160 OFFCURVE",
"235 229 OFFCURVE",
"235 365 CURVE SMOOTH",
"235 501 OFFCURVE",
"294 570 OFFCURVE",
"410 570 CURVE SMOOTH",
"526 570 OFFCURVE",
"585 501 OFFCURVE",
"585 365 CURVE SMOOTH",
"585 229 OFFCURVE",
"526 160 OFFCURVE",
"410 160 CURVE SMOOTH"
);
}
);
width = 820;
}
);
leftKerningGroup = O;
leftMetricsKey = "=H*.5";
rightKerningGroup = O;
rightMetricsKey = "=|";
unicode = 004F;
},
{
glyphname = Oogonek;
lastChange = "2025-01-21 12:56:24 +0000";
layers = (
{
components = (
{
name = O;
}
);
layerId = "D65C9A1E-0FCA-4B2D-8EDF-9F36CA9182A1";
paths = (
{
closed = 1;
nodes = (
"450 -220 OFFCURVE",
"472 -214 OFFCURVE",
"490 -203 CURVE",
"482 -185 LINE",
"463 -195 OFFCURVE",
"444 -200 OFFCURVE",
"426 -200 CURVE SMOOTH",
"378 -200 OFFCURVE",
"353 -178 OFFCURVE",
"353 -135 CURVE SMOOTH",
"353 -91 OFFCURVE",
"389 -26 OFFCURVE",
"515 -1 CURVE",
"510.205 17.22 LINE",
"374.234 -11.299 OFFCURVE",
"333 -81.495 OFFCURVE",
"333 -135 CURVE SMOOTH",
"333 -191 OFFCURVE",
"365 -220 OFFCURVE",
"426 -220 CURVE SMOOTH"
);
}
);
width = 850;
},
{
components = (
{
name = O;
}
);
layerId = "9527F797-22C1-480E-A1FE-2CDBEBE1FD4C";
paths = (
{
closed = 1;
nodes = (
"458 -217 OFFCURVE",
"484 -213 OFFCURVE",
"507 -205 CURVE",
"490 -120 LINE",
"477 -127 OFFCURVE",
"463 -130 OFFCURVE",
"448 -130 CURVE SMOOTH",
"423 -130 OFFCURVE",
"410 -117 OFFCURVE",
"410 -93 CURVE SMOOTH",
"410 -67 OFFCURVE",
"445 -19 OFFCURVE",
"505 -2 CURVE",
"398.434 25.767 LINE",
"338.517 -9.633 OFFCURVE",
"308 -61.707 OFFCURVE",
"308 -107 CURVE SMOOTH",
"308 -177 OFFCURVE",
"352 -217 OFFCURVE",
"429 -217 CURVE SMOOTH"
);
}
);
width = 836;
},
{
components = (
{
name = O;
}
);
layerId = "9E6B41AB-2970-4C41-8B35-4DBE0D296A43";
paths = (
{
closed = 1;
nodes = (
"498 -220 OFFCURVE",
"522 -217 OFFCURVE",
"545 -210 CURVE",
"530 -75 LINE",
"515 -81 OFFCURVE",
"496 -85 OFFCURVE",
"482 -85 CURVE SMOOTH",
"454 -85 OFFCURVE",
"441 -75 OFFCURVE",
"441 -53 CURVE SMOOTH",
"441 -32 OFFCURVE",
"457 -17 OFFCURVE",
"493 -4 CURVE",
"356.357 46.129 LINE",
"292.847 0.673 OFFCURVE",
"265 -36.13 OFFCURVE",
"265 -82 CURVE SMOOTH",
"265 -170 OFFCURVE",
"338 -220 OFFCURVE",
"470 -220 CURVE SMOOTH"
);
}
);
width = 820;
},
{
associatedMasterId = "D65C9A1E-0FCA-4B2D-8EDF-9F36CA9182A1";
components = (
{
name = O;
}
);
layerId = "7C8F7773-B51D-431E-A8E8-00FE32D95133";
name = "Apr 30 21, 10:16";
paths = (
{
closed = 1;
nodes = (
"450 -220 OFFCURVE",
"472 -214 OFFCURVE",
"490 -203 CURVE",
"482 -185 LINE",
"463 -195 OFFCURVE",
"444 -200 OFFCURVE",
"426 -200 CURVE SMOOTH",
"378 -200 OFFCURVE",
"353 -178 OFFCURVE",
"353 -135 CURVE SMOOTH",
"353 -91 OFFCURVE",
"389 -26 OFFCURVE",
"515 -1 CURVE",
"529 10 LINE",
"514 18 LINE",
"375 -10 OFFCURVE",
"333 -81 OFFCURVE",
"333 -135 CURVE SMOOTH",
"333 -191 OFFCURVE",
"365 -220 OFFCURVE",
"426 -220 CURVE SMOOTH"
);
}
);
width = 850;
}
);
leftKerningGroup = O;
rightKerningGroup = O;
unicode = 01EA;
},
{
glyphname = Oslash;
lastChange = "2025-01-21 12:56:24 +0000";
layers = (
{
anchors = (
{
name = bottom;
position = "{418, 0}";
},
{
name = top;
position = "{418, 730}";
}
);
components = (
{
name = O;
}
);
layerId = "D65C9A1E-0FCA-4B2D-8EDF-9F36CA9182A1";
paths = (
{
closed = 1;
nodes = (
"205 63 LINE",
"205 63 LINE",
"647 655 LINE",
"647 655 LINE",
"706 734 LINE",
"690 746 LINE",
"631 667 LINE",
"631 667 LINE",
"189 75 LINE",
"189 75 LINE",
"130 -4 LINE",
"146 -16 LINE"
);
}
);
width = 794;
},
{
anchors = (
{
name = bottom;
position = "{415, 0}";
},
{
name = top;
position = "{415, 730}";
}
);
components = (
{
alignment = -1;
name = O;
}
);
layerId = "9527F797-22C1-480E-A1FE-2CDBEBE1FD4C";
paths = (
{
closed = 1;
nodes = (
"230 41 LINE",
"230 41 LINE",
"670 629 LINE",
"670 629 LINE",
"732 713 LINE",
"659 768 LINE",
"601 689 LINE",
"601 689 LINE",
"161 101 LINE",
"161 101 LINE",
"98 18 LINE",
"171 -38 LINE"
);
}
);
width = 804;
},
{
anchors = (
{
name = bottom;
position = "{413, 0}";
},
{
name = top;
position = "{413, 730}";
}
);
components = (
{
name = O;
}
);
layerId = "9E6B41AB-2970-4C41-8B35-4DBE0D296A43";
paths = (
{
closed = 1;
nodes = (
"255 28 LINE",
"243 37 LINE",
"679 621 LINE",
"691 612 LINE",
"753 695 LINE",
"633 785 LINE",
"571 702 LINE",
"583 693 LINE",
"147 109 LINE",
"135 118 LINE",
"73 35 LINE",
"193 -55 LINE"
);
}
);
width = 814;
}
);
leftKerningGroup = O;
rightKerningGroup = O;
unicode = 00D8;
},
{
glyphname = OE;
lastChange = "2025-01-21 12:56:24 +0000";
layers = (
{
components = (
{
name = E;
transform = "{1, 0, 0, 1, 450, 0}";
}
);
layerId = "D65C9A1E-0FCA-4B2D-8EDF-9F36CA9182A1";
paths = (
{
closed = 1;
nodes = (
"471 -10 OFFCURVE",
"541 -4 OFFCURVE",
"587 4 CURVE",
"577.863 22.926 LINE",
"532.788 15.09 OFFCURVE",
"468.29 10 OFFCURVE",
"425 10 CURVE SMOOTH",
"216 10 OFFCURVE",
"75 153 OFFCURVE",
"75 365 CURVE SMOOTH",
"75 577 OFFCURVE",
"216 720 OFFCURVE",
"425 720 CURVE SMOOTH",
"468.29 720 OFFCURVE",
"532.788 714.91 OFFCURVE",
"577.863 707.074 CURVE",
"587 726 LINE",
"541 734 OFFCURVE",
"471 740 OFFCURVE",
"425 740 CURVE SMOOTH",
"205 740 OFFCURVE",
"55 588 OFFCURVE",
"55 365 CURVE SMOOTH",
"55 142 OFFCURVE",
"205 -10 OFFCURVE",
"425 -10 CURVE SMOOTH"
);
}
);
width = 1073;
},
{
components = (
{
alignment = -1;
name = E;
transform = "{1, 0, 0, 1, 431, 0}";
}
);
layerId = "9527F797-22C1-480E-A1FE-2CDBEBE1FD4C";
paths = (
{
closed = 1;
nodes = (
"502 -10 OFFCURVE",
"575 10 OFFCURVE",
"634 46 CURVE",
"557.63 123.058 LINE",
"518.785 101.917 OFFCURVE",
"471.703 90 OFFCURVE",
"418 90 CURVE SMOOTH",
"255 90 OFFCURVE",
"156 195 OFFCURVE",
"156 365 CURVE SMOOTH",
"156 535 OFFCURVE",
"255 640 OFFCURVE",
"418 640 CURVE SMOOTH",
"471.703 640 OFFCURVE",
"518.785 628.083 OFFCURVE",
"557.63 606.942 CURVE",
"634 684 LINE",
"575 720 OFFCURVE",
"502 740 OFFCURVE",
"418 740 CURVE SMOOTH",
"189 740 OFFCURVE",
"43 594 OFFCURVE",
"43 365 CURVE SMOOTH",
"43 136 OFFCURVE",
"189 -10 OFFCURVE",
"418 -10 CURVE SMOOTH"
);
}
);
width = 1064;
},
{
components = (
{
name = E;
transform = "{1, 0, 0, 1, 454, 0}";
}
);
layerId = "9E6B41AB-2970-4C41-8B35-4DBE0D296A43";
paths = (
{
closed = 1;
nodes = (
"530 -10 OFFCURVE",
"626 25 OFFCURVE",
"691 91 CURVE",
"554.307 229.06 LINE",
"525.276 182.886 OFFCURVE",
"477.174 160 OFFCURVE",
"410 160 CURVE SMOOTH",
"294 160 OFFCURVE",
"235 229 OFFCURVE",
"235 365 CURVE SMOOTH",
"235 501 OFFCURVE",
"294 570 OFFCURVE",
"410 570 CURVE SMOOTH",
"477.174 570 OFFCURVE",
"525.276 547.114 OFFCURVE",
"554.307 500.94 CURVE",
"691 639 LINE",
"626 705 OFFCURVE",
"530 740 OFFCURVE",
"410 740 CURVE SMOOTH",
"171 740 OFFCURVE",
"30 601 OFFCURVE",
"30 365 CURVE SMOOTH",
"30 129 OFFCURVE",
"171 -10 OFFCURVE",
"410 -10 CURVE SMOOTH"
);
}
);
width = 1095;
}
);
leftKerningGroup = O;
leftMetricsKey = "=O";
rightKerningGroup = E;
rightMetricsKey = "=E";
unicode = 0152;
},
{
glyphname = P;
lastChange = "2025-01-21 12:56:24 +0000";
layers = (
{
layerId = "D65C9A1E-0FCA-4B2D-8EDF-9F36CA9182A1";
rightMetricsKey = "=H*.3";
paths = (
{
closed = 1;
nodes = (
"130 0 LINE",
"130 710 LINE",
"287 710 LINE SMOOTH",
"487 710 OFFCURVE",
"570 651 OFFCURVE",
"570 510 CURVE SMOOTH",
"570 369 OFFCURVE",
"487 310 OFFCURVE",
"287 310 CURVE SMOOTH",
"120 310 LINE",
"120 290 LINE",
"287 290 LINE SMOOTH",
"498 290 OFFCURVE",
"590 357 OFFCURVE",
"590 510 CURVE SMOOTH",
"590 663 OFFCURVE",
"498 730 OFFCURVE",
"287 730 CURVE SMOOTH",
"110 730 LINE",
"110 0 LINE"
);
}
);
width = 623;
},
{
layerId = "9527F797-22C1-480E-A1FE-2CDBEBE1FD4C";
rightMetricsKey = "=H*.35";
paths = (
{
closed = 1;
nodes = (
"195 0 LINE",
"195 630 LINE",
"297 630 LINE SMOOTH",
"441 630 OFFCURVE",
"503 587 OFFCURVE",
"503 487 CURVE SMOOTH",
"503 387 OFFCURVE",
"441 344 OFFCURVE",
"297 344 CURVE SMOOTH",
"140 344 LINE",
"140 244 LINE",
"310 244 LINE SMOOTH",
"515 244 OFFCURVE",
"615 324 OFFCURVE",
"615 487 CURVE SMOOTH",
"615 652 OFFCURVE",
"512 730 OFFCURVE",
"295 730 CURVE SMOOTH",
"85 730 LINE",
"85 0 LINE"
);
}
);
width = 645;
},
{
layerId = "9E6B41AB-2970-4C41-8B35-4DBE0D296A43";
rightMetricsKey = "=H*.4";
paths = (
{
closed = 1;
nodes = (
"260 0 LINE",
"260 570 LINE",
"307 570 LINE SMOOTH",
"395 570 OFFCURVE",
"435 537 OFFCURVE",
"435 465 CURVE SMOOTH",
"435 393 OFFCURVE",
"395 360 OFFCURVE",
"307 360 CURVE SMOOTH",
"160 360 LINE",
"160 200 LINE",
"333 200 LINE SMOOTH",
"532 200 OFFCURVE",
"640 293 OFFCURVE",
"640 465 CURVE SMOOTH",
"640 641 OFFCURVE",
"527 730 OFFCURVE",
"302 730 CURVE SMOOTH",
"60 730 LINE",
"60 0 LINE"
);
}
);
width = 664;
}
);
leftKerningGroup = H;
leftMetricsKey = "=H";
rightKerningGroup = P;
rightMetricsKey = "=H*.4";
unicode = 0050;
},
{
glyphname = Thorn;
lastChange = "2025-01-21 12:56:24 +0000";
layers = (
{
layerId = "D65C9A1E-0FCA-4B2D-8EDF-9F36CA9182A1";
paths = (
{
closed = 1;
nodes = (
"287 155 LINE SMOOTH",
"498 155 OFFCURVE",
"590 222 OFFCURVE",
"590 375 CURVE SMOOTH",
"590 528 OFFCURVE",
"498 595 OFFCURVE",
"287 595 CURVE SMOOTH",
"120 595 LINE",
"120 575 LINE",
"287 575 LINE SMOOTH",
"487 575 OFFCURVE",
"570 516 OFFCURVE",
"570 375 CURVE SMOOTH",
"570 234 OFFCURVE",
"487 175 OFFCURVE",
"287 175 CURVE SMOOTH",
"120 175 LINE",
"120 155 LINE"
);
},
{
closed = 1;
nodes = (
"130 0 LINE",
"130 730 LINE",
"110 730 LINE",
"110 0 LINE"
);
}
);
width = 623;
},
{
layerId = "9527F797-22C1-480E-A1FE-2CDBEBE1FD4C";
paths = (
{
closed = 1;
nodes = (
"310 132 LINE SMOOTH",
"515 132 OFFCURVE",
"615 212 OFFCURVE",
"615 375 CURVE SMOOTH",
"615 538 OFFCURVE",
"515 618 OFFCURVE",
"310 618 CURVE SMOOTH",
"140 618 LINE",
"140 518 LINE",
"297 518 LINE SMOOTH",
"441 518 OFFCURVE",
"503 475 OFFCURVE",
"503 375 CURVE SMOOTH",
"503 275 OFFCURVE",
"441 232 OFFCURVE",
"297 232 CURVE SMOOTH",
"140 232 LINE",
"140 132 LINE"
);
},
{
closed = 1;
nodes = (
"195 0 LINE",
"195 730 LINE",
"85 730 LINE",
"85 0 LINE"
);
}
);
width = 645;
},
{
layerId = "9E6B41AB-2970-4C41-8B35-4DBE0D296A43";
paths = (
{
closed = 1;
nodes = (
"333 110 LINE SMOOTH",
"532 110 OFFCURVE",
"640 203 OFFCURVE",
"640 375 CURVE SMOOTH",
"640 547 OFFCURVE",
"532 640 OFFCURVE",
"333 640 CURVE SMOOTH",
"160 640 LINE",
"160 480 LINE",
"307 480 LINE SMOOTH",
"395 480 OFFCURVE",
"435 447 OFFCURVE",
"435 375 CURVE SMOOTH",
"435 303 OFFCURVE",
"395 270 OFFCURVE",
"307 270 CURVE SMOOTH",
"160 270 LINE",
"160 110 LINE"
);
},
{
closed = 1;
nodes = (
"260 0 LINE",
"260 730 LINE",
"60 730 LINE",
"60 0 LINE"
);
}
);
width = 664;
}
);
leftKerningGroup = H;
leftMetricsKey = "=P";
rightKerningGroup = O;
rightMetricsKey = "=P";
unicode = 00DE;
},
{
glyphname = Q;
lastChange = "2025-01-21 12:56:24 +0000";
layers = (
{
layerId = "9527F797-22C1-480E-A1FE-2CDBEBE1FD4C";
rightMetricsKey = "=O-11";
paths = (
{
closed = 1;
nodes = (
"795 -71 LINE",
"751 -24 OFFCURVE",
"692 13 OFFCURVE",
"621 37 CURVE",
"621 39 LINE",
"732 100 OFFCURVE",
"793 216 OFFCURVE",
"793 365 CURVE SMOOTH",
"793 594 OFFCURVE",
"647 740 OFFCURVE",
"418 740 CURVE SMOOTH",
"189 740 OFFCURVE",
"43 594 OFFCURVE",
"43 365 CURVE SMOOTH",
"43 136 OFFCURVE",
"189 -10 OFFCURVE",
"418 -10 CURVE SMOOTH",
"542 -10 OFFCURVE",
"646 -54 OFFCURVE",
"708 -133 CURVE"
);
},
{
closed = 1;
nodes = (
"255 90 OFFCURVE",
"156 195 OFFCURVE",
"156 365 CURVE SMOOTH",
"156 535 OFFCURVE",
"255 640 OFFCURVE",
"418 640 CURVE SMOOTH",
"580 640 OFFCURVE",
"680 535 OFFCURVE",
"680 365 CURVE SMOOTH",
"680 195 OFFCURVE",
"580 90 OFFCURVE",
"418 90 CURVE SMOOTH"
);
}
);
width = 827;
},
{
layerId = "D65C9A1E-0FCA-4B2D-8EDF-9F36CA9182A1";
rightMetricsKey = "=O";
paths = (
{
closed = 1;
nodes = (
"790 -102 LINE",
"730 -46 OFFCURVE",
"642 -11 OFFCURVE",
"530 2 CURVE",
"530 4 LINE",
"691 44 OFFCURVE",
"794 180 OFFCURVE",
"794 365 CURVE SMOOTH",
"794 588 OFFCURVE",
"645 740 OFFCURVE",
"424 740 CURVE SMOOTH",
"205 740 OFFCURVE",
"55 588 OFFCURVE",
"55 365 CURVE SMOOTH",
"55 142 OFFCURVE",
"205 -10 OFFCURVE",
"424 -10 CURVE SMOOTH",
"582 -10 OFFCURVE",
"701 -46 OFFCURVE",
"774 -116 CURVE"
);
},
{
closed = 1;
nodes = (
"215 10 OFFCURVE",
"75 153 OFFCURVE",
"75 365 CURVE SMOOTH",
"75 577 OFFCURVE",
"215 720 OFFCURVE",
"425 720 CURVE SMOOTH",
"634 720 OFFCURVE",
"775 577 OFFCURVE",
"775 365 CURVE SMOOTH",
"775 153 OFFCURVE",
"634 10 OFFCURVE",
"425 10 CURVE SMOOTH"
);
}
);
width = 849;
},
{
layerId = "9E6B41AB-2970-4C41-8B35-4DBE0D296A43";
rightMetricsKey = "=O-12";
paths = (
{
closed = 1;
nodes = (
"800 -40 LINE",
"763 8 OFFCURVE",
"720 44 OFFCURVE",
"669 69 CURVE",
"669 71 LINE",
"748 135 OFFCURVE",
"790 237 OFFCURVE",
"790 365 CURVE SMOOTH",
"790 601 OFFCURVE",
"649 740 OFFCURVE",
"410 740 CURVE SMOOTH",
"171 740 OFFCURVE",
"30 601 OFFCURVE",
"30 365 CURVE SMOOTH",
"30 129 OFFCURVE",
"171 -10 OFFCURVE",
"410 -10 CURVE SMOOTH",
"521 -10 OFFCURVE",
"572 -41 OFFCURVE",
"640 -150 CURVE"
);
},
{
closed = 1;
nodes = (
"294 160 OFFCURVE",
"235 229 OFFCURVE",
"235 365 CURVE SMOOTH",
"235 501 OFFCURVE",
"294 570 OFFCURVE",
"410 570 CURVE SMOOTH",
"526 570 OFFCURVE",
"585 501 OFFCURVE",
"585 365 CURVE SMOOTH",
"585 229 OFFCURVE",
"526 160 OFFCURVE",
"410 160 CURVE SMOOTH"
);
}
);
width = 818;
}
);
leftKerningGroup = O;
leftMetricsKey = "=O";
rightKerningGroup = O;
rightMetricsKey = "=O-12";
unicode = 0051;
},
{
glyphname = R;
lastChange = "2025-01-21 12:56:24 +0000";
layers = (
{
anchors = (
{
name = bottom;
position = "{345, 0}";
},
{
name = top;
position = "{345, 730}";
}
);
layerId = "9527F797-22C1-480E-A1FE-2CDBEBE1FD4C";
paths = (
{
closed = 1;
nodes = (
"195 0 LINE",
"195 630 LINE",
"310 630 LINE SMOOTH",
"446 630 OFFCURVE",
"503 594 OFFCURVE",
"503 509 CURVE SMOOTH",
"503 424 OFFCURVE",
"446 388 OFFCURVE",
"310 388 CURVE SMOOTH",
"140 388 LINE",
"140 292 LINE",
"326 292 LINE SMOOTH",
"520 292 OFFCURVE",
"615 365 OFFCURVE",
"615 513 CURVE SMOOTH",
"615 663 OFFCURVE",
"519 730 OFFCURVE",
"305 730 CURVE SMOOTH",
"85 730 LINE",
"85 0 LINE"
);
},
{
closed = 1;
nodes = (
"655 0 LINE",
"364 334 LINE",
"230 334 LINE",
"517 0 LINE"
);
}
);
width = 689;
},
{
anchors = (
{
name = bottom;
position = "{357, 0}";
},
{
name = top;
position = "{357, 730}";
}
);
layerId = "9E6B41AB-2970-4C41-8B35-4DBE0D296A43";
paths = (
{
closed = 1;
nodes = (
"260 0 LINE",
"260 570 LINE",
"322 570 LINE SMOOTH",
"400 570 OFFCURVE",
"435 544 OFFCURVE",
"435 485 CURVE SMOOTH",
"435 426 OFFCURVE",
"400 400 OFFCURVE",
"322 400 CURVE SMOOTH",
"160 400 LINE",
"160 254 LINE",
"353 254 LINE SMOOTH",
"540 254 OFFCURVE",
"640 339 OFFCURVE",
"640 495 CURVE SMOOTH",
"640 654 OFFCURVE",
"534 730 OFFCURVE",
"312 730 CURVE SMOOTH",
"60 730 LINE",
"60 0 LINE"
);
},
{
closed = 1;
nodes = (
"690 0 LINE",
"443 327 LINE",
"231 327 LINE",
"470 0 LINE"
);
}
);
width = 714;
},
{
anchors = (
{
name = bottom;
position = "{332, 0}";
},
{
name = top;
position = "{332, 730}";
}
);
layerId = "D65C9A1E-0FCA-4B2D-8EDF-9F36CA9182A1";
paths = (
{
closed = 1;
nodes = (
"130 0 LINE",
"130 710 LINE",
"297 710 LINE SMOOTH",
"492 710 OFFCURVE",
"570 657 OFFCURVE",
"570 530 CURVE SMOOTH",
"570 403 OFFCURVE",
"492 350 OFFCURVE",
"297 350 CURVE SMOOTH",
"120 350 LINE",
"120 330 LINE",
"297 330 LINE SMOOTH",
"502 330 OFFCURVE",
"590 390 OFFCURVE",
"590 530 CURVE SMOOTH",
"590 670 OFFCURVE",
"502 730 OFFCURVE",
"297 730 CURVE SMOOTH",
"110 730 LINE",
"110 0 LINE"
);
},
{
closed = 1;
nodes = (
"620 0 LINE",
"283 340 LINE",
"255 340 LINE",
"592 0 LINE"
);
}
);
width = 664;
}
);
leftKerningGroup = H;
leftMetricsKey = "=H";
rightKerningGroup = R;
rightMetricsKey = "=H*.4";
unicode = 0052;
},
{
glyphname = S;
lastChange = "2025-01-21 12:56:24 +0000";
layers = (
{
anchors = (
{
name = bottom;
position = "{309, 0}";
},
{
name = cedi;
position = "{261, -1}";
},
{
name = top;
position = "{309, 730}";
}
);
layerId = "D65C9A1E-0FCA-4B2D-8EDF-9F36CA9182A1";
leftMetricsKey = "=H*.7";
paths = (
{
closed = 1;
nodes = (
"461 -10 OFFCURVE",
"554 62 OFFCURVE",
"554 183 CURVE SMOOTH",
"554 323 OFFCURVE",
"430 357 OFFCURVE",
"315 388 CURVE SMOOTH",
"203 418 OFFCURVE",
"100 446 OFFCURVE",
"100 561 CURVE SMOOTH",
"100 662 OFFCURVE",
"180 720 OFFCURVE",
"320 720 CURVE SMOOTH",
"396 720 OFFCURVE",
"479 703 OFFCURVE",
"527 677 CURVE",
"537 695 LINE",
"485 722 OFFCURVE",
"398 740 OFFCURVE",
"320 740 CURVE SMOOTH",
"170 740 OFFCURVE",
"80 674 OFFCURVE",
"80 561 CURVE SMOOTH",
"80 431 OFFCURVE",
"198 399 OFFCURVE",
"310 369 CURVE SMOOTH",
"425 338 OFFCURVE",
"534 308 OFFCURVE",
"534 183 CURVE SMOOTH",
"534 73 OFFCURVE",
"450 10 OFFCURVE",
"304 10 CURVE SMOOTH",
"228 10 OFFCURVE",
"141 27 OFFCURVE",
"85 53 CURVE",
"77 35 LINE",
"135 8 OFFCURVE",
"225 -10 OFFCURVE",
"304 -10 CURVE SMOOTH"
);
}
);
width = 631;
},
{
anchors = (
{
name = bottom;
position = "{316, 0}";
},
{
name = cedi;
position = "{253, 0}";
},
{
name = top;
position = "{316, 730}";
}
);
layerId = "9527F797-22C1-480E-A1FE-2CDBEBE1FD4C";
leftMetricsKey = "=H*.65";
paths = (
{
closed = 1;
nodes = (
"488 -10 OFFCURVE",
"591 66 OFFCURVE",
"591 197 CURVE SMOOTH",
"591 324 OFFCURVE",
"494 375 OFFCURVE",
"351 415 CURVE SMOOTH",
"237 447 OFFCURVE",
"172 468 OFFCURVE",
"172 542 CURVE SMOOTH",
"172 605 OFFCURVE",
"227 640 OFFCURVE",
"331 640 CURVE SMOOTH",
"406 640 OFFCURVE",
"487 622 OFFCURVE",
"547 594 CURVE",
"575 694 LINE",
"514 722 OFFCURVE",
"420 740 OFFCURVE",
"332 740 CURVE SMOOTH",
"157 740 OFFCURVE",
"57 669 OFFCURVE",
"57 543 CURVE SMOOTH",
"57 420 OFFCURVE",
"150 365 OFFCURVE",
"284 329 CURVE SMOOTH",
"405 296 OFFCURVE",
"476 275 OFFCURVE",
"476 198 CURVE SMOOTH",
"476 129 OFFCURVE",
"418 90 OFFCURVE",
"316 90 CURVE SMOOTH",
"239 90 OFFCURVE",
"148 112 OFFCURVE",
"83 145 CURVE",
"55 45 LINE",
"117 11 OFFCURVE",
"215 -10 OFFCURVE",
"309 -10 CURVE SMOOTH"
);
}
);
width = 646;
},
{
anchors = (
{
name = bottom;
position = "{325, 0}";
},
{
name = cedi;
position = "{244, 0}";
},
{
name = top;
position = "{325, 730}";
}
);
layerId = "9E6B41AB-2970-4C41-8B35-4DBE0D296A43";
leftMetricsKey = "=H*.6";
paths = (
{
closed = 1;
nodes = (
"517 -10 OFFCURVE",
"630 69 OFFCURVE",
"630 210 CURVE SMOOTH",
"630 320 OFFCURVE",
"562 384 OFFCURVE",
"392 434 CURVE SMOOTH",
"273 469 OFFCURVE",
"246 488 OFFCURVE",
"246 526 CURVE SMOOTH",
"246 560 OFFCURVE",
"277 575 OFFCURVE",
"344 575 CURVE SMOOTH",
"420 575 OFFCURVE",
"502 556 OFFCURVE",
"574 522 CURVE",
"616 692 LINE",
"545 722 OFFCURVE",
"444 740 OFFCURVE",
"347 740 CURVE SMOOTH",
"147 740 OFFCURVE",
"36 663 OFFCURVE",
"36 525 CURVE SMOOTH",
"36 413 OFFCURVE",
"107 340 OFFCURVE",
"264 297 CURVE SMOOTH",
"390 262 OFFCURVE",
"420 245 OFFCURVE",
"420 210 CURVE SMOOTH",
"420 174 OFFCURVE",
"389 155 OFFCURVE",
"330 155 CURVE SMOOTH",
"256 155 OFFCURVE",
"147 185 OFFCURVE",
"78 224 CURVE",
"36 54 LINE",
"101 14 OFFCURVE",
"207 -10 OFFCURVE",
"317 -10 CURVE SMOOTH"
);
}
);
width = 666;
}
);
leftKerningGroup = S;
leftMetricsKey = "=H*.6";
rightKerningGroup = S;
rightMetricsKey = "=|";
unicode = 0053;
},
{
glyphname = Germandbls;
lastChange = "2025-01-21 12:56:24 +0000";
layers = (
{
layerId = "D65C9A1E-0FCA-4B2D-8EDF-9F36CA9182A1";
paths = (
{
closed = 1;
nodes = (
"110 0 LINE",
"130 0 LINE",
"130 485 LINE SMOOTH",
"130 647 OFFCURVE",
"204 720 OFFCURVE",
"368 720 CURVE SMOOTH",
"436 720 OFFCURVE",
"510 706 OFFCURVE",
"570 658 CURVE",
"587 672 LINE",
"521 724 OFFCURVE",
"442 740 OFFCURVE",
"368 740 CURVE SMOOTH",
"194 740 OFFCURVE",
"110 660 OFFCURVE",
"110 490 CURVE SMOOTH"
);
},
{
closed = 1;
nodes = (
"541 -10 OFFCURVE",
"630 58 OFFCURVE",
"630 180 CURVE SMOOTH",
"630 302 OFFCURVE",
"540 370 OFFCURVE",
"379 370 CURVE",
"379 372 LINE",
"587 672 LINE",
"567 681 LINE",
"352 369 LINE",
"364 350 LINE",
"384 350 LINE SMOOTH",
"531 350 OFFCURVE",
"610 290 OFFCURVE",
"610 180 CURVE SMOOTH",
"610 70 OFFCURVE",
"530 10 OFFCURVE",
"381 10 CURVE SMOOTH",
"337 10 OFFCURVE",
"299 15 OFFCURVE",
"262 26 CURVE",
"256 7 LINE",
"297 -5 OFFCURVE",
"338 -10 OFFCURVE",
"381 -10 CURVE SMOOTH"
);
}
);
width = 661;
},
{
layerId = "9527F797-22C1-480E-A1FE-2CDBEBE1FD4C";
paths = (
{
closed = 1;
nodes = (
"85 0 LINE",
"195 0 LINE",
"195 453 LINE SMOOTH",
"195 576 OFFCURVE",
"259 640 OFFCURVE",
"382 640 CURVE SMOOTH",
"449 640 OFFCURVE",
"507 616 OFFCURVE",
"551 571 CURVE",
"639 662 LINE",
"567 713 OFFCURVE",
"479 740 OFFCURVE",
"382 740 CURVE SMOOTH",
"187 740 OFFCURVE",
"85 645 OFFCURVE",
"85 463 CURVE SMOOTH"
);
},
{
closed = 1;
nodes = (
"573 -10 OFFCURVE",
"660 70 OFFCURVE",
"660 215 CURVE SMOOTH",
"660 339 OFFCURVE",
"597 412 OFFCURVE",
"479 423 CURVE",
"479 425 LINE",
"639 661 LINE",
"509 659 LINE",
"335 400 LINE",
"360 340 LINE",
"360 340 LINE",
"489 340 OFFCURVE",
"548 301 OFFCURVE",
"548 215 CURVE SMOOTH",
"548 135 OFFCURVE",
"495 90 OFFCURVE",
"401 90 CURVE SMOOTH",
"367 90 OFFCURVE",
"338 95 OFFCURVE",
"298 111 CURVE",
"283 11 LINE",
"326 -3 OFFCURVE",
"369 -10 OFFCURVE",
"416 -10 CURVE SMOOTH"
);
}
);
width = 687;
},
{
layerId = "9E6B41AB-2970-4C41-8B35-4DBE0D296A43";
paths = (
{
closed = 1;
nodes = (
"60 0 LINE",
"260 0 LINE",
"260 460 LINE",
"260 539 OFFCURVE",
"292 570 OFFCURVE",
"375 570 CURVE SMOOTH",
"444 570 OFFCURVE",
"493 548 OFFCURVE",
"550 490 CURVE",
"670 620 LINE",
"600 699 OFFCURVE",
"498 740 OFFCURVE",
"375 740 CURVE SMOOTH",
"165 740 OFFCURVE",
"60 647 OFFCURVE",
"60 460 CURVE"
);
},
{
closed = 1;
nodes = (
"608 -10 OFFCURVE",
"690 65 OFFCURVE",
"690 210 CURVE SMOOTH",
"690 313 OFFCURVE",
"633 376 OFFCURVE",
"523 395 CURVE",
"523 397 LINE",
"670 620 LINE",
"507 659 LINE",
"335 400 LINE",
"384 280 LINE",
"384 280 LINE",
"450 280 OFFCURVE",
"485 258 OFFCURVE",
"485 216 CURVE SMOOTH",
"485 179 OFFCURVE",
"463 160 OFFCURVE",
"420 160 CURVE SMOOTH",
"396 160 OFFCURVE",
"369 166 OFFCURVE",
"335 180 CURVE",
"310 15 LINE",
"352 -1 OFFCURVE",
"400 -10 OFFCURVE",
"450 -10 CURVE SMOOTH"
);
}
);
width = 711;
}
);
leftKerningGroup = H;
leftMetricsKey = "=B";
rightKerningGroup = B;
rightMetricsKey = "=B*.7";
unicode = 1E9E;
},
{
glyphname = T;
lastChange = "2025-01-21 12:56:24 +0000";
layers = (
{
anchors = (
{
name = bottom;
position = "{333, 0}";
},
{
name = cedi;
position = "{323, 0}";
},
{
name = center;
position = "{333, 365}";
},
{
name = top;
position = "{333, 730}";
}
);
layerId = "D65C9A1E-0FCA-4B2D-8EDF-9F36CA9182A1";
leftMetricsKey = "=H*.3";
paths = (
{
closed = 1;
nodes = (
"343 0 LINE",
"343 710 LINE",
"633 710 LINE",
"633 730 LINE",
"33 730 LINE",
"33 710 LINE",
"323 710 LINE",
"323 0 LINE"
);
}
);
width = 666;
},
{
anchors = (
{
name = bottom;
position = "{335, 0}";
},
{
name = cedi;
position = "{278, 0}";
},
{
name = center;
position = "{335, 365}";
},
{
name = top;
position = "{335, 730}";
}
);
layerId = "9527F797-22C1-480E-A1FE-2CDBEBE1FD4C";
leftMetricsKey = "=H*.35";
paths = (
{
closed = 1;
nodes = (
"392 0 LINE",
"392 630 LINE",
"640 630 LINE",
"640 730 LINE",
"30 730 LINE",
"30 630 LINE",
"278 630 LINE",
"278 0 LINE"
);
}
);
width = 670;
},
{
anchors = (
{
name = bottom;
position = "{334, 0}";
},
{
name = cedi;
position = "{231, 0}";
},
{
name = center;
position = "{334, 365}";
},
{
name = top;
position = "{334, 730}";
}
);
layerId = "9E6B41AB-2970-4C41-8B35-4DBE0D296A43";
leftMetricsKey = "=H*.4";
paths = (
{
closed = 1;
nodes = (
"437 0 LINE",
"437 560 LINE",
"644 560 LINE",
"644 730 LINE",
"24 730 LINE",
"24 560 LINE",
"231 560 LINE",
"231 0 LINE"
);
}
);
width = 668;
}
);
leftKerningGroup = T;
leftMetricsKey = "=H*0.4";
rightKerningGroup = T;
rightMetricsKey = "=|";
unicode = 0054;
},
{
glyphname = Tbar;
lastChange = "2025-01-21 12:56:24 +0000";
layers = (
{
components = (
{
name = T;
transform = "{1, 0, 0, 1, 33, 0}";
}
);
layerId = "D65C9A1E-0FCA-4B2D-8EDF-9F36CA9182A1";
paths = (
{
closed = 1;
nodes = (
"571 305 LINE",
"571 325 LINE",
"151 325 LINE",
"151 305 LINE"
);
}
);
width = 732;
},
{
components = (
{
alignment = -1;
name = T;
transform = "{1, 0, 0, 1, 30, 0}";
}
);
layerId = "9527F797-22C1-480E-A1FE-2CDBEBE1FD4C";
paths = (
{
closed = 1;
nodes = (
"593 270 LINE",
"593 360 LINE",
"133 360 LINE",
"133 270 LINE"
);
}
);
width = 730;
},
{
components = (
{
name = T;
transform = "{1, 0, 0, 1, 24, 0}";
}
);
layerId = "9E6B41AB-2970-4C41-8B35-4DBE0D296A43";
paths = (
{
closed = 1;
nodes = (
"610 245 LINE",
"610 385 LINE",
"110 385 LINE",
"110 245 LINE"
);
}
);
width = 716;
}
);
leftKerningGroup = W;
leftMetricsKey = "=T*2";
rightKerningGroup = W;
rightMetricsKey = "=|";
unicode = 0166;
},
{
glyphname = U;
lastChange = "2025-01-21 12:56:24 +0000";
layers = (
{
anchors = (
{
name = bottom;
position = "{369, 0}";
},
{
name = ogonek;
position = "{427, 0}";
},
{
name = top;
position = "{369, 730}";
},
{
name = top_ring;
position = "{369, 700}";
},
{
name = topright;
position = "{619, 690}";
}
);
layerId = "D65C9A1E-0FCA-4B2D-8EDF-9F36CA9182A1";
paths = (
{
closed = 1;
nodes = (
"545 -10 OFFCURVE",
"639 77 OFFCURVE",
"639 240 CURVE SMOOTH",
"639 730 LINE",
"619 730 LINE",
"619 240 LINE SMOOTH",
"619 88 OFFCURVE",
"534 10 OFFCURVE",
"369 10 CURVE SMOOTH",
"204 10 OFFCURVE",
"119 88 OFFCURVE",
"119 240 CURVE SMOOTH",
"119 730 LINE",
"99 730 LINE",
"99 240 LINE SMOOTH",
"99 77 OFFCURVE",
"193 -10 OFFCURVE",
"369 -10 CURVE SMOOTH"
);
}
);
width = 738;
},
{
anchors = (
{
name = bottom;
position = "{367, 0}";
},
{
name = ogonek;
position = "{447, 0}";
},
{
name = top;
position = "{367, 730}";
},
{
name = top_ring;
position = "{367, 710}";
},
{
name = topright;
position = "{602, 690}";
}
);
layerId = "9527F797-22C1-480E-A1FE-2CDBEBE1FD4C";
paths = (
{
closed = 1;
nodes = (
"557 -10 OFFCURVE",
"657 80 OFFCURVE",
"657 250 CURVE SMOOTH",
"657 730 LINE",
"547 730 LINE",
"547 270 LINE SMOOTH",
"547 145 OFFCURVE",
"492 90 OFFCURVE",
"367 90 CURVE SMOOTH",
"242 90 OFFCURVE",
"187 145 OFFCURVE",
"187 270 CURVE SMOOTH",
"187 730 LINE",
"77 730 LINE",
"77 250 LINE SMOOTH",
"77 80 OFFCURVE",
"177 -10 OFFCURVE",
"367 -10 CURVE SMOOTH"
);
}
);
width = 734;
},
{
anchors = (
{
name = bottom;
position = "{364, 0}";
},
{
name = ogonek;
position = "{494, 10}";
},
{
name = top;
position = "{364, 730}";
},
{
name = top_ring;
position = "{364, 720}";
},
{
name = topright;
position = "{594, 690}";
}
);
layerId = "9E6B41AB-2970-4C41-8B35-4DBE0D296A43";
paths = (
{
closed = 1;
nodes = (
"569 -10 OFFCURVE",
"674 82 OFFCURVE",
"674 260 CURVE SMOOTH",
"674 730 LINE",
"474 730 LINE",
"474 300 LINE SMOOTH",
"474 193 OFFCURVE",
"448 160 OFFCURVE",
"364 160 CURVE SMOOTH",
"280 160 OFFCURVE",
"254 193 OFFCURVE",
"254 300 CURVE SMOOTH",
"254 730 LINE",
"54 730 LINE",
"54 260 LINE SMOOTH",
"54 82 OFFCURVE",
"159 -10 OFFCURVE",
"364 -10 CURVE SMOOTH"
);
}
);
width = 728;
}
);
leftKerningGroup = U;
leftMetricsKey = "=H*.9";
rightKerningGroup = U;
rightMetricsKey = "=|";
unicode = 0055;
},
{
glyphname = Uogonek;
lastChange = "2025-01-21 12:56:24 +0000";
layers = (
{
components = (
{
name = U;
}
);
layerId = "D65C9A1E-0FCA-4B2D-8EDF-9F36CA9182A1";
paths = (
{
closed = 1;
nodes = (
"410 -220 OFFCURVE",
"432 -214 OFFCURVE",
"450 -203 CURVE",
"442 -185 LINE",
"423 -195 OFFCURVE",
"404 -200 OFFCURVE",
"386 -200 CURVE SMOOTH",
"338 -200 OFFCURVE",
"313 -178 OFFCURVE",
"313 -135 CURVE SMOOTH",
"313 -90 OFFCURVE",
"349 -23 OFFCURVE",
"475 3 CURVE",
"471.128 21.392 LINE",
"334.421 -8.01 OFFCURVE",
"293 -80.381 OFFCURVE",
"293 -135 CURVE SMOOTH",
"293 -191 OFFCURVE",
"325 -220 OFFCURVE",
"386 -220 CURVE SMOOTH"
);
}
);
width = 738;
},
{
components = (
{
name = U;
}
);
layerId = "9527F797-22C1-480E-A1FE-2CDBEBE1FD4C";
paths = (
{
closed = 1;
nodes = (
"408 -217 OFFCURVE",
"434 -213 OFFCURVE",
"457 -205 CURVE",
"440 -120 LINE",
"427 -127 OFFCURVE",
"413 -130 OFFCURVE",
"398 -130 CURVE SMOOTH",
"373 -130 OFFCURVE",
"360 -117 OFFCURVE",
"360 -93 CURVE SMOOTH",
"360 -67 OFFCURVE",
"395 -19 OFFCURVE",
"455 -2 CURVE",
"348.434 25.767 LINE",
"288.517 -9.633 OFFCURVE",
"258 -61.707 OFFCURVE",
"258 -107 CURVE SMOOTH",
"258 -177 OFFCURVE",
"302 -217 OFFCURVE",
"379 -217 CURVE SMOOTH"
);
}
);
width = 734;
},
{
components = (
{
name = U;
}
);
layerId = "9E6B41AB-2970-4C41-8B35-4DBE0D296A43";
paths = (
{
closed = 1;
nodes = (
"448 -220 OFFCURVE",
"472 -217 OFFCURVE",
"495 -210 CURVE",
"480 -75 LINE",
"465 -81 OFFCURVE",
"446 -85 OFFCURVE",
"432 -85 CURVE SMOOTH",
"404 -85 OFFCURVE",
"391 -75 OFFCURVE",
"391 -53 CURVE SMOOTH",
"391 -32 OFFCURVE",
"407 -17 OFFCURVE",
"443 -4 CURVE",
"306.357 46.129 LINE",
"242.847 0.673 OFFCURVE",
"215 -36.13 OFFCURVE",
"215 -82 CURVE SMOOTH",
"215 -170 OFFCURVE",
"288 -220 OFFCURVE",
"420 -220 CURVE SMOOTH"
);
}
);
width = 728;
},
{
associatedMasterId = "D65C9A1E-0FCA-4B2D-8EDF-9F36CA9182A1";
components = (
{
name = U;
}
);
layerId = "7C3AF804-DBBF-4002-9B4B-165BA94CEFBD";
name = "Apr 30 21, 10:18";
paths = (
{
closed = 1;
nodes = (
"410 -220 OFFCURVE",
"432 -214 OFFCURVE",
"450 -203 CURVE",
"442 -185 LINE",
"423 -195 OFFCURVE",
"404 -200 OFFCURVE",
"386 -200 CURVE SMOOTH",
"338 -200 OFFCURVE",
"313 -178 OFFCURVE",
"313 -135 CURVE SMOOTH",
"313 -90 OFFCURVE",
"349 -23 OFFCURVE",
"475 3 CURVE",
"489 14 LINE",
"474 22 LINE",
"335 -7 OFFCURVE",
"293 -80 OFFCURVE",
"293 -135 CURVE SMOOTH",
"293 -191 OFFCURVE",
"325 -220 OFFCURVE",
"386 -220 CURVE SMOOTH"
);
}
);
width = 738;
}
);
leftKerningGroup = U;
rightKerningGroup = U;
unicode = 0172;
},
{
glyphname = V;
lastChange = "2025-01-21 12:56:24 +0000";
layers = (
{
layerId = "D65C9A1E-0FCA-4B2D-8EDF-9F36CA9182A1";
paths = (
{
closed = 1;
nodes = (
"357 0 LINE",
"662 730 LINE",
"640 730 LINE",
"343 18 LINE",
"341 18 LINE",
"44 730 LINE",
"22 730 LINE",
"327 0 LINE"
);
}
);
width = 684;
},
{
layerId = "9527F797-22C1-480E-A1FE-2CDBEBE1FD4C";
paths = (
{
closed = 1;
nodes = (
"420 0 LINE",
"683 730 LINE",
"562 730 LINE",
"349 110 LINE",
"347 110 LINE",
"134 730 LINE",
"13 730 LINE",
"276 0 LINE"
);
}
);
width = 696;
},
{
layerId = "9E6B41AB-2970-4C41-8B35-4DBE0D296A43";
paths = (
{
closed = 1;
nodes = (
"486 0 LINE",
"706 730 LINE",
"486 730 LINE",
"357 200 LINE",
"355 200 LINE",
"226 730 LINE",
"6 730 LINE",
"226 0 LINE"
);
}
);
width = 712;
}
);
leftKerningGroup = V;
leftMetricsKey = "=A";
rightKerningGroup = V;
rightMetricsKey = "=|";
unicode = 0056;
},
{
glyphname = W;
lastChange = "2025-01-21 12:56:24 +0000";
layers = (
{
anchors = (
{
name = bottom;
position = "{450, 0}";
},
{
name = top;
position = "{450, 730}";
}
);
layerId = "D65C9A1E-0FCA-4B2D-8EDF-9F36CA9182A1";
leftMetricsKey = "=V*1.6";
paths = (
{
closed = 1;
nodes = (
"256 0 LINE",
"449 650 LINE",
"451 650 LINE",
"644 0 LINE",
"676 0 LINE",
"865 730 LINE",
"844 730 LINE",
"661 20 LINE",
"659 20 LINE",
"466 670 LINE",
"434 670 LINE",
"241 20 LINE",
"239 20 LINE",
"56 730 LINE",
"35 730 LINE",
"224 0 LINE"
);
}
);
width = 900;
},
{
anchors = (
{
name = bottom;
position = "{468, 0}";
},
{
name = top;
position = "{468, 730}";
}
);
layerId = "9527F797-22C1-480E-A1FE-2CDBEBE1FD4C";
leftMetricsKey = "=V*2.3";
paths = (
{
closed = 1;
nodes = (
"336 0 LINE",
"467 515 LINE",
"469 515 LINE",
"600 0 LINE",
"736 0 LINE",
"906 730 LINE",
"793 730 LINE",
"667 155 LINE",
"665 155 LINE",
"536 670 LINE",
"400 670 LINE",
"271 155 LINE",
"269 155 LINE",
"143 730 LINE",
"30 730 LINE",
"200 0 LINE"
);
}
);
width = 936;
},
{
anchors = (
{
name = bottom;
position = "{484, 0}";
},
{
name = top;
position = "{484, 730}";
}
);
layerId = "9E6B41AB-2970-4C41-8B35-4DBE0D296A43";
leftMetricsKey = "=V*4";
paths = (
{
closed = 1;
nodes = (
"414 0 LINE",
"483 460 LINE",
"485 460 LINE",
"554 0 LINE",
"794 0 LINE",
"944 730 LINE",
"739 730 LINE",
"670 210 LINE",
"668 210 LINE",
"604 670 LINE",
"364 670 LINE",
"300 210 LINE",
"298 210 LINE",
"229 730 LINE",
"24 730 LINE",
"174 0 LINE"
);
}
);
width = 968;
}
);
leftKerningGroup = W;
leftMetricsKey = "=V*3";
rightKerningGroup = W;
rightMetricsKey = "=|";
unicode = 0057;
},
{
glyphname = X;
lastChange = "2025-01-21 12:56:24 +0000";
layers = (
{
layerId = "D65C9A1E-0FCA-4B2D-8EDF-9F36CA9182A1";
paths = (
{
closed = 1;
nodes = (
"98 0 LINE",
"362 351 LINE",
"364 351 LINE",
"628 0 LINE",
"653 0 LINE",
"375 369 LINE",
"647 730 LINE",
"622 730 LINE",
"364 387 LINE",
"362 387 LINE",
"104 730 LINE",
"79 730 LINE",
"351 369 LINE",
"73 0 LINE"
);
}
);
width = 726;
},
{
layerId = "9527F797-22C1-480E-A1FE-2CDBEBE1FD4C";
paths = (
{
closed = 1;
nodes = (
"171 0 LINE",
"355 304 LINE",
"357 304 LINE",
"541 0 LINE",
"666 0 LINE",
"437 367 LINE",
"663 730 LINE",
"538 730 LINE",
"357 431 LINE",
"355 431 LINE",
"174 730 LINE",
"49 730 LINE",
"275 367 LINE",
"46 0 LINE"
);
}
);
width = 712;
},
{
layerId = "9E6B41AB-2970-4C41-8B35-4DBE0D296A43";
paths = (
{
closed = 1;
nodes = (
"251 0 LINE",
"355 255 LINE",
"357 255 LINE",
"461 0 LINE",
"686 0 LINE",
"506 365 LINE",
"686 730 LINE",
"461 730 LINE",
"357 475 LINE",
"355 475 LINE",
"251 730 LINE",
"26 730 LINE",
"206 365 LINE",
"26 0 LINE"
);
}
);
width = 712;
}
);
leftKerningGroup = X;
leftMetricsKey = "=|K*2.2";
rightKerningGroup = X;
rightMetricsKey = "=|";
unicode = 0058;
},
{
glyphname = Y;
lastChange = "2025-01-21 12:56:24 +0000";
layers = (
{
anchors = (
{
name = bottom;
position = "{333, 0}";
},
{
name = top;
position = "{333, 730}";
},
{
name = topleft;
position = "{41, 730}";
}
);
layerId = "D65C9A1E-0FCA-4B2D-8EDF-9F36CA9182A1";
paths = (
{
closed = 1;
nodes = (
"343 0 LINE",
"343 297 LINE",
"653 730 LINE",
"628 730 LINE",
"334 318 LINE",
"332 318 LINE",
"38 730 LINE",
"13 730 LINE",
"323 297 LINE",
"323 0 LINE"
);
}
);
width = 666;
},
{
anchors = (
{
name = bottom;
position = "{343, 0}";
},
{
name = top;
position = "{343, 730}";
},
{
name = topleft;
position = "{30, 730}";
}
);
layerId = "9527F797-22C1-480E-A1FE-2CDBEBE1FD4C";
paths = (
{
closed = 1;
nodes = (
"400 0 LINE",
"400 274 LINE",
"678 730 LINE",
"552 730 LINE",
"344 373 LINE",
"342 373 LINE",
"134 730 LINE",
"8 730 LINE",
"286 274 LINE",
"286 0 LINE"
);
}
);
width = 686;
},
{
anchors = (
{
name = bottom;
position = "{354, 0}";
},
{
name = top;
position = "{354, 730}";
},
{
name = topleft;
position = "{20, 730}";
}
);
layerId = "9E6B41AB-2970-4C41-8B35-4DBE0D296A43";
paths = (
{
closed = 1;
nodes = (
"459 0 LINE",
"459 250 LINE",
"704 730 LINE",
"484 730 LINE",
"355 420 LINE",
"353 420 LINE",
"224 730 LINE",
"4 730 LINE",
"249 250 LINE",
"249 0 LINE"
);
}
);
width = 708;
}
);
leftKerningGroup = Y;
leftMetricsKey = "=V*.6";
rightKerningGroup = Y;
rightMetricsKey = "=|";
unicode = 0059;
},
{
glyphname = Z;
lastChange = "2025-01-21 12:56:24 +0000";
layers = (
{
anchors = (
{
name = bottom;
position = "{338, 0}";
},
{
name = center;
position = "{338, 365}";
},
{
name = top;
position = "{338, 730}";
}
);
layerId = "D65C9A1E-0FCA-4B2D-8EDF-9F36CA9182A1";
paths = (
{
closed = 1;
nodes = (
"588 0 LINE",
"588 20 LINE",
"113 20 LINE",
"113 22 LINE",
"588 710 LINE",
"588 730 LINE",
"88 730 LINE",
"88 710 LINE",
"563 710 LINE",
"563 708 LINE",
"88 20 LINE",
"88 0 LINE"
);
}
);
width = 676;
},
{
anchors = (
{
name = bottom;
position = "{328, 0}";
},
{
name = center;
position = "{328, 365}";
},
{
name = top;
position = "{328, 730}";
}
);
layerId = "9527F797-22C1-480E-A1FE-2CDBEBE1FD4C";
paths = (
{
closed = 1;
nodes = (
"588 0 LINE",
"588 100 LINE",
"203 100 LINE",
"203 102 LINE",
"588 630 LINE",
"588 730 LINE",
"68 730 LINE",
"68 630 LINE",
"453 630 LINE",
"453 628 LINE",
"68 100 LINE",
"68 0 LINE"
);
}
);
width = 656;
},
{
anchors = (
{
name = bottom;
position = "{318, 0}";
},
{
name = center;
position = "{318, 365}";
},
{
name = top;
position = "{318, 730}";
}
);
layerId = "9E6B41AB-2970-4C41-8B35-4DBE0D296A43";
paths = (
{
closed = 1;
nodes = (
"588 0 LINE",
"588 165 LINE",
"283 165 LINE",
"283 167 LINE",
"588 565 LINE",
"588 730 LINE",
"48 730 LINE",
"48 565 LINE",
"353 565 LINE",
"353 563 LINE",
"48 165 LINE",
"48 0 LINE"
);
}
);
width = 636;
}
);
leftKerningGroup = Z;
leftMetricsKey = "=H*.8";
rightKerningGroup = Z;
rightMetricsKey = "=|";
unicode = 005A;
},
{
glyphname = a;
lastChange = "2025-01-21 12:56:24 +0000";
layers = (
{
anchors = (
{
name = bottom;
position = "{250, 0}";
},
{
name = ogonek;
position = "{450, 0}";
},
{
name = top;
position = "{250, 520}";
}
);
layerId = "D65C9A1E-0FCA-4B2D-8EDF-9F36CA9182A1";
paths = (
{
closed = 1;
nodes = (
"308 -10 OFFCURVE",
"392 35 OFFCURVE",
"429 104 CURVE",
"430 104 LINE",
"430 0 LINE",
"450 0 LINE",
"450 325 LINE SMOOTH",
"450 477 OFFCURVE",
"403 530 OFFCURVE",
"267 530 CURVE SMOOTH",
"194.161 530 OFFCURVE",
"124.908 514.218 OFFCURVE",
"61.065 483.87 CURVE",
"70.173 465.655 LINE",
"131.952 495.218 OFFCURVE",
"197.364 510 OFFCURVE",
"267 510 CURVE SMOOTH",
"391 510 OFFCURVE",
"430 466 OFFCURVE",
"430 325 CURVE",
"334 325 LINE SMOOTH",
"143 325 OFFCURVE",
"40 262 OFFCURVE",
"40 145 CURVE SMOOTH",
"40 50 OFFCURVE",
"108 -10 OFFCURVE",
"216 -10 CURVE SMOOTH"
);
},
{
closed = 1;
nodes = (
"118 10 OFFCURVE",
"60 62 OFFCURVE",
"60 145 CURVE SMOOTH",
"60 249 OFFCURVE",
"154 305 OFFCURVE",
"334 305 CURVE SMOOTH",
"430 305 LINE",
"430 190 LINE SMOOTH",
"430 89 OFFCURVE",
"336 10 OFFCURVE",
"216 10 CURVE SMOOTH"
);
}
);
width = 529;
},
{
anchors = (
{
name = bottom;
position = "{266, 0}";
},
{
name = ogonek;
position = "{491, 0}";
},
{
name = top;
position = "{266, 520}";
}
);
layerId = "9527F797-22C1-480E-A1FE-2CDBEBE1FD4C";
paths = (
{
closed = 1;
nodes = (
"271 -10 OFFCURVE",
"349 19 OFFCURVE",
"385 60 CURVE",
"387 60 LINE",
"388 0 LINE",
"491 0 LINE",
"491 328 LINE SMOOTH",
"491 478 OFFCURVE",
"438 530 OFFCURVE",
"285 530 CURVE SMOOTH",
"203.66 530 OFFCURVE",
"120.166 514.924 OFFCURVE",
"53.375 489.03 CURVE",
"67.595 400.391 LINE",
"130.765 426.226 OFFCURVE",
"202.949 440 OFFCURVE",
"271 440 CURVE SMOOTH",
"357 440 OFFCURVE",
"383 417 OFFCURVE",
"383 338 CURVE",
"308 338 LINE SMOOTH",
"131 338 OFFCURVE",
"31 269 OFFCURVE",
"31 148 CURVE SMOOTH",
"31 51 OFFCURVE",
"95 -10 OFFCURVE",
"199 -10 CURVE SMOOTH"
);
},
{
closed = 1;
nodes = (
"174 78 OFFCURVE",
"139 108 OFFCURVE",
"139 158 CURVE SMOOTH",
"139 223 OFFCURVE",
"200 256 OFFCURVE",
"323 256 CURVE SMOOTH",
"383 256 LINE",
"383 188 LINE SMOOTH",
"383 127 OFFCURVE",
"318 78 OFFCURVE",
"237 78 CURVE SMOOTH"
);
}
);
width = 553;
},
{
anchors = (
{
name = bottom;
position = "{283, 0}";
},
{
name = ogonek;
position = "{532, 0}";
},
{
name = top;
position = "{283, 520}";
}
);
layerId = "9E6B41AB-2970-4C41-8B35-4DBE0D296A43";
paths = (
{
closed = 1;
nodes = (
"244 -10 OFFCURVE",
"303 16 OFFCURVE",
"342 60 CURVE",
"344 60 LINE",
"346 0 LINE",
"532 0 LINE",
"532 330 LINE SMOOTH",
"532 476 OFFCURVE",
"470 530 OFFCURVE",
"303 530 CURVE SMOOTH",
"210.806 530 OFFCURVE",
"114.756 516.503 OFFCURVE",
"41.643 492.601 CURVE",
"61.866 352.795 LINE",
"127.918 375.773 OFFCURVE",
"210.555 390 OFFCURVE",
"276 390 CURVE SMOOTH",
"326 390 OFFCURVE",
"336 380 OFFCURVE",
"336 330 CURVE",
"282 330 LINE SMOOTH",
"116 330 OFFCURVE",
"22 265 OFFCURVE",
"22 150 CURVE SMOOTH",
"22 53 OFFCURVE",
"85 -10 OFFCURVE",
"182 -10 CURVE SMOOTH"
);
},
{
closed = 1;
nodes = (
"219 125 OFFCURVE",
"198 141 OFFCURVE",
"198 170 CURVE SMOOTH",
"198 208 OFFCURVE",
"233 225 OFFCURVE",
"312 225 CURVE SMOOTH",
"336 225 LINE",
"336 185 LINE SMOOTH",
"336 148 OFFCURVE",
"305 125 OFFCURVE",
"258 125 CURVE SMOOTH"
);
}
);
width = 575;
},
{
anchors = (
{
name = bottom;
position = "{255, 0}";
},
{
name = ogonek;
position = "{464, 0}";
},
{
name = top;
position = "{255, 520}";
}
);
associatedMasterId = "D65C9A1E-0FCA-4B2D-8EDF-9F36CA9182A1";
layerId = "37E9DD48-F59F-412B-917A-B9493104890B";
name = "{232}";
paths = (
{
closed = 1;
nodes = (
"295 -10 OFFCURVE",
"379 28 OFFCURVE",
"414 82 CURVE",
"416 82 LINE",
"416 0 LINE",
"464 0 LINE",
"464 326 LINE SMOOTH",
"464 477 OFFCURVE",
"415 530 OFFCURVE",
"273 530 CURVE SMOOTH",
"197.2 530 OFFCURVE",
"122.851 514.042 OFFCURVE",
"57.365 485.215 CURVE",
"70.635 445.714 LINE",
"132.279 472.471 OFFCURVE",
"199.793 487 OFFCURVE",
"268 487 CURVE SMOOTH",
"380 487 OFFCURVE",
"414 450 OFFCURVE",
"414 329 CURVE",
"325 329 LINE SMOOTH",
"139 329 OFFCURVE",
"37 264 OFFCURVE",
"37 146 CURVE SMOOTH",
"37 50 OFFCURVE",
"104 -10 OFFCURVE",
"210 -10 CURVE SMOOTH"
);
},
{
closed = 1;
nodes = (
"136 32 OFFCURVE",
"86 77 OFFCURVE",
"86 149 CURVE SMOOTH",
"86 240 OFFCURVE",
"169 289 OFFCURVE",
"330 289 CURVE SMOOTH",
"414 289 LINE",
"414 189 LINE SMOOTH",
"414 102 OFFCURVE",
"330 32 OFFCURVE",
"223 32 CURVE SMOOTH"
);
}
);
width = 538;
}
);
leftKerningGroup = a;
leftMetricsKey = "=h*.4";
rightKerningGroup = h;
rightMetricsKey = "=h";
unicode = 0061;
},
{
glyphname = ae;
lastChange = "2025-01-21 12:56:24 +0000";
layers = (
{
anchors = (
{
name = bottom;
position = "{464, 0}";
},
{
name = top;
position = "{464, 520}";
}
);
layerId = "D65C9A1E-0FCA-4B2D-8EDF-9F36CA9182A1";
paths = (
{
closed = 1;
nodes = (
"118 10 OFFCURVE",
"60 62 OFFCURVE",
"60 145 CURVE SMOOTH",
"60 249 OFFCURVE",
"154 305 OFFCURVE",
"334 305 CURVE SMOOTH",
"430 305 LINE",
"430 190 LINE SMOOTH",
"430 89 OFFCURVE",
"336 10 OFFCURVE",
"216 10 CURVE SMOOTH"
);
},
{
closed = 1;
nodes = (
"347 -10 OFFCURVE",
"450 78 OFFCURVE",
"450 190 CURVE SMOOTH",
"450 325 LINE SMOOTH",
"450 477 OFFCURVE",
"403 530 OFFCURVE",
"267 530 CURVE SMOOTH",
"202 530 OFFCURVE",
"140 516 OFFCURVE",
"83 490 CURVE",
"92 472 LINE",
"147 497 OFFCURVE",
"205 510 OFFCURVE",
"267 510 CURVE SMOOTH",
"391 510 OFFCURVE",
"430 466 OFFCURVE",
"430 325 CURVE",
"334 325 LINE SMOOTH",
"143 325 OFFCURVE",
"40 262 OFFCURVE",
"40 145 CURVE SMOOTH",
"40 50 OFFCURVE",
"108 -10 OFFCURVE",
"216 -10 CURVE SMOOTH"
);
},
{
closed = 1;
nodes = (
"744 -13 OFFCURVE",
"808 1 OFFCURVE",
"860 27 CURVE",
"851 45 LINE",
"802 21 OFFCURVE",
"742 7 OFFCURVE",
"682 7 CURVE SMOOTH",
"532 7 OFFCURVE",
"450 94 OFFCURVE",
"450 257 CURVE",
"450 257 LINE",
"450 415 OFFCURVE",
"530 507 OFFCURVE",
"665 507 CURVE SMOOTH",
"793 507 OFFCURVE",
"860 425 OFFCURVE",
"860 265 CURVE",
"870 275 LINE",
"440 275 LINE",
"440 255 LINE",
"880 255 LINE",
"880 260 OFFCURVE",
"880 260 OFFCURVE",
"880 265 CURVE SMOOTH",
"880 435 OFFCURVE",
"805 527 OFFCURVE",
"665 527 CURVE SMOOTH",
"518 527 OFFCURVE",
"430 425 OFFCURVE",
"430 257 CURVE SMOOTH",
"430 84 OFFCURVE",
"520 -13 OFFCURVE",
"682 -13 CURVE SMOOTH"
);
}
);
width = 928;
},
{
anchors = (
{
name = bottom;
position = "{456, 0}";
},
{
name = top;
position = "{456, 520}";
}
);
layerId = "9527F797-22C1-480E-A1FE-2CDBEBE1FD4C";
paths = (
{
closed = 1;
nodes = (
"174 78 OFFCURVE",
"139 108 OFFCURVE",
"139 158 CURVE SMOOTH",
"139 223 OFFCURVE",
"200 256 OFFCURVE",
"323 256 CURVE SMOOTH",
"383 256 LINE",
"383 188 LINE SMOOTH",
"383 127 OFFCURVE",
"318 78 OFFCURVE",
"237 78 CURVE SMOOTH"
);
},
{
closed = 1;
nodes = (
"380 -10 OFFCURVE",
"489 95 OFFCURVE",
"489 250 CURVE SMOOTH",
"489 328 LINE SMOOTH",
"489 478 OFFCURVE",
"437 530 OFFCURVE",
"285 530 CURVE SMOOTH",
"211 530 OFFCURVE",
"135 518 OFFCURVE",
"75 496 CURVE",
"89 407 LINE",
"145 428 OFFCURVE",
"210 440 OFFCURVE",
"271 440 CURVE SMOOTH",
"357 440 OFFCURVE",
"383 417 OFFCURVE",
"383 338 CURVE",
"308 338 LINE SMOOTH",
"131 338 OFFCURVE",
"31 269 OFFCURVE",
"31 148 CURVE SMOOTH",
"31 48 OFFCURVE",
"100 -10 OFFCURVE",
"219 -10 CURVE SMOOTH"
);
},
{
closed = 1;
nodes = (
"729 -10 OFFCURVE",
"797 3 OFFCURVE",
"848 24 CURVE",
"834 111 LINE",
"785 92 OFFCURVE",
"716 80 OFFCURVE",
"660 80 CURVE SMOOTH",
"545 80 OFFCURVE",
"489 132 OFFCURVE",
"489 240 CURVE",
"489 270 LINE",
"489 382 OFFCURVE",
"540 442 OFFCURVE",
"636 442 CURVE SMOOTH",
"727 442 OFFCURVE",
"772 387 OFFCURVE",
"772 274 CURVE",
"789 300 LINE",
"443 300 LINE",
"443 215 LINE",
"871 215 LINE",
"872 227 OFFCURVE",
"873 251 OFFCURVE",
"873 269 CURVE SMOOTH",
"873 436 OFFCURVE",
"788 530 OFFCURVE",
"636 530 CURVE SMOOTH",
"478 530 OFFCURVE",
"383 428 OFFCURVE",
"383 260 CURVE SMOOTH",
"383 87 OFFCURVE",
"484 -10 OFFCURVE",
"664 -10 CURVE SMOOTH"
);
}
);
width = 910;
},
{
anchors = (
{
name = bottom;
position = "{444, 0}";
},
{
name = top;
position = "{444, 520}";
}
);
layerId = "9E6B41AB-2970-4C41-8B35-4DBE0D296A43";
paths = (
{
closed = 1;
nodes = (
"219 125 OFFCURVE",
"198 141 OFFCURVE",
"198 170 CURVE SMOOTH",
"198 208 OFFCURVE",
"233 225 OFFCURVE",
"312 225 CURVE SMOOTH",
"336 225 LINE",
"336 185 LINE SMOOTH",
"336 148 OFFCURVE",
"305 125 OFFCURVE",
"258 125 CURVE SMOOTH"
);
},
{
closed = 1;
nodes = (
"409 -10 OFFCURVE",
"527 114 OFFCURVE",
"527 310 CURVE SMOOTH",
"527 330 LINE SMOOTH",
"527 476 OFFCURVE",
"466 530 OFFCURVE",
"303 530 CURVE SMOOTH",
"220 530 OFFCURVE",
"133 520 OFFCURVE",
"67 501 CURVE",
"87 361 LINE",
"145 379 OFFCURVE",
"218 390 OFFCURVE",
"276 390 CURVE SMOOTH",
"326 390 OFFCURVE",
"336 380 OFFCURVE",
"336 330 CURVE",
"282 330 LINE SMOOTH",
"116 330 OFFCURVE",
"22 265 OFFCURVE",
"22 150 CURVE SMOOTH",
"22 49 OFFCURVE",
"96 -10 OFFCURVE",
"222 -10 CURVE SMOOTH"
);
},
{
closed = 1;
nodes = (
"714 -10 OFFCURVE",
"788 1 OFFCURVE",
"835 18 CURVE",
"815 158 LINE",
"768 142 OFFCURVE",
"694 130 OFFCURVE",
"637 130 CURVE SMOOTH",
"559 130 OFFCURVE",
"527 156 OFFCURVE",
"527 220 CURVE SMOOTH",
"527 280 LINE SMOOTH",
"527 367 OFFCURVE",
"551 405 OFFCURVE",
"605 405 CURVE SMOOTH",
"659 405 OFFCURVE",
"683 367 OFFCURVE",
"683 280 CURVE",
"706 315 LINE",
"445 315 LINE",
"445 200 LINE",
"861 200 LINE",
"863 211 OFFCURVE",
"865 246 OFFCURVE",
"865 270 CURVE SMOOTH",
"865 434 OFFCURVE",
"769 530 OFFCURVE",
"605 530 CURVE SMOOTH",
"437 530 OFFCURVE",
"335 428 OFFCURVE",
"335 260 CURVE SMOOTH",
"335 86 OFFCURVE",
"445 -10 OFFCURVE",
"645 -10 CURVE SMOOTH"
);
}
);
width = 891;
}
);
leftKerningGroup = a;
leftMetricsKey = "=a";
rightKerningGroup = o;
rightMetricsKey = "=e";
unicode = 00E6;
},
{
glyphname = b;
lastChange = "2025-01-21 12:56:24 +0000";
layers = (
{
layerId = "D65C9A1E-0FCA-4B2D-8EDF-9F36CA9182A1";
paths = (
{
closed = 1;
nodes = (
"458 -10 OFFCURVE",
"539 90 OFFCURVE",
"539 260 CURVE SMOOTH",
"539 430 OFFCURVE",
"458 530 OFFCURVE",
"320 530 CURVE SMOOTH",
"229 530 OFFCURVE",
"155 486 OFFCURVE",
"121 412 CURVE",
"119 412 LINE",
"119 730 LINE",
"99 730 LINE",
"99 0 LINE",
"119 0 LINE",
"119 108 LINE",
"121 108 LINE",
"155 34 OFFCURVE",
"229 -10 OFFCURVE",
"320 -10 CURVE SMOOTH"
);
},
{
closed = 1;
nodes = (
"202 10 OFFCURVE",
"119 88 OFFCURVE",
"119 200 CURVE SMOOTH",
"119 320 LINE SMOOTH",
"119 432 OFFCURVE",
"202 510 OFFCURVE",
"320 510 CURVE SMOOTH",
"446 510 OFFCURVE",
"519 420 OFFCURVE",
"519 260 CURVE SMOOTH",
"519 100 OFFCURVE",
"446 10 OFFCURVE",
"320 10 CURVE SMOOTH"
);
}
);
width = 589;
},
{
layerId = "9E6B41AB-2970-4C41-8B35-4DBE0D296A43";
paths = (
{
closed = 1;
nodes = (
"540 -10 OFFCURVE",
"614 85 OFFCURVE",
"614 260 CURVE SMOOTH",
"614 435 OFFCURVE",
"540 530 OFFCURVE",
"405 530 CURVE SMOOTH",
"343 530 OFFCURVE",
"300 510 OFFCURVE",
"252 460 CURVE",
"250 460 LINE",
"250 730 LINE",
"54 730 LINE",
"54 0 LINE",
"240 0 LINE",
"242 60 LINE",
"244 60 LINE",
"293 11 OFFCURVE",
"341 -10 OFFCURVE",
"405 -10 CURVE SMOOTH"
);
},
{
closed = 1;
nodes = (
"284 140 OFFCURVE",
"250 172 OFFCURVE",
"250 220 CURVE SMOOTH",
"250 300 LINE SMOOTH",
"250 348 OFFCURVE",
"284 380 OFFCURVE",
"334 380 CURVE SMOOTH",
"391 380 OFFCURVE",
"422 338 OFFCURVE",
"422 260 CURVE SMOOTH",
"422 182 OFFCURVE",
"391 140 OFFCURVE",
"334 140 CURVE SMOOTH"
);
}
);
width = 641;
},
{
associatedMasterId = "D65C9A1E-0FCA-4B2D-8EDF-9F36CA9182A1";
layerId = "4577C09C-2268-4FDD-969E-4BC558CAFA0A";
name = "{232}";
paths = (
{
closed = 1;
nodes = (
"470 -10 OFFCURVE",
"552 90 OFFCURVE",
"552 260 CURVE SMOOTH",
"552 430 OFFCURVE",
"470 530 OFFCURVE",
"332 530 CURVE SMOOTH",
"251 530 OFFCURVE",
"177 495 OFFCURVE",
"143 441 CURVE",
"141 441 LINE",
"141 730 LINE",
"92 730 LINE",
"92 0 LINE",
"139 0 LINE",
"139 79 LINE",
"141 79 LINE",
"176 25 OFFCURVE",
"251 -10 OFFCURVE",
"332 -10 CURVE SMOOTH"
);
},
{
closed = 1;
nodes = (
"217 33 OFFCURVE",
"141 104 OFFCURVE",
"141 204 CURVE SMOOTH",
"141 316 LINE SMOOTH",
"141 416 OFFCURVE",
"217 487 OFFCURVE",
"323 487 CURVE SMOOTH",
"437 487 OFFCURVE",
"503 405 OFFCURVE",
"503 260 CURVE SMOOTH",
"503 115 OFFCURVE",
"437 33 OFFCURVE",
"323 33 CURVE SMOOTH"
);
}
);
width = 598;
},
{
layerId = "9527F797-22C1-480E-A1FE-2CDBEBE1FD4C";
paths = (
{
closed = 1;
nodes = (
"494 -10 OFFCURVE",
"577 91 OFFCURVE",
"577 260 CURVE SMOOTH",
"577 429 OFFCURVE",
"494 530 OFFCURVE",
"355 530 CURVE SMOOTH",
"285 530 OFFCURVE",
"224 504 OFFCURVE",
"187 458 CURVE",
"185 458 LINE",
"185 730 LINE",
"77 730 LINE",
"77 0 LINE",
"180 0 LINE",
"181 62 LINE",
"183 62 LINE",
"221 16 OFFCURVE",
"284 -10 OFFCURVE",
"355 -10 CURVE SMOOTH"
);
},
{
closed = 1;
nodes = (
"247 80 OFFCURVE",
"185 136 OFFCURVE",
"185 211 CURVE SMOOTH",
"185 309 LINE SMOOTH",
"185 384 OFFCURVE",
"247 440 OFFCURVE",
"330 440 CURVE SMOOTH",
"420 440 OFFCURVE",
"471 375 OFFCURVE",
"471 260 CURVE SMOOTH",
"471 145 OFFCURVE",
"420 80 OFFCURVE",
"330 80 CURVE SMOOTH"
);
}
);
width = 616;
}
);
leftKerningGroup = b;
leftMetricsKey = "=h";
rightKerningGroup = o;
rightMetricsKey = "=o";
unicode = 0062;
},
{
glyphname = c;
lastChange = "2025-01-21 12:56:24 +0000";
layers = (
{
anchors = (
{
name = bottom;
position = "{295, 0}";
},
{
name = cedi;
position = "{232, 0}";
},
{
name = top;
position = "{302, 520}";
}
);
layerId = "9E6B41AB-2970-4C41-8B35-4DBE0D296A43";
paths = (
{
closed = 1;
nodes = (
"400 -10 OFFCURVE",
"453 2 OFFCURVE",
"507 30 CURVE",
"477 170 LINE",
"429 143 OFFCURVE",
"389 130 OFFCURVE",
"347 130 CURVE SMOOTH",
"269 130 OFFCURVE",
"227 175 OFFCURVE",
"227 260 CURVE SMOOTH",
"227 345 OFFCURVE",
"269 390 OFFCURVE",
"347 390 CURVE SMOOTH",
"389 390 OFFCURVE",
"429 377 OFFCURVE",
"477 350 CURVE",
"507 490 LINE",
"453 518 OFFCURVE",
"400 530 OFFCURVE",
"332 530 CURVE SMOOTH",
"137 530 OFFCURVE",
"27 433 OFFCURVE",
"27 260 CURVE SMOOTH",
"27 87 OFFCURVE",
"137 -10 OFFCURVE",
"332 -10 CURVE SMOOTH"
);
}
);
width = 550;
},
{
anchors = (
{
name = bottom;
position = "{287, 0}";
},
{
name = cedi;
position = "{240, 0}";
},
{
name = top;
position = "{292, 520}";
}
);
layerId = "9527F797-22C1-480E-A1FE-2CDBEBE1FD4C";
paths = (
{
closed = 1;
nodes = (
"379 -10 OFFCURVE",
"429 1 OFFCURVE",
"479 27 CURVE",
"460 114 LINE",
"414 90 OFFCURVE",
"371 80 OFFCURVE",
"327 80 CURVE SMOOTH",
"214 80 OFFCURVE",
"149 146 OFFCURVE",
"149 260 CURVE SMOOTH",
"149 374 OFFCURVE",
"214 440 OFFCURVE",
"327 440 CURVE SMOOTH",
"371 440 OFFCURVE",
"414 430 OFFCURVE",
"460 406 CURVE",
"479 493 LINE",
"429 519 OFFCURVE",
"379 530 OFFCURVE",
"320 530 CURVE SMOOTH",
"143 530 OFFCURVE",
"39 430 OFFCURVE",
"39 260 CURVE SMOOTH",
"39 90 OFFCURVE",
"143 -10 OFFCURVE",
"320 -10 CURVE SMOOTH"
);
}
);
width = 541;
},
{
anchors = (
{
name = bottom;
position = "{277, 0}";
},
{
name = cedi;
position = "{247, 0}";
},
{
name = top;
position = "{292, 520}";
}
);
layerId = "D65C9A1E-0FCA-4B2D-8EDF-9F36CA9182A1";
paths = (
{
closed = 1;
nodes = (
"357 -10 OFFCURVE",
"403 1 OFFCURVE",
"450 25 CURVE",
"441 43 LINE",
"397 20 OFFCURVE",
"354 10 OFFCURVE",
"306 10 CURVE SMOOTH",
"159 10 OFFCURVE",
"70 105 OFFCURVE",
"70 260 CURVE SMOOTH",
"70 415 OFFCURVE",
"159 510 OFFCURVE",
"306 510 CURVE SMOOTH",
"354 510 OFFCURVE",
"397 500 OFFCURVE",
"441 477 CURVE",
"450 495 LINE",
"403 519 OFFCURVE",
"357 530 OFFCURVE",
"306 530 CURVE SMOOTH",
"148 530 OFFCURVE",
"50 426 OFFCURVE",
"50 260 CURVE SMOOTH",
"50 94 OFFCURVE",
"148 -10 OFFCURVE",
"306 -10 CURVE SMOOTH"
);
}
);
width = 529;
}
);
leftKerningGroup = o;
leftMetricsKey = "=o";
rightKerningGroup = c;
rightMetricsKey = "=h";
unicode = 0063;
},
{
glyphname = dcroat;
lastChange = "2025-01-21 12:56:24 +0000";
layers = (
{
components = (
{
name = d;
}
);
layerId = "D65C9A1E-0FCA-4B2D-8EDF-9F36CA9182A1";
paths = (
{
closed = 1;
nodes = (
"587 605 LINE",
"587 625 LINE",
"167 625 LINE",
"167 605 LINE"
);
}
);
width = 622;
},
{
components = (
{
alignment = -1;
name = d;
}
);
layerId = "9527F797-22C1-480E-A1FE-2CDBEBE1FD4C";
paths = (
{
closed = 1;
nodes = (
"633 570 LINE",
"633 660 LINE",
"213 660 LINE",
"213 570 LINE"
);
}
);
width = 663;
},
{
components = (
{
name = d;
}
);
layerId = "9E6B41AB-2970-4C41-8B35-4DBE0D296A43";
paths = (
{
closed = 1;
nodes = (
"679 545 LINE",
"679 685 LINE",
"259 685 LINE",
"259 545 LINE"
);
}
);
width = 703;
}
);
leftKerningGroup = o;
leftMetricsKey = "=d";
rightKerningGroup = W;
rightMetricsKey = "=W";
unicode = 0111;
},
{
glyphname = eth;
lastChange = "2025-01-21 12:56:24 +0000";
layers = (
{
layerId = "D65C9A1E-0FCA-4B2D-8EDF-9F36CA9182A1";
rightMetricsKey = "=d*.3";
paths = (
{
closed = 1;
nodes = (
"430 -10 OFFCURVE",
"520 84 OFFCURVE",
"520 235 CURVE SMOOTH",
"520 445 OFFCURVE",
"341 735 OFFCURVE",
"177 790 CURVE",
"170 772 LINE",
"286 733 OFFCURVE",
"414 566 OFFCURVE",
"471 399 CURVE",
"469 398 LINE",
"428 451 OFFCURVE",
"365 480 OFFCURVE",
"285 480 CURVE SMOOTH",
"140 480 OFFCURVE",
"50 386 OFFCURVE",
"50 235 CURVE SMOOTH",
"50 84 OFFCURVE",
"140 -10 OFFCURVE",
"285 -10 CURVE SMOOTH"
);
},
{
closed = 1;
nodes = (
"151 10 OFFCURVE",
"70 95 OFFCURVE",
"70 235 CURVE SMOOTH",
"70 375 OFFCURVE",
"151 460 OFFCURVE",
"285 460 CURVE SMOOTH",
"419 460 OFFCURVE",
"500 375 OFFCURVE",
"500 235 CURVE SMOOTH",
"500 95 OFFCURVE",
"419 10 OFFCURVE",
"285 10 CURVE SMOOTH"
);
},
{
closed = 1;
nodes = (
"551 697 LINE",
"543 715 LINE",
"103 540 LINE",
"111 522 LINE"
);
}
);
width = 581;
},
{
layerId = "9527F797-22C1-480E-A1FE-2CDBEBE1FD4C";
rightMetricsKey = "=d*.5";
paths = (
{
closed = 1;
nodes = (
"458 -10 OFFCURVE",
"549 88 OFFCURVE",
"549 263 CURVE SMOOTH",
"549 544 OFFCURVE",
"384 758 OFFCURVE",
"144 790 CURVE",
"124 700 LINE",
"262 681 OFFCURVE",
"375 579 OFFCURVE",
"418 435 CURVE",
"416 434 LINE",
"383 465 OFFCURVE",
"338 480 OFFCURVE",
"279 480 CURVE SMOOTH",
"130 480 OFFCURVE",
"39 391 OFFCURVE",
"39 243 CURVE SMOOTH",
"39 84 OFFCURVE",
"134 -10 OFFCURVE",
"294 -10 CURVE SMOOTH"
);
},
{
closed = 1;
nodes = (
"201 80 OFFCURVE",
"147 140 OFFCURVE",
"147 243 CURVE SMOOTH",
"147 341 OFFCURVE",
"196 390 OFFCURVE",
"294 390 CURVE SMOOTH",
"392 390 OFFCURVE",
"441 341 OFFCURVE",
"441 243 CURVE SMOOTH",
"441 140 OFFCURVE",
"387 80 OFFCURVE",
"294 80 CURVE SMOOTH"
);
},
{
closed = 1;
nodes = (
"559 665 LINE",
"523 749 LINE",
"83 574 LINE",
"119 490 LINE"
);
}
);
width = 598;
},
{
layerId = "9E6B41AB-2970-4C41-8B35-4DBE0D296A43";
rightMetricsKey = "=d*.7";
paths = (
{
closed = 1;
nodes = (
"488 -10 OFFCURVE",
"577 84 OFFCURVE",
"577 280 CURVE SMOOTH",
"577 601 OFFCURVE",
"419 776 OFFCURVE",
"117 790 CURVE",
"77 660 LINE",
"241 652 OFFCURVE",
"358 575 OFFCURVE",
"364 471 CURVE",
"362 470 LINE",
"338 476 OFFCURVE",
"306 480 OFFCURVE",
"272 480 CURVE SMOOTH",
"116 480 OFFCURVE",
"27 397 OFFCURVE",
"27 250 CURVE SMOOTH",
"27 89 OFFCURVE",
"131 -10 OFFCURVE",
"302 -10 CURVE SMOOTH"
);
},
{
closed = 1;
nodes = (
"246 125 OFFCURVE",
"221 163 OFFCURVE",
"221 250 CURVE SMOOTH",
"221 337 OFFCURVE",
"246 375 OFFCURVE",
"302 375 CURVE SMOOTH",
"358 375 OFFCURVE",
"383 337 OFFCURVE",
"383 250 CURVE SMOOTH",
"383 163 OFFCURVE",
"358 125 OFFCURVE",
"302 125 CURVE SMOOTH"
);
},
{
closed = 1;
nodes = (
"562 643 LINE",
"507 773 LINE",
"67 598 LINE",
"122 468 LINE"
);
}
);
width = 615;
},
{
associatedMasterId = "D65C9A1E-0FCA-4B2D-8EDF-9F36CA9182A1";
layerId = "7EB7DD1D-0E67-4B53-AED1-36A39ED50BF4";
rightMetricsKey = "=d*.3";
name = "{232}";
paths = (
{
closed = 1;
nodes = (
"439 -10 OFFCURVE",
"529 85 OFFCURVE",
"529 244 CURVE SMOOTH",
"529 478 OFFCURVE",
"355 743 OFFCURVE",
"165 790 CURVE",
"150 749 LINE",
"272 720 OFFCURVE",
"395 578 OFFCURVE",
"450 423 CURVE",
"448 422 LINE",
"409 459 OFFCURVE",
"353 480 OFFCURVE",
"282 480 CURVE SMOOTH",
"136 480 OFFCURVE",
"46 388 OFFCURVE",
"46 238 CURVE SMOOTH",
"46 84 OFFCURVE",
"137 -10 OFFCURVE",
"287 -10 CURVE SMOOTH"
);
},
{
closed = 1;
nodes = (
"167 33 OFFCURVE",
"95 110 OFFCURVE",
"95 238 CURVE SMOOTH",
"95 364 OFFCURVE",
"165 437 OFFCURVE",
"287 437 CURVE SMOOTH",
"409 437 OFFCURVE",
"480 364 OFFCURVE",
"480 238 CURVE SMOOTH",
"480 110 OFFCURVE",
"408 33 OFFCURVE",
"287 33 CURVE SMOOTH"
);
},
{
closed = 1;
nodes = (
"553 686 LINE",
"536 726 LINE",
"96 551 LINE",
"113 511 LINE"
);
}
);
width = 581;
}
);
leftKerningGroup = o;
leftMetricsKey = "=o";
rightKerningGroup = o;
rightMetricsKey = "=d*.6";
unicode = 00F0;
},
{
glyphname = e;
lastChange = "2025-01-21 12:56:24 +0000";
layers = (
{
anchors = (
{
name = bottom;
position = "{287, 0}";
},
{
name = ogonek;
position = "{504, 24}";
},
{
name = top;
position = "{287, 520}";
}
);
layerId = "9527F797-22C1-480E-A1FE-2CDBEBE1FD4C";
paths = (
{
closed = 1;
nodes = (
"385 -10 OFFCURVE",
"453 3 OFFCURVE",
"504 24 CURVE",
"490 111 LINE",
"441 92 OFFCURVE",
"372 80 OFFCURVE",
"316 80 CURVE SMOOTH",
"201 80 OFFCURVE",
"145 132 OFFCURVE",
"145 240 CURVE",
"145 270 LINE",
"145 382 OFFCURVE",
"196 442 OFFCURVE",
"292 442 CURVE SMOOTH",
"383 442 OFFCURVE",
"428 387 OFFCURVE",
"428 274 CURVE",
"445 300 LINE",
"99 300 LINE",
"99 215 LINE",
"527 215 LINE",
"528 227 OFFCURVE",
"529 251 OFFCURVE",
"529 269 CURVE SMOOTH",
"529 436 OFFCURVE",
"444 530 OFFCURVE",
"292 530 CURVE SMOOTH",
"134 530 OFFCURVE",
"39 428 OFFCURVE",
"39 260 CURVE SMOOTH",
"39 87 OFFCURVE",
"140 -10 OFFCURVE",
"320 -10 CURVE SMOOTH"
);
}
);
width = 566;
},
{
anchors = (
{
name = bottom;
position = "{297, 0}";
},
{
name = ogonek;
position = "{527, 18}";
},
{
name = top;
position = "{297, 520}";
}
);
layerId = "9E6B41AB-2970-4C41-8B35-4DBE0D296A43";
paths = (
{
closed = 1;
nodes = (
"406 -10 OFFCURVE",
"480 1 OFFCURVE",
"527 18 CURVE",
"507 158 LINE",
"460 142 OFFCURVE",
"386 130 OFFCURVE",
"329 130 CURVE SMOOTH",
"251 130 OFFCURVE",
"219 156 OFFCURVE",
"219 220 CURVE SMOOTH",
"219 280 LINE SMOOTH",
"219 367 OFFCURVE",
"243 405 OFFCURVE",
"297 405 CURVE SMOOTH",
"351 405 OFFCURVE",
"375 367 OFFCURVE",
"375 280 CURVE",
"398 315 LINE",
"137 315 LINE",
"137 200 LINE",
"553 200 LINE",
"555 211 OFFCURVE",
"557 246 OFFCURVE",
"557 270 CURVE SMOOTH",
"557 434 OFFCURVE",
"461 530 OFFCURVE",
"297 530 CURVE SMOOTH",
"129 530 OFFCURVE",
"27 428 OFFCURVE",
"27 260 CURVE SMOOTH",
"27 86 OFFCURVE",
"137 -10 OFFCURVE",
"337 -10 CURVE SMOOTH"
);
}
);
width = 583;
},
{
anchors = (
{
name = bottom;
position = "{276, 0}";
},
{
name = ogonek;
position = "{480, 30}";
},
{
name = top;
position = "{276, 520}";
}
);
layerId = "D65C9A1E-0FCA-4B2D-8EDF-9F36CA9182A1";
paths = (
{
closed = 1;
nodes = (
"364 -10 OFFCURVE",
"428 4 OFFCURVE",
"480 30 CURVE",
"471 48 LINE",
"422 24 OFFCURVE",
"362 10 OFFCURVE",
"302 10 CURVE SMOOTH",
"152 10 OFFCURVE",
"70 97 OFFCURVE",
"70 260 CURVE",
"70 260 LINE",
"70 418 OFFCURVE",
"150 510 OFFCURVE",
"285 510 CURVE SMOOTH",
"413 510 OFFCURVE",
"480 428 OFFCURVE",
"480 268 CURVE",
"490 278 LINE",
"60 278 LINE",
"60 258 LINE",
"500 258 LINE",
"500 263 OFFCURVE",
"500 263 OFFCURVE",
"500 268 CURVE SMOOTH",
"500 438 OFFCURVE",
"425 530 OFFCURVE",
"285 530 CURVE SMOOTH",
"138 530 OFFCURVE",
"50 428 OFFCURVE",
"50 260 CURVE SMOOTH",
"50 87 OFFCURVE",
"140 -10 OFFCURVE",
"302 -10 CURVE SMOOTH"
);
}
);
width = 548;
}
);
leftKerningGroup = o;
leftMetricsKey = "=o";
rightKerningGroup = o;
rightMetricsKey = "=o*.95";
unicode = 0065;
},
{
glyphname = f;
lastChange = "2025-01-21 12:56:24 +0000";
layers = (
{
layerId = "9527F797-22C1-480E-A1FE-2CDBEBE1FD4C";
paths = (
{
closed = 1;
nodes = (
"270 0 LINE",
"270 410 LINE",
"440 410 LINE",
"440 500 LINE",
"270 500 LINE",
"270 577 LINE SMOOTH",
"270 650 OFFCURVE",
"294 677 OFFCURVE",
"359 677 CURVE SMOOTH",
"383 677 OFFCURVE",
"406 673 OFFCURVE",
"430 665 CURVE",
"443 755 LINE",
"415 764 OFFCURVE",
"379 770 OFFCURVE",
"342 770 CURVE SMOOTH",
"222 770 OFFCURVE",
"161 708 OFFCURVE",
"161 585 CURVE SMOOTH",
"161 500 LINE",
"23 500 LINE",
"23 410 LINE",
"161 410 LINE",
"161 0 LINE"
);
}
);
width = 466;
},
{
layerId = "9E6B41AB-2970-4C41-8B35-4DBE0D296A43";
paths = (
{
closed = 1;
nodes = (
"325 0 LINE",
"325 360 LINE",
"461 360 LINE",
"461 500 LINE",
"325 500 LINE",
"325 550 LINE SMOOTH",
"325 605 OFFCURVE",
"338 620 OFFCURVE",
"380 620 CURVE SMOOTH",
"399 620 OFFCURVE",
"421 617 OFFCURVE",
"446 610 CURVE",
"466 755 LINE",
"427 765 OFFCURVE",
"381 770 OFFCURVE",
"345 770 CURVE SMOOTH",
"203 770 OFFCURVE",
"127 693 OFFCURVE",
"127 550 CURVE SMOOTH",
"127 500 LINE",
"16 500 LINE",
"16 360 LINE",
"127 360 LINE",
"127 0 LINE"
);
}
);
width = 482;
},
{
layerId = "D65C9A1E-0FCA-4B2D-8EDF-9F36CA9182A1";
paths = (
{
closed = 1;
nodes = (
"214 0 LINE",
"214 480 LINE",
"418 480 LINE",
"418 500 LINE",
"214 500 LINE",
"214 620 LINE SMOOTH",
"214 711 OFFCURVE",
"251 750 OFFCURVE",
"338 750 CURVE SMOOTH",
"365 750 OFFCURVE",
"386 746 OFFCURVE",
"413 736 CURVE",
"420 755 LINE",
"390 766 OFFCURVE",
"366 770 OFFCURVE",
"338 770 CURVE SMOOTH",
"240 770 OFFCURVE",
"194 722 OFFCURVE",
"194 620 CURVE SMOOTH",
"194 500 LINE",
"30 500 LINE",
"30 480 LINE",
"194 480 LINE",
"194 0 LINE"
);
}
);
width = 450;
}
);
leftKerningGroup = f;
leftMetricsKey = "=h*.3";
rightKerningGroup = f;
rightMetricsKey = "=d*.3";
unicode = 0066;
},
{
glyphname = g;
lastChange = "2025-01-21 12:56:24 +0000";
layers = (
{
anchors = (
{
name = bottom;
position = "{292, -140}";
},
{
name = top;
position = "{292, 520}";
}
);
layerId = "D65C9A1E-0FCA-4B2D-8EDF-9F36CA9182A1";
paths = (
{
closed = 1;
nodes = (
"420 -220 OFFCURVE",
"490 -142 OFFCURVE",
"490 40 CURVE SMOOTH",
"490 520 LINE",
"470 520 LINE",
"470 416 LINE",
"468 416 LINE",
"433 489 OFFCURVE",
"361 530 OFFCURVE",
"270 530 CURVE SMOOTH",
"132 530 OFFCURVE",
"50 435 OFFCURVE",
"50 275 CURVE SMOOTH",
"50 115 OFFCURVE",
"132 20 OFFCURVE",
"270 20 CURVE SMOOTH",
"361 20 OFFCURVE",
"433 61 OFFCURVE",
"468 134 CURVE",
"470 134 LINE",
"470 40 LINE SMOOTH",
"470 -131 OFFCURVE",
"409 -200 OFFCURVE",
"258 -200 CURVE SMOOTH",
"187 -200 OFFCURVE",
"127 -185 OFFCURVE",
"78 -155 CURVE",
"68 -172 LINE",
"120 -204 OFFCURVE",
"184 -220 OFFCURVE",
"258 -220 CURVE SMOOTH"
);
},
{
closed = 1;
nodes = (
"144 40 OFFCURVE",
"70 125 OFFCURVE",
"70 275 CURVE SMOOTH",
"70 425 OFFCURVE",
"144 510 OFFCURVE",
"270 510 CURVE SMOOTH",
"388 510 OFFCURVE",
"470 436 OFFCURVE",
"470 331 CURVE SMOOTH",
"470 219 LINE SMOOTH",
"470 114 OFFCURVE",
"388 40 OFFCURVE",
"270 40 CURVE SMOOTH"
);
}
);
width = 589;
},
{
anchors = (
{
name = bottom;
position = "{307, -140}";
},
{
name = top;
position = "{307, 520}";
}
);
layerId = "9527F797-22C1-480E-A1FE-2CDBEBE1FD4C";
paths = (
{
closed = 1;
nodes = (
"455 -220 OFFCURVE",
"539 -133 OFFCURVE",
"539 55 CURVE SMOOTH",
"539 520 LINE",
"436 520 LINE",
"435 462 LINE",
"433 462 LINE",
"395 505 OFFCURVE",
"332 530 OFFCURVE",
"261 530 CURVE SMOOTH",
"122 530 OFFCURVE",
"39 435 OFFCURVE",
"39 275 CURVE SMOOTH",
"39 115 OFFCURVE",
"122 20 OFFCURVE",
"261 20 CURVE SMOOTH",
"330 20 OFFCURVE",
"391 44 OFFCURVE",
"429 88 CURVE",
"431 88 LINE",
"431 55 LINE SMOOTH",
"431 -77 OFFCURVE",
"383 -130 OFFCURVE",
"262 -130 CURVE SMOOTH",
"195 -130 OFFCURVE",
"127 -114 OFFCURVE",
"79 -86 CURVE",
"64 -174 LINE",
"113 -203 OFFCURVE",
"190 -220 OFFCURVE",
"272 -220 CURVE SMOOTH"
);
},
{
closed = 1;
nodes = (
"196 110 OFFCURVE",
"145 170 OFFCURVE",
"145 275 CURVE SMOOTH",
"145 380 OFFCURVE",
"196 440 OFFCURVE",
"286 440 CURVE SMOOTH",
"369 440 OFFCURVE",
"431 391 OFFCURVE",
"431 325 CURVE SMOOTH",
"431 225 LINE SMOOTH",
"431 159 OFFCURVE",
"369 110 OFFCURVE",
"286 110 CURVE SMOOTH"
);
}
);
width = 616;
},
{
anchors = (
{
name = bottom;
position = "{322, -140}";
},
{
name = top;
position = "{322, 520}";
}
);
layerId = "9E6B41AB-2970-4C41-8B35-4DBE0D296A43";
paths = (
{
closed = 1;
nodes = (
"486 -220 OFFCURVE",
"587 -123 OFFCURVE",
"587 70 CURVE SMOOTH",
"587 520 LINE",
"401 520 LINE",
"399 464 LINE",
"397 464 LINE",
"348 510 OFFCURVE",
"299 530 OFFCURVE",
"236 530 CURVE SMOOTH",
"101 530 OFFCURVE",
"27 440 OFFCURVE",
"27 275 CURVE SMOOTH",
"27 110 OFFCURVE",
"101 20 OFFCURVE",
"236 20 CURVE SMOOTH",
"298 20 OFFCURVE",
"340 38 OFFCURVE",
"389 86 CURVE",
"391 86 LINE",
"391 70 LINE",
"391 -39 OFFCURVE",
"357 -80 OFFCURVE",
"266 -80 CURVE SMOOTH",
"206 -80 OFFCURVE",
"129 -62 OFFCURVE",
"79 -36 CURVE",
"59 -176 LINE",
"109 -203 OFFCURVE",
"197 -220 OFFCURVE",
"285 -220 CURVE SMOOTH"
);
},
{
closed = 1;
nodes = (
"251 170 OFFCURVE",
"219 208 OFFCURVE",
"219 275 CURVE SMOOTH",
"219 342 OFFCURVE",
"251 380 OFFCURVE",
"307 380 CURVE SMOOTH",
"356 380 OFFCURVE",
"391 351 OFFCURVE",
"391 310 CURVE SMOOTH",
"391 240 LINE SMOOTH",
"391 199 OFFCURVE",
"356 170 OFFCURVE",
"307 170 CURVE SMOOTH"
);
}
);
width = 641;
},
{
anchors = (
{
name = bottom;
position = "{297, -140}";
},
{
name = top;
position = "{297, 520}";
}
);
associatedMasterId = "D65C9A1E-0FCA-4B2D-8EDF-9F36CA9182A1";
layerId = "2CB2E316-DF26-4020-8926-4C268D4E13F3";
name = "{232}";
paths = (
{
closed = 1;
nodes = (
"431 -220 OFFCURVE",
"506 -139 OFFCURVE",
"506 45 CURVE SMOOTH",
"506 520 LINE",
"458 520 LINE",
"458 445 LINE",
"456 445 LINE",
"421 497 OFFCURVE",
"349 530 OFFCURVE",
"267 530 CURVE SMOOTH",
"128 530 OFFCURVE",
"46 435 OFFCURVE",
"46 275 CURVE SMOOTH",
"46 115 OFFCURVE",
"128 20 OFFCURVE",
"267 20 CURVE SMOOTH",
"349 20 OFFCURVE",
"422 53 OFFCURVE",
"455 105 CURVE",
"457 105 LINE",
"457 45 LINE SMOOTH",
"457 -113 OFFCURVE",
"400 -177 OFFCURVE",
"259 -177 CURVE SMOOTH",
"189 -177 OFFCURVE",
"127 -162 OFFCURVE",
"78 -132 CURVE",
"66 -173 LINE",
"117 -204 OFFCURVE",
"186 -220 OFFCURVE",
"262 -220 CURVE SMOOTH"
);
},
{
closed = 1;
nodes = (
"161 63 OFFCURVE",
"94 140 OFFCURVE",
"94 275 CURVE SMOOTH",
"94 410 OFFCURVE",
"161 487 OFFCURVE",
"275 487 CURVE SMOOTH",
"381 487 OFFCURVE",
"457 421 OFFCURVE",
"457 329 CURVE SMOOTH",
"457 221 LINE SMOOTH",
"457 129 OFFCURVE",
"381 63 OFFCURVE",
"275 63 CURVE SMOOTH"
);
}
);
width = 598;
}
);
leftKerningGroup = o;
leftMetricsKey = "=d";
rightKerningGroup = g;
rightMetricsKey = "=u";
unicode = 0067;
},
{
glyphname = h;
lastChange = "2025-01-21 12:56:24 +0000";
layers = (
{
anchors = (
{
name = bottom;
position = "{294, 0}";
},
{
name = center;
position = "{294, 430}";
},
{
name = top;
position = "{294, 730}";
}
);
layerId = "D65C9A1E-0FCA-4B2D-8EDF-9F36CA9182A1";
paths = (
{
closed = 1;
nodes = (
"119 0 LINE",
"119 320 LINE SMOOTH",
"119 432 OFFCURVE",
"205 510 OFFCURVE",
"329 510 CURVE SMOOTH",
"438 510 OFFCURVE",
"489 449 OFFCURVE",
"489 320 CURVE SMOOTH",
"489 0 LINE",
"509 0 LINE",
"509 320 LINE SMOOTH",
"509 460 OFFCURVE",
"450 530 OFFCURVE",
"329 530 CURVE SMOOTH",
"233 530 OFFCURVE",
"157 487 OFFCURVE",
"121 412 CURVE",
"119 412 LINE",
"119 730 LINE",
"99 730 LINE",
"99 0 LINE"
);
}
);
width = 588;
},
{
anchors = (
{
name = bottom;
position = "{303, 0}";
},
{
name = center;
position = "{303, 430}";
},
{
name = top;
position = "{303, 730}";
}
);
layerId = "9527F797-22C1-480E-A1FE-2CDBEBE1FD4C";
paths = (
{
closed = 1;
nodes = (
"185 0 LINE",
"185 309 LINE SMOOTH",
"186 385 OFFCURVE",
"246 440 OFFCURVE",
"330 440 CURVE SMOOTH",
"405 440 OFFCURVE",
"440 396 OFFCURVE",
"439 300 CURVE SMOOTH",
"439 0 LINE",
"547 0 LINE",
"547 320 LINE SMOOTH",
"548 464 OFFCURVE",
"489 530 OFFCURVE",
"360 530 CURVE SMOOTH",
"285 530 OFFCURVE",
"228 506 OFFCURVE",
"187 458 CURVE",
"185 458 LINE",
"185 730 LINE",
"77 730 LINE",
"77 0 LINE"
);
}
);
width = 609;
},
{
anchors = (
{
name = bottom;
position = "{310, 0}";
},
{
name = center;
position = "{310, 430}";
},
{
name = top;
position = "{310, 730}";
}
);
layerId = "9E6B41AB-2970-4C41-8B35-4DBE0D296A43";
paths = (
{
closed = 1;
nodes = (
"250 0 LINE",
"250 300 LINE SMOOTH",
"250 341 OFFCURVE",
"283 370 OFFCURVE",
"329 370 CURVE SMOOTH",
"372 370 OFFCURVE",
"388 345 OFFCURVE",
"388 280 CURVE SMOOTH",
"388 0 LINE",
"584 0 LINE",
"584 320 LINE SMOOTH",
"584 466 OFFCURVE",
"531 530 OFFCURVE",
"409 530 CURVE SMOOTH",
"342 530 OFFCURVE",
"299 511 OFFCURVE",
"252 460 CURVE",
"250 460 LINE",
"250 730 LINE",
"54 730 LINE",
"54 0 LINE"
);
}
);
width = 627;
},
{
anchors = (
{
name = bottom;
position = "{297, 0}";
},
{
name = center;
position = "{297, 430}";
},
{
name = top;
position = "{297, 730}";
}
);
associatedMasterId = "D65C9A1E-0FCA-4B2D-8EDF-9F36CA9182A1";
layerId = "02FE662A-EEF6-4625-B8CE-6C497DD97EB0";
name = "{232}";
paths = (
{
closed = 1;
nodes = (
"141 0 LINE",
"141 316 LINE SMOOTH",
"141 416 OFFCURVE",
"219 487 OFFCURVE",
"330 487 CURVE SMOOTH",
"427 487 OFFCURVE",
"473 432 OFFCURVE",
"473 313 CURVE SMOOTH",
"473 0 LINE",
"522 0 LINE",
"522 320 LINE SMOOTH",
"522 463 OFFCURVE",
"465 530 OFFCURVE",
"340 530 CURVE SMOOTH",
"253 530 OFFCURVE",
"180 497 OFFCURVE",
"143 441 CURVE",
"141 441 LINE",
"141 730 LINE",
"92 730 LINE",
"92 0 LINE"
);
}
);
width = 596;
}
);
leftKerningGroup = b;
leftMetricsKey = "=H*.9";
rightKerningGroup = h;
rightMetricsKey = "=|*.8";
unicode = 0068;
},
{
glyphname = hbar;
lastChange = "2025-01-21 12:56:24 +0000";
layers = (
{
anchors = (
{
name = bottom;
position = "{340, 0}";
},
{
name = center;
position = "{340, 430}";
},
{
name = top;
position = "{340, 750}";
}
);
components = (
{
name = h;
transform = "{1, 0, 0, 1, 70, 0}";
}
);
layerId = "D65C9A1E-0FCA-4B2D-8EDF-9F36CA9182A1";
paths = (
{
closed = 1;
nodes = (
"455 625 LINE",
"35 625 LINE",
"35 605 LINE",
"455 605 LINE"
);
}
);
width = 658;
},
{
anchors = (
{
name = bottom;
position = "{358, 0}";
},
{
name = center;
position = "{358, 430}";
},
{
name = top;
position = "{358, 750}";
}
);
components = (
{
alignment = -1;
name = h;
transform = "{1, 0, 0, 1, 68, 0}";
}
);
layerId = "9527F797-22C1-480E-A1FE-2CDBEBE1FD4C";
paths = (
{
closed = 1;
nodes = (
"450 660 LINE",
"30 660 LINE",
"30 570 LINE",
"450 570 LINE"
);
}
);
width = 677;
},
{
anchors = (
{
name = bottom;
position = "{375, 0}";
},
{
name = center;
position = "{375, 430}";
},
{
name = top;
position = "{375, 750}";
}
);
components = (
{
name = h;
transform = "{1, 0, 0, 1, 65, 0}";
}
);
layerId = "9E6B41AB-2970-4C41-8B35-4DBE0D296A43";
paths = (
{
closed = 1;
nodes = (
"444 685 LINE",
"24 685 LINE",
"24 545 LINE",
"444 545 LINE"
);
}
);
width = 692;
}
);
leftKerningGroup = W;
leftMetricsKey = "=W";
rightKerningGroup = h;
rightMetricsKey = "=h";
unicode = 0127;
},
{
glyphname = i;
lastChange = "2025-01-21 13:53:08 +0000";
layers = (
{
anchors = (
{
name = bottom;
position = "{140, 0}";
},
{
name = ogonek;
position = "{195, 0}";
}
);
layerId = "9527F797-22C1-480E-A1FE-2CDBEBE1FD4C";
paths = (
{
closed = 1;
nodes = (
"195 620 LINE",
"195 730 LINE",
"85 730 LINE",
"85 620 LINE"
);
},
{
closed = 1;
nodes = (
"195 0 LINE",
"195 520 LINE",
"85 520 LINE",
"85 0 LINE"
);
}
);
width = 280;
},
{
anchors = (
{
name = bottom;
position = "{159, 0}";
},
{
name = ogonek;
position = "{259, 0}";
}
);
layerId = "9E6B41AB-2970-4C41-8B35-4DBE0D296A43";
paths = (
{
closed = 1;
nodes = (
"259 570 LINE",
"259 730 LINE",
"59 730 LINE",
"59 570 LINE"
);
},
{
closed = 1;
nodes = (
"259 0 LINE",
"259 500 LINE",
"59 500 LINE",
"59 0 LINE"
);
}
);
width = 318;
},
{
anchors = (
{
name = bottom;
position = "{139, 0}";
},
{
name = ogonek;
position = "{149, 0}";
}
);
layerId = "D65C9A1E-0FCA-4B2D-8EDF-9F36CA9182A1";
paths = (
{
closed = 1;
nodes = (
"169 670 LINE",
"169 730 LINE",
"109 730 LINE",
"109 670 LINE"
);
},
{
closed = 1;
nodes = (
"149 0 LINE",
"149 520 LINE",
"129 520 LINE",
"129 0 LINE"
);
}
);
width = 278;
}
);
leftKerningGroup = l;
leftMetricsKey = "=l";
rightKerningGroup = l;
rightMetricsKey = "=|";
unicode = 0069;
},
{
glyphname = idotless;
lastChange = "2025-01-21 12:56:24 +0000";
layers = (
{
anchors = (
{
name = bottom;
position = "{119, 0}";
},
{
name = ogonek;
position = "{129, 0}";
},
{
name = top;
position = "{119, 520}";
}
);
layerId = "D65C9A1E-0FCA-4B2D-8EDF-9F36CA9182A1";
paths = (
{
closed = 1;
nodes = (
"129 0 LINE",
"129 520 LINE",
"109 520 LINE",
"109 0 LINE"
);
}
);
width = 238;
},
{
anchors = (
{
name = bottom;
position = "{140, 0}";
},
{
name = ogonek;
position = "{195, 0}";
},
{
name = top;
position = "{140, 520}";
}
);
layerId = "9527F797-22C1-480E-A1FE-2CDBEBE1FD4C";
paths = (
{
closed = 1;
nodes = (
"195 0 LINE",
"195 520 LINE",
"85 520 LINE",
"85 0 LINE"
);
}
);
width = 280;
},
{
anchors = (
{
name = bottom;
position = "{159, 0}";
},
{
name = ogonek;
position = "{259, 0}";
},
{
name = top;
position = "{159, 520}";
}
);
layerId = "9E6B41AB-2970-4C41-8B35-4DBE0D296A43";
paths = (
{
closed = 1;
nodes = (
"259 0 LINE",
"259 520 LINE",
"59 520 LINE",
"59 0 LINE"
);
}
);
width = 318;
}
);
leftKerningGroup = l;
leftMetricsKey = "=l";
rightKerningGroup = l;
rightMetricsKey = "=|";
unicode = 0131;
},
{
glyphname = j;
lastChange = "2025-01-21 12:56:24 +0000";
layers = (
{
layerId = "9527F797-22C1-480E-A1FE-2CDBEBE1FD4C";
leftMetricsKey = "=l-170";
paths = (
{
closed = 1;
nodes = (
"-69 -220 LINE",
"160 -199 OFFCURVE",
"225 -139 OFFCURVE",
"225 53 CURVE SMOOTH",
"225 520 LINE",
"115 520 LINE",
"115 53 LINE SMOOTH",
"115 -79 OFFCURVE",
"81 -109 OFFCURVE",
"-85 -126 CURVE"
);
},
{
closed = 1;
nodes = (
"225 620 LINE",
"225 730 LINE",
"115 730 LINE",
"115 620 LINE"
);
}
);
width = 310;
},
{
layerId = "9E6B41AB-2970-4C41-8B35-4DBE0D296A43";
leftMetricsKey = "=l-140";
paths = (
{
closed = 1;
nodes = (
"-51 -220 LINE",
"214 -200 OFFCURVE",
"289 -136 OFFCURVE",
"289 70 CURVE SMOOTH",
"289 500 LINE",
"89 500 LINE",
"89 70 LINE SMOOTH",
"89 -39 OFFCURVE",
"69 -56 OFFCURVE",
"-81 -70 CURVE"
);
},
{
closed = 1;
nodes = (
"289 570 LINE",
"289 730 LINE",
"89 730 LINE",
"89 570 LINE"
);
}
);
width = 348;
},
{
layerId = "D65C9A1E-0FCA-4B2D-8EDF-9F36CA9182A1";
leftMetricsKey = "=l-200";
paths = (
{
closed = 1;
nodes = (
"-89 -220 LINE",
"104 -198 OFFCURVE",
"159 -142 OFFCURVE",
"159 35 CURVE SMOOTH",
"159 520 LINE",
"139 520 LINE",
"139 35 LINE SMOOTH",
"139 -131 OFFCURVE",
"92 -179 OFFCURVE",
"-91 -200 CURVE"
);
},
{
closed = 1;
nodes = (
"179 670 LINE",
"179 730 LINE",
"119 730 LINE",
"119 670 LINE"
);
}
);
width = 288;
}
);
leftKerningGroup = l;
leftMetricsKey = "=-150";
rightKerningGroup = g;
rightMetricsKey = "=l";
unicode = 006A;
},
{
glyphname = jdotless;
lastChange = "2025-01-21 12:56:24 +0000";
layers = (
{
anchors = (
{
name = bottom;
position = "{114, -160}";
},
{
name = top;
position = "{149, 520}";
}
);
layerId = "D65C9A1E-0FCA-4B2D-8EDF-9F36CA9182A1";
paths = (
{
closed = 1;
nodes = (
"-89 -220 LINE",
"104 -198 OFFCURVE",
"159 -142 OFFCURVE",
"159 35 CURVE SMOOTH",
"159 520 LINE",
"139 520 LINE",
"139 35 LINE SMOOTH",
"139 -131 OFFCURVE",
"92 -179 OFFCURVE",
"-91 -200 CURVE"
);
}
);
width = 268;
},
{
anchors = (
{
name = bottom;
position = "{141, -160}";
},
{
name = top;
position = "{170, 520}";
}
);
layerId = "9527F797-22C1-480E-A1FE-2CDBEBE1FD4C";
paths = (
{
closed = 1;
nodes = (
"-69 -220 LINE",
"160 -199 OFFCURVE",
"225 -139 OFFCURVE",
"225 53 CURVE SMOOTH",
"225 520 LINE",
"115 520 LINE",
"115 53 LINE SMOOTH",
"115 -79 OFFCURVE",
"81 -109 OFFCURVE",
"-85 -126 CURVE"
);
}
);
width = 310;
},
{
anchors = (
{
name = bottom;
position = "{167, -160}";
},
{
name = top;
position = "{189, 520}";
}
);
layerId = "9E6B41AB-2970-4C41-8B35-4DBE0D296A43";
paths = (
{
closed = 1;
nodes = (
"-51 -220 LINE",
"214 -200 OFFCURVE",
"289 -136 OFFCURVE",
"289 70 CURVE SMOOTH",
"289 520 LINE",
"89 520 LINE",
"89 70 LINE SMOOTH",
"89 -39 OFFCURVE",
"69 -56 OFFCURVE",
"-81 -70 CURVE"
);
}
);
width = 348;
}
);
leftKerningGroup = l;
leftMetricsKey = "=j";
rightKerningGroup = g;
rightMetricsKey = "=j";
unicode = 0237;
},
{
glyphname = k;
lastChange = "2025-01-21 12:56:24 +0000";
layers = (
{
anchors = (
{
name = bottom;
position = "{249, 0}";
},
{
name = top;
position = "{249, 730}";
}
);
layerId = "D65C9A1E-0FCA-4B2D-8EDF-9F36CA9182A1";
rightMetricsKey = "=d*.4";
paths = (
{
closed = 1;
nodes = (
"121 0 LINE",
"121 262 LINE",
"123 262 LINE",
"485 0 LINE",
"519 0 LINE",
"146 270 LINE",
"502 520 LINE",
"468 520 LINE",
"123 278 LINE",
"121 278 LINE",
"121 730 LINE",
"99 730 LINE",
"99 0 LINE"
);
}
);
width = 559;
},
{
anchors = (
{
name = bottom;
position = "{273, 0}";
},
{
name = top;
position = "{273, 730}";
}
);
layerId = "9527F797-22C1-480E-A1FE-2CDBEBE1FD4C";
rightMetricsKey = "=d*.3";
paths = (
{
closed = 1;
nodes = (
"186 0 LINE",
"186 235 LINE",
"188 235 LINE",
"428 0 LINE",
"567 0 LINE",
"281 270 LINE",
"556 520 LINE",
"417 520 LINE",
"188 306 LINE",
"186 306 LINE",
"186 730 LINE",
"77 730 LINE",
"77 0 LINE"
);
}
);
width = 590;
},
{
anchors = (
{
name = bottom;
position = "{295, 0}";
},
{
name = top;
position = "{295, 730}";
}
);
layerId = "9E6B41AB-2970-4C41-8B35-4DBE0D296A43";
rightMetricsKey = "=d*.2";
paths = (
{
closed = 1;
nodes = (
"250 0 LINE",
"250 215 LINE",
"252 215 LINE",
"389 0 LINE",
"614 0 LINE",
"414 270 LINE",
"609 520 LINE",
"384 520 LINE",
"252 325 LINE",
"250 325 LINE",
"250 730 LINE",
"54 730 LINE",
"54 0 LINE"
);
}
);
width = 625;
}
);
leftKerningGroup = b;
leftMetricsKey = "=h";
rightKerningGroup = x;
rightMetricsKey = "=d*.2";
unicode = 006B;
},
{
glyphname = kgreenlandic;
lastChange = "2025-01-21 12:56:24 +0000";
layers = (
{
anchors = (
{
name = bottom;
position = "{249, 0}";
},
{
name = top;
position = "{249, 520}";
}
);
layerId = "D65C9A1E-0FCA-4B2D-8EDF-9F36CA9182A1";
paths = (
{
closed = 1;
nodes = (
"121 0 LINE",
"121 262 LINE",
"123 262 LINE",
"485 0 LINE",
"519 0 LINE",
"146 270 LINE",
"502 520 LINE",
"468 520 LINE",
"123 278 LINE",
"121 278 LINE",
"121 520 LINE",
"99 520 LINE",
"99 0 LINE"
);
}
);
width = 559;
},
{
anchors = (
{
name = bottom;
position = "{273, 0}";
},
{
name = top;
position = "{273, 520}";
}
);
layerId = "9527F797-22C1-480E-A1FE-2CDBEBE1FD4C";
paths = (
{
closed = 1;
nodes = (
"186 0 LINE",
"186 235 LINE",
"188 235 LINE",
"428 0 LINE",
"567 0 LINE",
"281 270 LINE",
"556 520 LINE",
"417 520 LINE",
"188 306 LINE",
"186 306 LINE",
"186 520 LINE",
"77 520 LINE",
"77 0 LINE"
);
}
);
width = 590;
},
{
anchors = (
{
name = bottom;
position = "{295, 0}";
},
{
name = top;
position = "{295, 520}";
}
);
layerId = "9E6B41AB-2970-4C41-8B35-4DBE0D296A43";
paths = (
{
closed = 1;
nodes = (
"250 0 LINE",
"250 215 LINE",
"252 215 LINE",
"389 0 LINE",
"614 0 LINE",
"414 270 LINE",
"609 520 LINE",
"384 520 LINE",
"252 325 LINE",
"250 325 LINE",
"250 520 LINE",
"54 520 LINE",
"54 0 LINE"
);
}
);
width = 625;
}
);
leftKerningGroup = n;
leftMetricsKey = "=k";
rightKerningGroup = x;
rightMetricsKey = "=k";
unicode = 0138;
},
{
glyphname = l;
lastChange = "2025-01-21 12:56:24 +0000";
layers = (
{
anchors = (
{
name = bottom;
position = "{119, 0}";
},
{
name = center;
position = "{119, 430}";
},
{
name = pdcenter;
position = "{345, 375}";
},
{
name = top;
position = "{119, 730}";
},
{
name = topright;
position = "{203, 730}";
}
);
layerId = "D65C9A1E-0FCA-4B2D-8EDF-9F36CA9182A1";
paths = (
{
closed = 1;
nodes = (
"129 0 LINE",
"129 730 LINE",
"109 730 LINE",
"109 0 LINE"
);
}
);
width = 238;
},
{
anchors = (
{
name = bottom;
position = "{140, 0}";
},
{
name = center;
position = "{140, 430}";
},
{
name = pdcenter;
position = "{436, 375}";
},
{
name = top;
position = "{140, 730}";
},
{
name = topright;
position = "{254, 730}";
}
);
layerId = "9527F797-22C1-480E-A1FE-2CDBEBE1FD4C";
paths = (
{
closed = 1;
nodes = (
"195 0 LINE",
"195 730 LINE",
"85 730 LINE",
"85 0 LINE"
);
}
);
width = 280;
},
{
anchors = (
{
name = bottom;
position = "{159, 0}";
},
{
name = center;
position = "{159, 430}";
},
{
name = pdcenter;
position = "{524, 375}";
},
{
name = top;
position = "{159, 730}";
},
{
name = topright;
position = "{304, 730}";
}
);
layerId = "9E6B41AB-2970-4C41-8B35-4DBE0D296A43";
paths = (
{
closed = 1;
nodes = (
"259 0 LINE",
"259 730 LINE",
"59 730 LINE",
"59 0 LINE"
);
}
);
width = 318;
}
);
leftKerningGroup = l;
leftMetricsKey = "=h*1.1";
rightKerningGroup = l;
rightMetricsKey = "=|";
unicode = 006C;
},
{
glyphname = lslash;
lastChange = "2025-01-21 12:56:24 +0000";
layers = (
{
components = (
{
name = l;
transform = "{1, 0, 0, 1, 103, 0}";
}
);
layerId = "D65C9A1E-0FCA-4B2D-8EDF-9F36CA9182A1";
leftMetricsKey = "=t*.9";
paths = (
{
closed = 1;
nodes = (
"376 431 LINE",
"368 449 LINE",
"38 299 LINE",
"46 281 LINE"
);
}
);
width = 414;
},
{
components = (
{
alignment = -1;
name = l;
transform = "{1, 0, 0, 1, 97, 0}";
}
);
layerId = "9527F797-22C1-480E-A1FE-2CDBEBE1FD4C";
leftMetricsKey = "=t*.7";
paths = (
{
closed = 1;
nodes = (
"449 407 LINE",
"413 491 LINE",
"13 323 LINE",
"49 239 LINE"
);
}
);
width = 462;
},
{
components = (
{
name = l;
transform = "{1, 0, 0, 1, 104, 0}";
}
);
layerId = "9E6B41AB-2970-4C41-8B35-4DBE0D296A43";
leftMetricsKey = "=t*.5";
paths = (
{
closed = 1;
nodes = (
"531 393 LINE",
"476 523 LINE",
"7 337 LINE",
"62 207 LINE"
);
}
);
width = 538;
}
);
leftKerningGroup = o;
leftMetricsKey = "=t*.5";
rightKerningGroup = f;
rightMetricsKey = "=|";
unicode = 0142;
},
{
glyphname = m;
lastChange = "2025-01-21 12:56:24 +0000";
layers = (
{
layerId = "D65C9A1E-0FCA-4B2D-8EDF-9F36CA9182A1";
paths = (
{
closed = 1;
nodes = (
"119 0 LINE",
"119 320 LINE SMOOTH",
"119 426 OFFCURVE",
"199 510 OFFCURVE",
"298 510 CURVE SMOOTH",
"381 510 OFFCURVE",
"434 451 OFFCURVE",
"434 360 CURVE SMOOTH",
"434 0 LINE",
"454 0 LINE",
"454 320 LINE SMOOTH",
"454 437 OFFCURVE",
"523 510 OFFCURVE",
"633 510 CURVE SMOOTH",
"727 510 OFFCURVE",
"769 458 OFFCURVE",
"769 340 CURVE SMOOTH",
"769 0 LINE",
"789 0 LINE",
"789 340 LINE SMOOTH",
"789 469 OFFCURVE",
"739 530 OFFCURVE",
"633 530 CURVE SMOOTH",
"547 530 OFFCURVE",
"486 490 OFFCURVE",
"451 412 CURVE",
"449 412 LINE",
"434 485 OFFCURVE",
"376 530 OFFCURVE",
"298 530 CURVE SMOOTH",
"222 530 OFFCURVE",
"157 487 OFFCURVE",
"121 412 CURVE",
"119 412 LINE",
"119 520 LINE",
"99 520 LINE",
"99 0 LINE"
);
}
);
width = 868;
},
{
layerId = "9527F797-22C1-480E-A1FE-2CDBEBE1FD4C";
paths = (
{
closed = 1;
nodes = (
"183 0 LINE",
"183 310 LINE SMOOTH",
"183 384 OFFCURVE",
"234 440 OFFCURVE",
"301 440 CURVE SMOOTH",
"357 440 OFFCURVE",
"389 401 OFFCURVE",
"389 330 CURVE SMOOTH",
"389 0 LINE",
"495 0 LINE",
"495 310 LINE SMOOTH",
"495 389 OFFCURVE",
"541 440 OFFCURVE",
"613 440 CURVE SMOOTH",
"674 440 OFFCURVE",
"701 403 OFFCURVE",
"701 320 CURVE SMOOTH",
"701 0 LINE",
"807 0 LINE",
"807 345 LINE SMOOTH",
"807 473 OFFCURVE",
"757 530 OFFCURVE",
"644 530 CURVE SMOOTH",
"573 530 OFFCURVE",
"522 507 OFFCURVE",
"483 458 CURVE",
"481 458 LINE",
"461 505 OFFCURVE",
"411 530 OFFCURVE",
"342 530 CURVE SMOOTH",
"271 530 OFFCURVE",
"218 503 OFFCURVE",
"181 458 CURVE",
"179 458 LINE",
"178 520 LINE",
"77 520 LINE",
"77 0 LINE"
);
}
);
width = 869;
},
{
layerId = "9E6B41AB-2970-4C41-8B35-4DBE0D296A43";
paths = (
{
closed = 1;
nodes = (
"246 0 LINE",
"246 300 LINE SMOOTH",
"246 341 OFFCURVE",
"269 370 OFFCURVE",
"302 370 CURVE SMOOTH",
"331 370 OFFCURVE",
"343 349 OFFCURVE",
"343 300 CURVE SMOOTH",
"343 0 LINE",
"535 0 LINE",
"535 300 LINE SMOOTH",
"535 341 OFFCURVE",
"558 370 OFFCURVE",
"591 370 CURVE SMOOTH",
"620 370 OFFCURVE",
"632 349 OFFCURVE",
"632 300 CURVE SMOOTH",
"632 0 LINE",
"824 0 LINE",
"824 350 LINE SMOOTH",
"824 476 OFFCURVE",
"779 530 OFFCURVE",
"673 530 CURVE SMOOTH",
"607 530 OFFCURVE",
"559 509 OFFCURVE",
"513 460 CURVE",
"511 460 LINE",
"488 507 OFFCURVE",
"447 530 OFFCURVE",
"384 530 CURVE SMOOTH",
"324 530 OFFCURVE",
"281 509 OFFCURVE",
"240 460 CURVE",
"238 460 LINE",
"236 520 LINE",
"54 520 LINE",
"54 0 LINE"
);
}
);
width = 867;
},
{
associatedMasterId = "D65C9A1E-0FCA-4B2D-8EDF-9F36CA9182A1";
layerId = "0CBD3FAB-BA75-4DFC-AD86-B9F788B7BCE9";
name = "{232}";
paths = (
{
closed = 1;
nodes = (
"140 0 LINE",
"140 316 LINE SMOOTH",
"140 400 OFFCURVE",
"206 487 OFFCURVE",
"299 487 CURVE SMOOTH",
"377 487 OFFCURVE",
"419 439 OFFCURVE",
"419 350 CURVE SMOOTH",
"419 0 LINE",
"468 0 LINE",
"468 316 LINE SMOOTH",
"468 418 OFFCURVE",
"532 487 OFFCURVE",
"627 487 CURVE SMOOTH",
"712 487 OFFCURVE",
"747 438 OFFCURVE",
"747 316 CURVE SMOOTH",
"747 0 LINE",
"795 0 LINE",
"795 325 LINE SMOOTH",
"795 469 OFFCURVE",
"750 530 OFFCURVE",
"640 530 CURVE SMOOTH",
"562 530 OFFCURVE",
"498 499 OFFCURVE",
"462 441 CURVE",
"460 441 LINE",
"443 499 OFFCURVE",
"391 530 OFFCURVE",
"313 530 CURVE SMOOTH",
"238 530 OFFCURVE",
"175 494 OFFCURVE",
"141 441 CURVE",
"139 441 LINE",
"139 520 LINE",
"92 520 LINE",
"92 0 LINE"
);
}
);
width = 869;
}
);
leftKerningGroup = n;
leftMetricsKey = "=n";
rightKerningGroup = h;
rightMetricsKey = "=n";
unicode = 006D;
},
{
glyphname = n;
lastChange = "2025-01-21 12:56:24 +0000";
layers = (
{
anchors = (
{
name = bottom;
position = "{300, 0}";
},
{
name = top;
position = "{300, 520}";
}
);
layerId = "D65C9A1E-0FCA-4B2D-8EDF-9F36CA9182A1";
paths = (
{
closed = 1;
nodes = (
"119 0 LINE",
"119 320 LINE SMOOTH",
"119 432 OFFCURVE",
"205 510 OFFCURVE",
"329 510 CURVE SMOOTH",
"438 510 OFFCURVE",
"489 449 OFFCURVE",
"489 320 CURVE SMOOTH",
"489 0 LINE",
"509 0 LINE",
"509 320 LINE SMOOTH",
"509 460 OFFCURVE",
"450 530 OFFCURVE",
"329 530 CURVE SMOOTH",
"234 530 OFFCURVE",
"157 487 OFFCURVE",
"121 412 CURVE",
"119 412 LINE",
"119 520 LINE",
"99 520 LINE",
"99 0 LINE"
);
}
);
width = 588;
},
{
anchors = (
{
name = bottom;
position = "{308, 0}";
},
{
name = top;
position = "{308, 520}";
}
);
layerId = "9527F797-22C1-480E-A1FE-2CDBEBE1FD4C";
paths = (
{
closed = 1;
nodes = (
"185 0 LINE",
"185 310 LINE SMOOTH",
"185 385 OFFCURVE",
"246 440 OFFCURVE",
"330 440 CURVE SMOOTH",
"405 440 OFFCURVE",
"439 396 OFFCURVE",
"439 300 CURVE SMOOTH",
"439 0 LINE",
"547 0 LINE",
"547 320 LINE SMOOTH",
"547 464 OFFCURVE",
"488 530 OFFCURVE",
"360 530 CURVE SMOOTH",
"282 530 OFFCURVE",
"224 506 OFFCURVE",
"183 458 CURVE",
"181 458 LINE",
"180 520 LINE",
"77 520 LINE",
"77 0 LINE"
);
}
);
width = 609;
},
{
anchors = (
{
name = bottom;
position = "{316, 0}";
},
{
name = top;
position = "{316, 520}";
}
);
layerId = "9E6B41AB-2970-4C41-8B35-4DBE0D296A43";
paths = (
{
closed = 1;
nodes = (
"250 0 LINE",
"250 300 LINE SMOOTH",
"250 341 OFFCURVE",
"283 370 OFFCURVE",
"329 370 CURVE SMOOTH",
"371 370 OFFCURVE",
"388 345 OFFCURVE",
"388 280 CURVE SMOOTH",
"388 0 LINE",
"584 0 LINE",
"584 320 LINE SMOOTH",
"584 466 OFFCURVE",
"530 530 OFFCURVE",
"409 530 CURVE SMOOTH",
"339 530 OFFCURVE",
"290 509 OFFCURVE",
"244 460 CURVE",
"242 460 LINE",
"240 520 LINE",
"54 520 LINE",
"54 0 LINE"
);
}
);
width = 627;
},
{
anchors = (
{
name = bottom;
position = "{304, 0}";
},
{
name = top;
position = "{304, 520}";
}
);
associatedMasterId = "D65C9A1E-0FCA-4B2D-8EDF-9F36CA9182A1";
layerId = "899DC2DC-F451-4B84-9275-F30D30733E24";
name = "{232}";
paths = (
{
closed = 1;
nodes = (
"141 0 LINE",
"141 316 LINE SMOOTH",
"141 416 OFFCURVE",
"219 487 OFFCURVE",
"330 487 CURVE SMOOTH",
"427 487 OFFCURVE",
"473 432 OFFCURVE",
"473 313 CURVE SMOOTH",
"473 0 LINE",
"522 0 LINE",
"522 320 LINE SMOOTH",
"522 463 OFFCURVE",
"464 530 OFFCURVE",
"340 530 CURVE SMOOTH",
"253 530 OFFCURVE",
"180 497 OFFCURVE",
"143 441 CURVE",
"141 441 LINE",
"141 520 LINE",
"92 520 LINE",
"92 0 LINE"
);
}
);
width = 596;
}
);
leftKerningGroup = n;
leftMetricsKey = "=h";
rightKerningGroup = h;
rightMetricsKey = "=h";
unicode = 006E;
},
{
glyphname = eng;
lastChange = "2025-01-21 12:56:24 +0000";
layers = (
{
anchors = (
{
name = bottom;
position = "{300, 0}";
},
{
name = top;
position = "{300, 520}";
}
);
layerId = "D65C9A1E-0FCA-4B2D-8EDF-9F36CA9182A1";
paths = (
{
closed = 1;
nodes = (
"466 -211 OFFCURVE",
"509 -164 OFFCURVE",
"509 -61 CURVE SMOOTH",
"509 320 LINE SMOOTH",
"509 460 OFFCURVE",
"450 530 OFFCURVE",
"329 530 CURVE SMOOTH",
"234 530 OFFCURVE",
"157 487 OFFCURVE",
"121 412 CURVE",
"119 412 LINE",
"119 520 LINE",
"99 520 LINE",
"99 0 LINE",
"119 0 LINE",
"119 320 LINE SMOOTH",
"119 432 OFFCURVE",
"205 510 OFFCURVE",
"329 510 CURVE SMOOTH",
"438 510 OFFCURVE",
"489 449 OFFCURVE",
"489 320 CURVE SMOOTH",
"489 -61 LINE SMOOTH",
"489 -153 OFFCURVE",
"454 -191 OFFCURVE",
"369 -191 CURVE SMOOTH",
"344 -191 OFFCURVE",
"318 -186 OFFCURVE",
"296 -177 CURVE",
"290 -196 LINE",
"314 -205 OFFCURVE",
"342 -211 OFFCURVE",
"369 -211 CURVE SMOOTH"
);
}
);
width = 588;
},
{
anchors = (
{
name = bottom;
position = "{308, 0}";
},
{
name = top;
position = "{308, 520}";
}
);
layerId = "9527F797-22C1-480E-A1FE-2CDBEBE1FD4C";
paths = (
{
closed = 1;
nodes = (
"495 -221 OFFCURVE",
"547 -163 OFFCURVE",
"547 -26 CURVE SMOOTH",
"547 320 LINE SMOOTH",
"547 464 OFFCURVE",
"488 530 OFFCURVE",
"360 530 CURVE SMOOTH",
"282 530 OFFCURVE",
"224 506 OFFCURVE",
"183 458 CURVE",
"181 458 LINE",
"180 520 LINE",
"77 520 LINE",
"77 0 LINE",
"185 0 LINE",
"185 310 LINE SMOOTH",
"185 385 OFFCURVE",
"246 440 OFFCURVE",
"330 440 CURVE SMOOTH",
"405 440 OFFCURVE",
"439 396 OFFCURVE",
"439 300 CURVE SMOOTH",
"439 -26 LINE SMOOTH",
"439 -97 OFFCURVE",
"413 -126 OFFCURVE",
"349 -126 CURVE SMOOTH",
"324 -126 OFFCURVE",
"298 -122 OFFCURVE",
"274 -114 CURVE",
"259 -205 LINE",
"296 -216 OFFCURVE",
"334 -221 OFFCURVE",
"371 -221 CURVE SMOOTH"
);
}
);
width = 609;
},
{
anchors = (
{
name = bottom;
position = "{316, 0}";
},
{
name = top;
position = "{316, 520}";
}
);
layerId = "9E6B41AB-2970-4C41-8B35-4DBE0D296A43";
paths = (
{
closed = 1;
nodes = (
"529 -229 OFFCURVE",
"584 -169 OFFCURVE",
"584 0 CURVE SMOOTH",
"584 320 LINE SMOOTH",
"584 466 OFFCURVE",
"530 530 OFFCURVE",
"409 530 CURVE SMOOTH",
"339 530 OFFCURVE",
"290 509 OFFCURVE",
"244 460 CURVE",
"242 460 LINE",
"240 520 LINE",
"54 520 LINE",
"54 0 LINE",
"250 0 LINE",
"250 300 LINE SMOOTH",
"250 341 OFFCURVE",
"283 370 OFFCURVE",
"329 370 CURVE SMOOTH",
"371 370 OFFCURVE",
"388 345 OFFCURVE",
"388 280 CURVE SMOOTH",
"388 0 LINE SMOOTH",
"388 -54 OFFCURVE",
"375 -70 OFFCURVE",
"329 -70 CURVE SMOOTH",
"307 -70 OFFCURVE",
"274 -66 OFFCURVE",
"246 -59 CURVE",
"226 -214 LINE",
"274 -223 OFFCURVE",
"324 -229 OFFCURVE",
"372 -229 CURVE SMOOTH"
);
}
);
width = 627;
},
{
anchors = (
{
name = bottom;
position = "{303, 0}";
},
{
name = top;
position = "{303, 520}";
}
);
associatedMasterId = "D65C9A1E-0FCA-4B2D-8EDF-9F36CA9182A1";
layerId = "79FE56B5-3AAC-4AE6-A914-FF8F134DF163";
name = "{232}";
paths = (
{
closed = 1;
nodes = (
"476 -214 OFFCURVE",
"522 -164 OFFCURVE",
"522 -49 CURVE SMOOTH",
"522 320 LINE SMOOTH",
"522 461 OFFCURVE",
"467 530 OFFCURVE",
"354 530 CURVE SMOOTH",
"265 530 OFFCURVE",
"181 487 OFFCURVE",
"141 421 CURVE",
"139 421 LINE",
"139 520 LINE",
"92 520 LINE",
"92 0 LINE",
"141 0 LINE",
"141 282 LINE SMOOTH",
"141 394 OFFCURVE",
"233 487 OFFCURVE",
"344 487 CURVE SMOOTH",
"430 487 OFFCURVE",
"472 430 OFFCURVE",
"472 313 CURVE SMOOTH",
"472 -49 LINE SMOOTH",
"472 -135 OFFCURVE",
"440 -170 OFFCURVE",
"363 -170 CURVE SMOOTH",
"338 -170 OFFCURVE",
"312 -165 OFFCURVE",
"289 -156 CURVE",
"280 -199 LINE",
"309 -209 OFFCURVE",
"340 -214 OFFCURVE",
"370 -214 CURVE SMOOTH"
);
}
);
width = 596;
}
);
leftKerningGroup = n;
leftMetricsKey = "=h";
rightKerningGroup = g;
rightMetricsKey = "=h";
unicode = 014B;
},
{
glyphname = o;
lastChange = "2025-01-21 12:56:24 +0000";
layers = (
{
anchors = (
{
name = bottom;
position = "{290, 0}";
},
{
name = center;
position = "{290, 260}";
},
{
name = ogonek;
position = "{367, 0}";
},
{
name = top;
position = "{290, 520}";
},
{
name = topright;
position = "{416, 450}";
}
);
layerId = "D65C9A1E-0FCA-4B2D-8EDF-9F36CA9182A1";
paths = (
{
closed = 1;
nodes = (
"439 -10 OFFCURVE",
"530 92 OFFCURVE",
"530 260 CURVE SMOOTH",
"530 428 OFFCURVE",
"439 530 OFFCURVE",
"290 530 CURVE SMOOTH",
"141 530 OFFCURVE",
"50 428 OFFCURVE",
"50 260 CURVE SMOOTH",
"50 92 OFFCURVE",
"141 -10 OFFCURVE",
"290 -10 CURVE SMOOTH"
);
},
{
closed = 1;
nodes = (
"152 10 OFFCURVE",
"70 103 OFFCURVE",
"70 260 CURVE SMOOTH",
"70 417 OFFCURVE",
"152 510 OFFCURVE",
"290 510 CURVE SMOOTH",
"428 510 OFFCURVE",
"510 417 OFFCURVE",
"510 260 CURVE SMOOTH",
"510 103 OFFCURVE",
"428 10 OFFCURVE",
"290 10 CURVE SMOOTH"
);
}
);
width = 580;
},
{
anchors = (
{
name = bottom;
position = "{299, 0}";
},
{
name = center;
position = "{299, 260}";
},
{
name = ogonek;
position = "{385, 0}";
},
{
name = top;
position = "{299, 520}";
},
{
name = topright;
position = "{439, 452}";
}
);
layerId = "9527F797-22C1-480E-A1FE-2CDBEBE1FD4C";
paths = (
{
closed = 1;
nodes = (
"464 -10 OFFCURVE",
"559 88 OFFCURVE",
"559 260 CURVE SMOOTH",
"559 432 OFFCURVE",
"464 530 OFFCURVE",
"299 530 CURVE SMOOTH",
"134 530 OFFCURVE",
"39 432 OFFCURVE",
"39 260 CURVE SMOOTH",
"39 88 OFFCURVE",
"134 -10 OFFCURVE",
"299 -10 CURVE SMOOTH"
);
},
{
closed = 1;
nodes = (
"201 80 OFFCURVE",
"147 143 OFFCURVE",
"147 260 CURVE SMOOTH",
"147 377 OFFCURVE",
"201 440 OFFCURVE",
"299 440 CURVE SMOOTH",
"397 440 OFFCURVE",
"451 377 OFFCURVE",
"451 260 CURVE SMOOTH",
"451 143 OFFCURVE",
"397 80 OFFCURVE",
"299 80 CURVE SMOOTH"
);
}
);
width = 598;
},
{
anchors = (
{
name = bottom;
position = "{307, 0}";
},
{
name = center;
position = "{307, 260}";
},
{
name = ogonek;
position = "{443, 0}";
},
{
name = top;
position = "{307, 520}";
},
{
name = topright;
position = "{462, 454}";
}
);
layerId = "9E6B41AB-2970-4C41-8B35-4DBE0D296A43";
paths = (
{
closed = 1;
nodes = (
"489 -10 OFFCURVE",
"587 84 OFFCURVE",
"587 260 CURVE SMOOTH",
"587 436 OFFCURVE",
"489 530 OFFCURVE",
"307 530 CURVE SMOOTH",
"125 530 OFFCURVE",
"27 436 OFFCURVE",
"27 260 CURVE SMOOTH",
"27 84 OFFCURVE",
"125 -10 OFFCURVE",
"307 -10 CURVE SMOOTH"
);
},
{
closed = 1;
nodes = (
"249 130 OFFCURVE",
"223 170 OFFCURVE",
"223 260 CURVE SMOOTH",
"223 350 OFFCURVE",
"249 390 OFFCURVE",
"307 390 CURVE SMOOTH",
"365 390 OFFCURVE",
"391 350 OFFCURVE",
"391 260 CURVE SMOOTH",
"391 170 OFFCURVE",
"365 130 OFFCURVE",
"307 130 CURVE SMOOTH"
);
}
);
width = 614;
}
);
leftKerningGroup = o;
leftMetricsKey = "=h*.5";
rightKerningGroup = o;
rightMetricsKey = "=|";
unicode = 006F;
},
{
glyphname = oogonek;
lastChange = "2025-01-21 12:56:24 +0000";
layers = (
{
components = (
{
name = o;
}
);
layerId = "D65C9A1E-0FCA-4B2D-8EDF-9F36CA9182A1";
paths = (
{
closed = 1;
nodes = (
"322 -220 OFFCURVE",
"344 -214 OFFCURVE",
"362 -203 CURVE",
"354 -185 LINE",
"335 -195 OFFCURVE",
"316 -200 OFFCURVE",
"298 -200 CURVE SMOOTH",
"256 -200 OFFCURVE",
"235 -178 OFFCURVE",
"235 -135 CURVE SMOOTH",
"235 -79 OFFCURVE",
"280 -32 OFFCURVE",
"367 1 CURVE",
"346.703 11.59 LINE",
"259.675 -24.768 OFFCURVE",
"215 -74.405 OFFCURVE",
"215 -135 CURVE SMOOTH",
"215 -191 OFFCURVE",
"243 -220 OFFCURVE",
"298 -220 CURVE SMOOTH"
);
}
);
width = 580;
},
{
components = (
{
name = o;
}
);
layerId = "9527F797-22C1-480E-A1FE-2CDBEBE1FD4C";
paths = (
{
closed = 1;
nodes = (
"338 -217 OFFCURVE",
"364 -213 OFFCURVE",
"387 -205 CURVE",
"370 -120 LINE",
"357 -127 OFFCURVE",
"343 -130 OFFCURVE",
"328 -130 CURVE SMOOTH",
"303 -130 OFFCURVE",
"290 -117 OFFCURVE",
"290 -93 CURVE SMOOTH",
"290 -65 OFFCURVE",
"330 -29 OFFCURVE",
"398 4 CURVE",
"287.442 26.112 LINE",
"221.577 -16.511 OFFCURVE",
"188 -62.763 OFFCURVE",
"188 -112 CURVE SMOOTH",
"188 -179 OFFCURVE",
"232 -217 OFFCURVE",
"309 -217 CURVE SMOOTH"
);
}
);
width = 598;
},
{
components = (
{
name = o;
}
);
layerId = "9E6B41AB-2970-4C41-8B35-4DBE0D296A43";
paths = (
{
closed = 1;
nodes = (
"398 -220 OFFCURVE",
"422 -217 OFFCURVE",
"445 -210 CURVE",
"430 -75 LINE",
"415 -81 OFFCURVE",
"396 -85 OFFCURVE",
"382 -85 CURVE SMOOTH",
"355 -85 OFFCURVE",
"341 -75 OFFCURVE",
"341 -57 CURVE SMOOTH",
"341 -33 OFFCURVE",
"371 -12 OFFCURVE",
"433 10 CURVE",
"261.349 52.707 LINE",
"194.303 4.219 OFFCURVE",
"165 -34.12 OFFCURVE",
"165 -82 CURVE SMOOTH",
"165 -170 OFFCURVE",
"238 -220 OFFCURVE",
"370 -220 CURVE SMOOTH"
);
}
);
width = 614;
},
{
associatedMasterId = "D65C9A1E-0FCA-4B2D-8EDF-9F36CA9182A1";
components = (
{
name = o;
}
);
layerId = "5ECD02C9-763B-493F-AFF1-7A27DFE0B237";
name = "Apr 30 21, 10:19";
paths = (
{
closed = 1;
nodes = (
"322 -220 OFFCURVE",
"344 -214 OFFCURVE",
"362 -203 CURVE",
"354 -185 LINE",
"335 -195 OFFCURVE",
"316 -200 OFFCURVE",
"298 -200 CURVE SMOOTH",
"256 -200 OFFCURVE",
"235 -178 OFFCURVE",
"235 -135 CURVE SMOOTH",
"235 -79 OFFCURVE",
"280 -32 OFFCURVE",
"367 1 CURVE",
"351 9 LINE",
"371 21 LINE",
"268 -16 OFFCURVE",
"215 -69 OFFCURVE",
"215 -135 CURVE SMOOTH",
"215 -191 OFFCURVE",
"243 -220 OFFCURVE",
"298 -220 CURVE SMOOTH"
);
}
);
width = 580;
}
);
leftKerningGroup = o;
rightKerningGroup = o;
unicode = 01EB;
},
{
glyphname = oslash;
lastChange = "2025-01-21 12:56:24 +0000";
layers = (
{
anchors = (
{
name = bottom;
position = "{292, 0}";
},
{
name = center;
position = "{292, 260}";
},
{
name = ogonek;
position = "{339, 0}";
},
{
name = top;
position = "{292, 520}";
},
{
name = topright;
position = "{438, 480}";
}
);
components = (
{
name = o;
}
);
layerId = "D65C9A1E-0FCA-4B2D-8EDF-9F36CA9182A1";
paths = (
{
closed = 1;
nodes = (
"146 46 LINE",
"146 46 LINE",
"454 462 LINE",
"454 462 LINE",
"500 524 LINE",
"484 536 LINE",
"438 474 LINE",
"438 474 LINE",
"130 58 LINE",
"130 58 LINE",
"84 -4 LINE",
"100 -16 LINE"
);
}
);
width = 546;
},
{
anchors = (
{
name = bottom;
position = "{303, 0}";
},
{
name = center;
position = "{303, 260}";
},
{
name = ogonek;
position = "{369, 0}";
},
{
name = top;
position = "{303, 520}";
},
{
name = topright;
position = "{463, 482}";
}
);
components = (
{
name = o;
}
);
layerId = "9527F797-22C1-480E-A1FE-2CDBEBE1FD4C";
paths = (
{
closed = 1;
nodes = (
"186 35 LINE",
"186 35 LINE",
"484 437 LINE",
"484 437 LINE",
"535 506 LINE",
"471 554 LINE",
"420 485 LINE",
"420 485 LINE",
"122 83 LINE",
"122 83 LINE",
"71 14 LINE",
"135 -34 LINE"
);
}
);
width = 578;
},
{
anchors = (
{
name = bottom;
position = "{314, 0}";
},
{
name = center;
position = "{314, 260}";
},
{
name = ogonek;
position = "{400, 0}";
},
{
name = top;
position = "{314, 520}";
},
{
name = topright;
position = "{489, 484}";
}
);
components = (
{
name = o;
}
);
layerId = "9E6B41AB-2970-4C41-8B35-4DBE0D296A43";
paths = (
{
closed = 1;
nodes = (
"194 14 LINE",
"186 20 LINE",
"506 452 LINE",
"514 446 LINE",
"554 500 LINE",
"474 560 LINE",
"434 506 LINE",
"442 500 LINE",
"122 68 LINE",
"114 74 LINE",
"74 20 LINE",
"154 -40 LINE"
);
}
);
width = 610;
}
);
leftKerningGroup = o;
rightKerningGroup = o;
unicode = 00F8;
},
{
glyphname = oe;
lastChange = "2025-01-21 12:56:24 +0000";
layers = (
{
anchors = (
{
name = bottom;
position = "{516, 0}";
},
{
name = top;
position = "{516, 520}";
}
);
components = (
{
name = o;
}
);
layerId = "D65C9A1E-0FCA-4B2D-8EDF-9F36CA9182A1";
paths = (
{
closed = 1;
nodes = (
"826 -10 OFFCURVE",
"890 4 OFFCURVE",
"942 30 CURVE",
"933 48 LINE",
"884 24 OFFCURVE",
"824 10 OFFCURVE",
"764 10 CURVE SMOOTH",
"614 10 OFFCURVE",
"532 97 OFFCURVE",
"532 260 CURVE",
"532 260 LINE",
"532 418 OFFCURVE",
"612 510 OFFCURVE",
"747 510 CURVE SMOOTH",
"875 510 OFFCURVE",
"942 428 OFFCURVE",
"942 268 CURVE",
"952 278 LINE",
"522 278 LINE",
"522 258 LINE",
"962 258 LINE",
"962 263 OFFCURVE",
"962 263 OFFCURVE",
"962 268 CURVE SMOOTH",
"962 438 OFFCURVE",
"887 530 OFFCURVE",
"747 530 CURVE SMOOTH",
"600 530 OFFCURVE",
"512 428 OFFCURVE",
"512 260 CURVE SMOOTH",
"512 87 OFFCURVE",
"602 -10 OFFCURVE",
"764 -10 CURVE SMOOTH"
);
}
);
width = 1010;
},
{
anchors = (
{
name = bottom;
position = "{498, 0}";
},
{
name = top;
position = "{498, 520}";
}
);
components = (
{
name = o;
}
);
layerId = "9527F797-22C1-480E-A1FE-2CDBEBE1FD4C";
paths = (
{
closed = 1;
nodes = (
"801 -10 OFFCURVE",
"869 3 OFFCURVE",
"920 24 CURVE",
"906 111 LINE",
"857 92 OFFCURVE",
"788 80 OFFCURVE",
"732 80 CURVE SMOOTH",
"617 80 OFFCURVE",
"561 132 OFFCURVE",
"561 240 CURVE",
"561 270 LINE",
"561 382 OFFCURVE",
"612 442 OFFCURVE",
"708 442 CURVE SMOOTH",
"799 442 OFFCURVE",
"844 387 OFFCURVE",
"844 274 CURVE",
"861 300 LINE",
"515 300 LINE",
"515 215 LINE",
"943 215 LINE",
"944 227 OFFCURVE",
"945 251 OFFCURVE",
"945 269 CURVE SMOOTH",
"945 436 OFFCURVE",
"860 530 OFFCURVE",
"708 530 CURVE SMOOTH",
"550 530 OFFCURVE",
"455 428 OFFCURVE",
"455 260 CURVE SMOOTH",
"455 87 OFFCURVE",
"556 -10 OFFCURVE",
"736 -10 CURVE SMOOTH"
);
}
);
width = 982;
},
{
anchors = (
{
name = bottom;
position = "{477, 0}";
},
{
name = top;
position = "{477, 520}";
}
);
components = (
{
name = o;
}
);
layerId = "9E6B41AB-2970-4C41-8B35-4DBE0D296A43";
paths = (
{
closed = 1;
nodes = (
"775 -10 OFFCURVE",
"849 1 OFFCURVE",
"896 18 CURVE",
"876 158 LINE",
"829 142 OFFCURVE",
"755 130 OFFCURVE",
"698 130 CURVE SMOOTH",
"620 130 OFFCURVE",
"588 156 OFFCURVE",
"588 220 CURVE SMOOTH",
"588 280 LINE SMOOTH",
"588 367 OFFCURVE",
"612 405 OFFCURVE",
"666 405 CURVE SMOOTH",
"720 405 OFFCURVE",
"744 367 OFFCURVE",
"744 280 CURVE",
"767 315 LINE",
"506 315 LINE",
"506 200 LINE",
"922 200 LINE",
"924 211 OFFCURVE",
"926 246 OFFCURVE",
"926 270 CURVE SMOOTH",
"926 434 OFFCURVE",
"830 530 OFFCURVE",
"666 530 CURVE SMOOTH",
"498 530 OFFCURVE",
"396 428 OFFCURVE",
"396 260 CURVE SMOOTH",
"396 86 OFFCURVE",
"506 -10 OFFCURVE",
"706 -10 CURVE SMOOTH"
);
}
);
width = 952;
}
);
leftKerningGroup = o;
leftMetricsKey = "=o";
rightKerningGroup = o;
rightMetricsKey = "=e";
unicode = 0153;
},
{
glyphname = thorn;
lastChange = "2025-01-21 12:56:24 +0000";
layers = (
{
layerId = "D65C9A1E-0FCA-4B2D-8EDF-9F36CA9182A1";
paths = (
{
closed = 1;
nodes = (
"119 -240 LINE",
"119 120 LINE",
"121 120 LINE",
"155 39 OFFCURVE",
"226 -10 OFFCURVE",
"319 -10 CURVE SMOOTH",
"454 -10 OFFCURVE",
"533 91 OFFCURVE",
"533 260 CURVE SMOOTH",
"533 429 OFFCURVE",
"454 530 OFFCURVE",
"319 530 CURVE SMOOTH",
"226 530 OFFCURVE",
"155 481 OFFCURVE",
"121 400 CURVE",
"119 400 LINE",
"119 760 LINE",
"99 760 LINE",
"99 -240 LINE"
);
},
{
closed = 1;
nodes = (
"197 10 OFFCURVE",
"119 100 OFFCURVE",
"119 235 CURVE SMOOTH",
"119 285 LINE SMOOTH",
"119 420 OFFCURVE",
"197 510 OFFCURVE",
"319 510 CURVE SMOOTH",
"442 510 OFFCURVE",
"513 419 OFFCURVE",
"513 260 CURVE SMOOTH",
"513 101 OFFCURVE",
"442 10 OFFCURVE",
"319 10 CURVE SMOOTH"
);
}
);
width = 583;
},
{
layerId = "9527F797-22C1-480E-A1FE-2CDBEBE1FD4C";
paths = (
{
closed = 1;
nodes = (
"185 -240 LINE",
"185 68 LINE",
"187 68 LINE",
"228 16 OFFCURVE",
"283 -10 OFFCURVE",
"354 -10 CURVE SMOOTH",
"493 -10 OFFCURVE",
"574 89 OFFCURVE",
"574 260 CURVE SMOOTH",
"574 431 OFFCURVE",
"494 530 OFFCURVE",
"354 530 CURVE SMOOTH",
"283 530 OFFCURVE",
"228 504 OFFCURVE",
"187 452 CURVE",
"185 452 LINE",
"185 760 LINE",
"77 760 LINE",
"77 -240 LINE"
);
},
{
closed = 1;
nodes = (
"238 80 OFFCURVE",
"185 146 OFFCURVE",
"185 240 CURVE SMOOTH",
"185 280 LINE SMOOTH",
"185 374 OFFCURVE",
"238 440 OFFCURVE",
"327 440 CURVE SMOOTH",
"416 440 OFFCURVE",
"467 375 OFFCURVE",
"467 260 CURVE SMOOTH",
"467 145 OFFCURVE",
"416 80 OFFCURVE",
"327 80 CURVE SMOOTH"
);
}
);
width = 613;
},
{
layerId = "9E6B41AB-2970-4C41-8B35-4DBE0D296A43";
paths = (
{
closed = 1;
nodes = (
"250 -240 LINE",
"250 60 LINE",
"252 60 LINE",
"297 11 OFFCURVE",
"343 -10 OFFCURVE",
"405 -10 CURVE SMOOTH",
"538 -10 OFFCURVE",
"614 88 OFFCURVE",
"614 260 CURVE SMOOTH",
"614 432 OFFCURVE",
"538 530 OFFCURVE",
"405 530 CURVE SMOOTH",
"343 530 OFFCURVE",
"297 509 OFFCURVE",
"252 460 CURVE",
"250 460 LINE",
"250 760 LINE",
"54 760 LINE",
"54 -240 LINE"
);
},
{
closed = 1;
nodes = (
"276 140 OFFCURVE",
"250 177 OFFCURVE",
"250 240 CURVE SMOOTH",
"250 280 LINE SMOOTH",
"250 343 OFFCURVE",
"276 380 OFFCURVE",
"334 380 CURVE SMOOTH",
"394 380 OFFCURVE",
"422 341 OFFCURVE",
"422 260 CURVE SMOOTH",
"422 179 OFFCURVE",
"394 140 OFFCURVE",
"334 140 CURVE SMOOTH"
);
}
);
width = 641;
},
{
associatedMasterId = "D65C9A1E-0FCA-4B2D-8EDF-9F36CA9182A1";
layerId = "0BCAABAB-37FB-445D-B33E-60B4C38D96A8";
name = "{232}";
paths = (
{
closed = 1;
nodes = (
"141 -240 LINE",
"141 90 LINE",
"143 90 LINE",
"179 27 OFFCURVE",
"247 -10 OFFCURVE",
"331 -10 CURVE SMOOTH",
"469 -10 OFFCURVE",
"547 88 OFFCURVE",
"547 260 CURVE SMOOTH",
"547 432 OFFCURVE",
"469 530 OFFCURVE",
"331 530 CURVE SMOOTH",
"247 530 OFFCURVE",
"179 493 OFFCURVE",
"143 430 CURVE",
"141 430 LINE",
"141 760 LINE",
"92 760 LINE",
"92 -240 LINE"
);
},
{
closed = 1;
nodes = (
"211 33 OFFCURVE",
"141 115 OFFCURVE",
"141 237 CURVE SMOOTH",
"141 283 LINE SMOOTH",
"141 405 OFFCURVE",
"211 487 OFFCURVE",
"322 487 CURVE SMOOTH",
"433 487 OFFCURVE",
"498 404 OFFCURVE",
"498 260 CURVE SMOOTH",
"498 116 OFFCURVE",
"433 33 OFFCURVE",
"322 33 CURVE SMOOTH"
);
}
);
width = 593;
}
);
leftKerningGroup = b;
leftMetricsKey = "=b";
rightKerningGroup = o;
rightMetricsKey = "=b";
unicode = 00FE;
},
{
glyphname = q;
lastChange = "2025-01-21 12:56:24 +0000";
layers = (
{
layerId = "D65C9A1E-0FCA-4B2D-8EDF-9F36CA9182A1";
paths = (
{
closed = 1;
nodes = (
"490 -210 LINE",
"490 520 LINE",
"470 520 LINE",
"470 412 LINE",
"468 412 LINE",
"434 486 OFFCURVE",
"360 530 OFFCURVE",
"269 530 CURVE SMOOTH",
"131 530 OFFCURVE",
"50 430 OFFCURVE",
"50 260 CURVE SMOOTH",
"50 90 OFFCURVE",
"131 -10 OFFCURVE",
"269 -10 CURVE SMOOTH",
"360 -10 OFFCURVE",
"434 34 OFFCURVE",
"468 108 CURVE",
"470 108 LINE",
"470 -210 LINE"
);
},
{
closed = 1;
nodes = (
"143 10 OFFCURVE",
"70 100 OFFCURVE",
"70 260 CURVE SMOOTH",
"70 420 OFFCURVE",
"143 510 OFFCURVE",
"269 510 CURVE SMOOTH",
"387 510 OFFCURVE",
"470 432 OFFCURVE",
"470 320 CURVE SMOOTH",
"470 200 LINE SMOOTH",
"470 88 OFFCURVE",
"387 10 OFFCURVE",
"269 10 CURVE SMOOTH"
);
}
);
width = 589;
},
{
layerId = "9527F797-22C1-480E-A1FE-2CDBEBE1FD4C";
paths = (
{
closed = 1;
nodes = (
"539 -210 LINE",
"539 520 LINE",
"436 520 LINE",
"435 458 LINE",
"433 458 LINE",
"395 504 OFFCURVE",
"332 530 OFFCURVE",
"261 530 CURVE SMOOTH",
"122 530 OFFCURVE",
"39 429 OFFCURVE",
"39 260 CURVE SMOOTH",
"39 91 OFFCURVE",
"122 -10 OFFCURVE",
"261 -10 CURVE SMOOTH",
"331 -10 OFFCURVE",
"392 16 OFFCURVE",
"429 62 CURVE",
"431 62 LINE",
"431 -210 LINE"
);
},
{
closed = 1;
nodes = (
"196 80 OFFCURVE",
"145 145 OFFCURVE",
"145 260 CURVE SMOOTH",
"145 375 OFFCURVE",
"196 440 OFFCURVE",
"286 440 CURVE SMOOTH",
"369 440 OFFCURVE",
"431 384 OFFCURVE",
"431 309 CURVE SMOOTH",
"431 211 LINE SMOOTH",
"431 136 OFFCURVE",
"369 80 OFFCURVE",
"286 80 CURVE SMOOTH"
);
}
);
width = 616;
},
{
layerId = "9E6B41AB-2970-4C41-8B35-4DBE0D296A43";
paths = (
{
closed = 1;
nodes = (
"587 -210 LINE",
"587 520 LINE",
"401 520 LINE",
"399 460 LINE",
"397 460 LINE",
"348 509 OFFCURVE",
"300 530 OFFCURVE",
"236 530 CURVE SMOOTH",
"101 530 OFFCURVE",
"27 435 OFFCURVE",
"27 260 CURVE SMOOTH",
"27 85 OFFCURVE",
"101 -10 OFFCURVE",
"236 -10 CURVE SMOOTH",
"298 -10 OFFCURVE",
"341 10 OFFCURVE",
"389 60 CURVE",
"391 60 LINE",
"391 -210 LINE"
);
},
{
closed = 1;
nodes = (
"250 140 OFFCURVE",
"219 182 OFFCURVE",
"219 260 CURVE SMOOTH",
"219 338 OFFCURVE",
"250 380 OFFCURVE",
"307 380 CURVE SMOOTH",
"357 380 OFFCURVE",
"391 348 OFFCURVE",
"391 300 CURVE SMOOTH",
"391 220 LINE SMOOTH",
"391 172 OFFCURVE",
"357 140 OFFCURVE",
"307 140 CURVE SMOOTH"
);
}
);
width = 641;
},
{
associatedMasterId = "D65C9A1E-0FCA-4B2D-8EDF-9F36CA9182A1";
layerId = "3D84F023-FBE7-4969-BDA9-8AD3C0F95158";
name = "{232}";
paths = (
{
closed = 1;
nodes = (
"506 -210 LINE",
"506 520 LINE",
"459 520 LINE",
"459 441 LINE",
"457 441 LINE",
"422 495 OFFCURVE",
"347 530 OFFCURVE",
"266 530 CURVE SMOOTH",
"128 530 OFFCURVE",
"46 430 OFFCURVE",
"46 260 CURVE SMOOTH",
"46 90 OFFCURVE",
"128 -10 OFFCURVE",
"266 -10 CURVE SMOOTH",
"347 -10 OFFCURVE",
"421 25 OFFCURVE",
"455 79 CURVE",
"457 79 LINE",
"457 -210 LINE"
);
},
{
closed = 1;
nodes = (
"161 33 OFFCURVE",
"95 115 OFFCURVE",
"95 260 CURVE SMOOTH",
"95 405 OFFCURVE",
"161 487 OFFCURVE",
"275 487 CURVE SMOOTH",
"381 487 OFFCURVE",
"457 416 OFFCURVE",
"457 316 CURVE SMOOTH",
"457 204 LINE SMOOTH",
"457 104 OFFCURVE",
"381 33 OFFCURVE",
"275 33 CURVE SMOOTH"
);
}
);
width = 598;
}
);
leftKerningGroup = o;
rightKerningGroup = u;
unicode = 0071;
},
{
glyphname = r;
lastChange = "2025-01-21 12:56:24 +0000";
layers = (
{
anchors = (
{
name = bottom;
position = "{109, 0}";
},
{
name = top;
position = "{215, 520}";
}
);
layerId = "D65C9A1E-0FCA-4B2D-8EDF-9F36CA9182A1";
rightMetricsKey = "=|*.2";
paths = (
{
closed = 1;
nodes = (
"119 0 LINE",
"119 280 LINE SMOOTH",
"119 408 OFFCURVE",
"230 510 OFFCURVE",
"369 510 CURVE",
"369 530 LINE",
"258 530 OFFCURVE",
"159 466 OFFCURVE",
"121 370 CURVE",
"119 370 LINE",
"119 520 LINE",
"99 520 LINE",
"99 0 LINE"
);
}
);
width = 389;
},
{
anchors = (
{
name = bottom;
position = "{128, 0}";
},
{
name = top;
position = "{233, 520}";
}
);
layerId = "9527F797-22C1-480E-A1FE-2CDBEBE1FD4C";
rightMetricsKey = "=|*.25";
paths = (
{
closed = 1;
nodes = (
"186 0 LINE",
"186 250 LINE SMOOTH",
"186 353 OFFCURVE",
"289 435 OFFCURVE",
"417 435 CURVE",
"417 530 LINE",
"320 530 OFFCURVE",
"233 489 OFFCURVE",
"184 420 CURVE",
"182 420 LINE",
"181 520 LINE",
"77 520 LINE",
"77 0 LINE"
);
}
);
width = 436;
},
{
anchors = (
{
name = bottom;
position = "{119, 0}";
},
{
name = top;
position = "{235, 520}";
}
);
associatedMasterId = "D65C9A1E-0FCA-4B2D-8EDF-9F36CA9182A1";
layerId = "657C252B-5EEF-4E2C-9A2A-557819CBA416";
rightMetricsKey = "=|*.2";
name = "{232}";
paths = (
{
closed = 1;
nodes = (
"141 0 LINE",
"141 270 LINE SMOOTH",
"141 390 OFFCURVE",
"249 485 OFFCURVE",
"385 485 CURVE",
"385 530 LINE",
"279 530 OFFCURVE",
"183 479 OFFCURVE",
"142 402 CURVE",
"140 402 LINE",
"140 520 LINE",
"92 520 LINE",
"92 0 LINE"
);
}
);
width = 403;
},
{
anchors = (
{
name = bottom;
position = "{156, 0}";
},
{
name = top;
position = "{245, 520}";
}
);
layerId = "9E6B41AB-2970-4C41-8B35-4DBE0D296A43";
rightMetricsKey = "=|*.3";
paths = (
{
closed = 1;
nodes = (
"252 0 LINE",
"252 220 LINE SMOOTH",
"252 303 OFFCURVE",
"347 370 OFFCURVE",
"464 370 CURVE",
"464 530 LINE",
"381 530 OFFCURVE",
"306 496 OFFCURVE",
"246 430 CURVE",
"244 430 LINE",
"242 520 LINE",
"54 520 LINE",
"54 0 LINE"
);
}
);
width = 480;
}
);
leftKerningGroup = n;
leftMetricsKey = "=n";
rightKerningGroup = r;
rightMetricsKey = "=|*.3";
unicode = 0072;
},
{
glyphname = s;
lastChange = "2025-01-21 12:56:24 +0000";
layers = (
{
anchors = (
{
name = bottom;
position = "{234, 0}";
},
{
name = cedi;
position = "{186, -1}";
},
{
name = top;
position = "{234, 520}";
}
);
layerId = "D65C9A1E-0FCA-4B2D-8EDF-9F36CA9182A1";
paths = (
{
closed = 1;
nodes = (
"349 -10 OFFCURVE",
"420 42 OFFCURVE",
"419 130 CURVE SMOOTH",
"419 235 OFFCURVE",
"321 259 OFFCURVE",
"232 281 CURVE SMOOTH",
"146 302 OFFCURVE",
"69 320 OFFCURVE",
"69 400 CURVE SMOOTH",
"70 471 OFFCURVE",
"129 510 OFFCURVE",
"240 510 CURVE SMOOTH",
"298 510 OFFCURVE",
"358 499 OFFCURVE",
"394 481 CURVE",
"403 499 LINE",
"363 518 OFFCURVE",
"300 530 OFFCURVE",
"240 530 CURVE SMOOTH",
"119 530 OFFCURVE",
"50 483 OFFCURVE",
"50 400 CURVE SMOOTH",
"50 305 OFFCURVE",
"142 282 OFFCURVE",
"228 261 CURVE SMOOTH",
"317 240 OFFCURVE",
"400 219 OFFCURVE",
"400 130 CURVE SMOOTH",
"400 53 OFFCURVE",
"339 10 OFFCURVE",
"230 10 CURVE SMOOTH",
"169 10 OFFCURVE",
"103 24 OFFCURVE",
"60 44 CURVE",
"51 26 LINE",
"97 4 OFFCURVE",
"167 -10 OFFCURVE",
"230 -10 CURVE SMOOTH"
);
}
);
width = 469;
},
{
anchors = (
{
name = bottom;
position = "{262, 0}";
},
{
name = cedi;
position = "{186, 0}";
},
{
name = top;
position = "{262, 520}";
}
);
layerId = "9E6B41AB-2970-4C41-8B35-4DBE0D296A43";
paths = (
{
closed = 1;
nodes = (
"402 -10 OFFCURVE",
"497 56 OFFCURVE",
"497 155 CURVE SMOOTH",
"497 240 OFFCURVE",
"426 298 OFFCURVE",
"282 331 CURVE SMOOTH",
"239 341 OFFCURVE",
"227 348 OFFCURVE",
"227 365 CURVE SMOOTH",
"227 383 OFFCURVE",
"244 390 OFFCURVE",
"287 390 CURVE SMOOTH",
"336 390 OFFCURVE",
"388 381 OFFCURVE",
"459 359 CURVE",
"479 499 LINE",
"406 519 OFFCURVE",
"327 530 OFFCURVE",
"260 530 CURVE SMOOTH",
"107 530 OFFCURVE",
"27 475 OFFCURVE",
"27 370 CURVE SMOOTH",
"27 281 OFFCURVE",
"96 227 OFFCURVE",
"243 191 CURVE SMOOTH",
"288 181 OFFCURVE",
"297 175 OFFCURVE",
"297 159 CURVE SMOOTH",
"297 137 OFFCURVE",
"283 130 OFFCURVE",
"238 130 CURVE SMOOTH",
"181 130 OFFCURVE",
"124 141 OFFCURVE",
"51 167 CURVE",
"31 27 LINE",
"88 6 OFFCURVE",
"189 -10 OFFCURVE",
"260 -10 CURVE SMOOTH"
);
}
);
width = 524;
},
{
anchors = (
{
name = bottom;
position = "{249, 0}";
},
{
name = cedi;
position = "{186, 0}";
},
{
name = top;
position = "{249, 520}";
}
);
layerId = "9527F797-22C1-480E-A1FE-2CDBEBE1FD4C";
paths = (
{
closed = 1;
nodes = (
"379 -10 OFFCURVE",
"459 47 OFFCURVE",
"459 143 CURVE SMOOTH",
"459 241 OFFCURVE",
"375 283 OFFCURVE",
"258 311 CURVE SMOOTH",
"171 331 OFFCURVE",
"148 348 OFFCURVE",
"148 382 CURVE SMOOTH",
"148 421 OFFCURVE",
"185 440 OFFCURVE",
"264 440 CURVE SMOOTH",
"318 440 OFFCURVE",
"372 431 OFFCURVE",
"426 411 CURVE",
"442 499 LINE",
"386 519 OFFCURVE",
"315 530 OFFCURVE",
"251 530 CURVE SMOOTH",
"114 530 OFFCURVE",
"39 479 OFFCURVE",
"39 385 CURVE SMOOTH",
"39 290 OFFCURVE",
"115 250 OFFCURVE",
"236 221 CURVE SMOOTH",
"324 200 OFFCURVE",
"350 183 OFFCURVE",
"350 146 CURVE SMOOTH",
"350 102 OFFCURVE",
"312 80 OFFCURVE",
"235 80 CURVE SMOOTH",
"176 80 OFFCURVE",
"115 93 OFFCURVE",
"57 115 CURVE",
"42 27 LINE",
"93 5 OFFCURVE",
"176 -10 OFFCURVE",
"246 -10 CURVE SMOOTH"
);
}
);
width = 498;
}
);
leftKerningGroup = s;
leftMetricsKey = "=h*.5";
rightKerningGroup = s;
rightMetricsKey = "=|";
unicode = 0073;
},
{
glyphname = germandbls;
lastChange = "2025-01-21 12:56:24 +0000";
layers = (
{
layerId = "D65C9A1E-0FCA-4B2D-8EDF-9F36CA9182A1";
rightMetricsKey = "=X*.7";
paths = (
{
closed = 1;
nodes = (
"465 -10 OFFCURVE",
"539 57 OFFCURVE",
"539 160 CURVE SMOOTH",
"539 224 OFFCURVE",
"514 264 OFFCURVE",
"411 360 CURVE SMOOTH",
"369 400 OFFCURVE",
"359 411 OFFCURVE",
"359 420 CURVE SMOOTH",
"359 427 OFFCURVE",
"365 436 OFFCURVE",
"398 473 CURVE SMOOTH",
"459 540 OFFCURVE",
"479 574 OFFCURVE",
"479 620 CURVE SMOOTH",
"479 712 OFFCURVE",
"421 760 OFFCURVE",
"309 760 CURVE SMOOTH",
"171 760 OFFCURVE",
"99 683 OFFCURVE",
"99 535 CURVE SMOOTH",
"99 0 LINE",
"119 0 LINE",
"119 535 LINE SMOOTH",
"119 670 OFFCURVE",
"184 740 OFFCURVE",
"309 740 CURVE SMOOTH",
"408 740 OFFCURVE",
"459 699 OFFCURVE",
"459 620 CURVE SMOOTH",
"459 580 OFFCURVE",
"442 550 OFFCURVE",
"383 486 CURVE SMOOTH",
"353 453 OFFCURVE",
"339 436 OFFCURVE",
"339 420 CURVE SMOOTH",
"339 401 OFFCURVE",
"357 383 OFFCURVE",
"397 345 CURVE SMOOTH",
"495 252 OFFCURVE",
"519 218 OFFCURVE",
"519 160 CURVE SMOOTH",
"519 69 OFFCURVE",
"455 10 OFFCURVE",
"354 10 CURVE SMOOTH",
"312 10 OFFCURVE",
"248 20 OFFCURVE",
"197 35 CURVE",
"191 15 LINE",
"246 0 OFFCURVE",
"310 -10 OFFCURVE",
"354 -10 CURVE SMOOTH"
);
}
);
width = 590;
},
{
layerId = "9527F797-22C1-480E-A1FE-2CDBEBE1FD4C";
rightMetricsKey = "=X*.9";
paths = (
{
closed = 1;
nodes = (
"496 -10 OFFCURVE",
"569 51 OFFCURVE",
"569 153 CURVE SMOOTH",
"569 209 OFFCURVE",
"547 252 OFFCURVE",
"475 329 CURVE SMOOTH",
"429 378 OFFCURVE",
"419 391 OFFCURVE",
"419 403 CURVE SMOOTH",
"419 412 OFFCURVE",
"431 426 OFFCURVE",
"463 469 CURVE SMOOTH",
"508 528 OFFCURVE",
"514 560 OFFCURVE",
"514 595 CURVE SMOOTH",
"514 703 OFFCURVE",
"443 760 OFFCURVE",
"308 760 CURVE SMOOTH",
"156 760 OFFCURVE",
"77 674 OFFCURVE",
"77 508 CURVE SMOOTH",
"77 0 LINE",
"185 0 LINE",
"185 507 LINE SMOOTH",
"185 611 OFFCURVE",
"229 665 OFFCURVE",
"313 665 CURVE SMOOTH",
"375 665 OFFCURVE",
"408 639 OFFCURVE",
"408 589 CURVE SMOOTH",
"408 567 OFFCURVE",
"401 541 OFFCURVE",
"358 489 CURVE SMOOTH",
"319 440 OFFCURVE",
"308 420 OFFCURVE",
"308 398 CURVE SMOOTH",
"308 372 OFFCURVE",
"324 345 OFFCURVE",
"366 300 CURVE SMOOTH",
"448 214 OFFCURVE",
"463 193 OFFCURVE",
"463 164 CURVE SMOOTH",
"463 116 OFFCURVE",
"422 85 OFFCURVE",
"358 85 CURVE SMOOTH",
"329 85 OFFCURVE",
"291 92 OFFCURVE",
"255 103 CURVE",
"240 8 LINE",
"288 -4 OFFCURVE",
"337 -10 OFFCURVE",
"375 -10 CURVE SMOOTH"
);
}
);
width = 610;
},
{
layerId = "9E6B41AB-2970-4C41-8B35-4DBE0D296A43";
rightMetricsKey = "=X*1.1";
paths = (
{
closed = 1;
nodes = (
"524 -10 OFFCURVE",
"599 47 OFFCURVE",
"599 145 CURVE SMOOTH",
"599 192 OFFCURVE",
"582 232 OFFCURVE",
"539 288 CURVE SMOOTH",
"508 327 OFFCURVE",
"485 365 OFFCURVE",
"485 377 CURVE SMOOTH",
"485 386 OFFCURVE",
"497 407 OFFCURVE",
"535 465 CURVE SMOOTH",
"563 508 OFFCURVE",
"565 541 OFFCURVE",
"565 570 CURVE SMOOTH",
"565 689 OFFCURVE",
"472 760 OFFCURVE",
"314 760 CURVE SMOOTH",
"151 760 OFFCURVE",
"54 671 OFFCURVE",
"54 520 CURVE SMOOTH",
"54 0 LINE",
"250 0 LINE",
"250 513 LINE SMOOTH",
"250 568 OFFCURVE",
"277 600 OFFCURVE",
"322 600 CURVE SMOOTH",
"355 600 OFFCURVE",
"375 581 OFFCURVE",
"375 548 CURVE SMOOTH",
"375 531 OFFCURVE",
"368 500 OFFCURVE",
"347 474 CURVE SMOOTH",
"308 425 OFFCURVE",
"295 400 OFFCURVE",
"295 375 CURVE SMOOTH",
"295 351 OFFCURVE",
"307 330 OFFCURVE",
"349 274 CURVE SMOOTH",
"391 218 OFFCURVE",
"403 196 OFFCURVE",
"403 177 CURVE SMOOTH",
"403 156 OFFCURVE",
"388 145 OFFCURVE",
"360 145 CURVE SMOOTH",
"346 145 OFFCURVE",
"326 148 OFFCURVE",
"300 155 CURVE",
"290 0 LINE",
"334 -7 OFFCURVE",
"366 -10 OFFCURVE",
"395 -10 CURVE SMOOTH"
);
}
);
width = 628;
}
);
leftKerningGroup = h;
leftMetricsKey = "=b";
rightKerningGroup = X;
rightMetricsKey = "=X*1.1";
unicode = 00DF;
},
{
glyphname = t;
lastChange = "2025-01-21 12:56:24 +0000";
layers = (
{
anchors = (
{
name = bottom;
position = "{281, 0}";
},
{
name = cedi;
position = "{227, 0}";
},
{
name = center;
position = "{241, 260}";
},
{
name = top;
position = "{241, 520}";
},
{
name = topright;
position = "{460, 520}";
}
);
layerId = "9527F797-22C1-480E-A1FE-2CDBEBE1FD4C";
rightMetricsKey = "=c*.8";
paths = (
{
closed = 1;
nodes = (
"347 -10 OFFCURVE",
"385 -5 OFFCURVE",
"428 8 CURVE",
"418 100 LINE",
"392 91 OFFCURVE",
"360 85 OFFCURVE",
"329 85 CURVE SMOOTH",
"267 85 OFFCURVE",
"247 109 OFFCURVE",
"247 180 CURVE SMOOTH",
"247 430 LINE",
"428 430 LINE",
"428 520 LINE",
"247 520 LINE",
"247 690 LINE",
"138 690 LINE",
"138 520 LINE",
"18 520 LINE",
"18 430 LINE",
"138 430 LINE",
"138 150 LINE SMOOTH",
"138 36 OFFCURVE",
"187 -10 OFFCURVE",
"307 -10 CURVE SMOOTH"
);
}
);
width = 478;
},
{
anchors = (
{
name = bottom;
position = "{273, 0}";
},
{
name = cedi;
position = "{206, 0}";
},
{
name = center;
position = "{253, 260}";
},
{
name = top;
position = "{253, 520}";
},
{
name = topright;
position = "{505, 520}";
}
);
layerId = "9E6B41AB-2970-4C41-8B35-4DBE0D296A43";
leftMetricsKey = "=f*.8";
rightMetricsKey = "=c*1";
paths = (
{
closed = 1;
nodes = (
"354 -10 OFFCURVE",
"396 -4 OFFCURVE",
"450 10 CURVE",
"435 155 LINE",
"408 146 OFFCURVE",
"373 140 OFFCURVE",
"350 140 CURVE SMOOTH",
"317 140 OFFCURVE",
"308 153 OFFCURVE",
"308 200 CURVE SMOOTH",
"308 380 LINE",
"453 380 LINE",
"453 520 LINE",
"308 520 LINE",
"308 690 LINE",
"110 690 LINE",
"110 520 LINE",
"13 520 LINE",
"13 380 LINE",
"110 380 LINE",
"110 160 LINE SMOOTH",
"110 39 OFFCURVE",
"168 -10 OFFCURVE",
"305 -10 CURVE SMOOTH"
);
}
);
width = 496;
},
{
anchors = (
{
name = bottom;
position = "{296, 0}";
},
{
name = cedi;
position = "{255, 0}";
},
{
name = center;
position = "{246, 260}";
},
{
name = top;
position = "{246, 520}";
},
{
name = topright;
position = "{433, 520}";
}
);
layerId = "D65C9A1E-0FCA-4B2D-8EDF-9F36CA9182A1";
leftMetricsKey = "=f*1.4";
rightMetricsKey = "=c*.6";
paths = (
{
closed = 1;
nodes = (
"358 -10 OFFCURVE",
"389 -6 OFFCURVE",
"422 5 CURVE",
"416 24 LINE",
"387 14 OFFCURVE",
"359 10 OFFCURVE",
"326 10 CURVE SMOOTH",
"234 10 OFFCURVE",
"203 43 OFFCURVE",
"203 140 CURVE SMOOTH",
"203 500 LINE",
"419 500 LINE",
"419 520 LINE",
"203 520 LINE",
"203 690 LINE",
"183 690 LINE",
"183 520 LINE",
"42 520 LINE",
"42 500 LINE",
"183 500 LINE",
"183 140 LINE SMOOTH",
"183 32 OFFCURVE",
"223 -10 OFFCURVE",
"326 -10 CURVE SMOOTH"
);
}
);
width = 469;
}
);
leftKerningGroup = f;
leftMetricsKey = "=f*.8";
rightKerningGroup = c;
rightMetricsKey = "=c*1.2";
unicode = 0074;
},
{
glyphname = tbar;
lastChange = "2025-01-21 12:56:24 +0000";
layers = (
{
components = (
{
name = t;
}
);
layerId = "D65C9A1E-0FCA-4B2D-8EDF-9F36CA9182A1";
paths = (
{
closed = 1;
nodes = (
"422 258 LINE",
"422 278 LINE",
"42 278 LINE",
"42 258 LINE"
);
}
);
width = 421;
},
{
components = (
{
alignment = -1;
name = t;
}
);
layerId = "9527F797-22C1-480E-A1FE-2CDBEBE1FD4C";
paths = (
{
closed = 1;
nodes = (
"428 220 LINE",
"428 310 LINE",
"18 310 LINE",
"18 220 LINE"
);
}
);
width = 473;
},
{
components = (
{
name = t;
}
);
layerId = "9E6B41AB-2970-4C41-8B35-4DBE0D296A43";
paths = (
{
closed = 1;
nodes = (
"453 192 LINE",
"453 332 LINE",
"13 332 LINE",
"13 192 LINE"
);
}
);
width = 525;
}
);
leftKerningGroup = f;
rightKerningGroup = c;
unicode = 0167;
},
{
glyphname = u;
lastChange = "2025-01-21 12:56:24 +0000";
layers = (
{
anchors = (
{
name = bottom;
position = "{283, 0}";
},
{
name = ogonek;
position = "{479, 0}";
},
{
name = top;
position = "{283, 520}";
},
{
name = top_ring;
position = "{283, 540}";
},
{
name = topright;
position = "{459, 480}";
}
);
layerId = "D65C9A1E-0FCA-4B2D-8EDF-9F36CA9182A1";
paths = (
{
closed = 1;
nodes = (
"347 -10 OFFCURVE",
"421 33 OFFCURVE",
"457 108 CURVE",
"459 108 LINE",
"459 0 LINE",
"479 0 LINE",
"479 520 LINE",
"459 520 LINE",
"459 200 LINE SMOOTH",
"459 88 OFFCURVE",
"375 10 OFFCURVE",
"254 10 CURVE SMOOTH",
"149 10 OFFCURVE",
"99 70 OFFCURVE",
"99 200 CURVE SMOOTH",
"99 520 LINE",
"79 520 LINE",
"79 200 LINE SMOOTH",
"79 59 OFFCURVE",
"137 -10 OFFCURVE",
"254 -10 CURVE SMOOTH"
);
}
);
width = 578;
},
{
anchors = (
{
name = bottom;
position = "{296, 0}";
},
{
name = ogonek;
position = "{522, 0}";
},
{
name = top;
position = "{296, 520}";
},
{
name = top_ring;
position = "{296, 540}";
},
{
name = topright;
position = "{457, 480}";
}
);
layerId = "9527F797-22C1-480E-A1FE-2CDBEBE1FD4C";
paths = (
{
closed = 1;
nodes = (
"320 -10 OFFCURVE",
"375 14 OFFCURVE",
"416 62 CURVE",
"418 62 LINE",
"419 0 LINE",
"522 0 LINE",
"522 520 LINE",
"414 520 LINE",
"414 210 LINE SMOOTH",
"414 135 OFFCURVE",
"355 80 OFFCURVE",
"274 80 CURVE SMOOTH",
"202 80 OFFCURVE",
"170 124 OFFCURVE",
"170 220 CURVE SMOOTH",
"170 520 LINE",
"62 520 LINE",
"62 200 LINE SMOOTH",
"62 56 OFFCURVE",
"119 -10 OFFCURVE",
"244 -10 CURVE SMOOTH"
);
}
);
width = 599;
},
{
anchors = (
{
name = bottom;
position = "{306, 0}";
},
{
name = ogonek;
position = "{563, 0}";
},
{
name = top;
position = "{306, 520}";
},
{
name = top_ring;
position = "{306, 540}";
},
{
name = topright;
position = "{473, 480}";
}
);
layerId = "9E6B41AB-2970-4C41-8B35-4DBE0D296A43";
paths = (
{
closed = 1;
nodes = (
"280 -10 OFFCURVE",
"328 11 OFFCURVE",
"373 60 CURVE",
"375 60 LINE",
"377 0 LINE",
"563 0 LINE",
"563 520 LINE",
"367 520 LINE",
"367 220 LINE SMOOTH",
"367 180 OFFCURVE",
"336 150 OFFCURVE",
"293 150 CURVE SMOOTH",
"254 150 OFFCURVE",
"239 175 OFFCURVE",
"239 240 CURVE SMOOTH",
"239 520 LINE",
"43 520 LINE",
"43 200 LINE SMOOTH",
"43 54 OFFCURVE",
"95 -10 OFFCURVE",
"213 -10 CURVE SMOOTH"
);
}
);
width = 617;
},
{
anchors = (
{
name = bottom;
position = "{288, 0}";
},
{
name = ogonek;
position = "{493, 0}";
},
{
name = top;
position = "{288, 520}";
},
{
name = top_ring;
position = "{288, 540}";
},
{
name = topright;
position = "{449, 480}";
}
);
associatedMasterId = "D65C9A1E-0FCA-4B2D-8EDF-9F36CA9182A1";
layerId = "245D3822-9188-491B-8A3B-367571E408B0";
name = "{232}";
paths = (
{
closed = 1;
nodes = (
"336 -10 OFFCURVE",
"406 23 OFFCURVE",
"443 79 CURVE",
"445 79 LINE",
"445 0 LINE",
"494 0 LINE",
"494 520 LINE",
"445 520 LINE",
"445 204 LINE SMOOTH",
"445 104 OFFCURVE",
"369 33 OFFCURVE",
"261 33 CURVE SMOOTH",
"167 33 OFFCURVE",
"123 88 OFFCURVE",
"123 207 CURVE SMOOTH",
"123 520 LINE",
"74 520 LINE",
"74 200 LINE SMOOTH",
"74 57 OFFCURVE",
"130 -10 OFFCURVE",
"251 -10 CURVE SMOOTH"
);
}
);
width = 586;
}
);
leftKerningGroup = u;
leftMetricsKey = "=|n";
rightKerningGroup = u;
rightMetricsKey = "=|n";
unicode = 0075;
},
{
glyphname = v;
lastChange = "2025-01-21 12:56:24 +0000";
layers = (
{
layerId = "D65C9A1E-0FCA-4B2D-8EDF-9F36CA9182A1";
paths = (
{
closed = 1;
nodes = (
"266 0 LINE",
"486 520 LINE",
"464 520 LINE",
"252 17 LINE",
"250 17 LINE",
"38 520 LINE",
"16 520 LINE",
"236 0 LINE"
);
}
);
width = 502;
},
{
layerId = "9527F797-22C1-480E-A1FE-2CDBEBE1FD4C";
paths = (
{
closed = 1;
nodes = (
"345 0 LINE",
"529 520 LINE",
"411 520 LINE",
"270 78 LINE",
"268 78 LINE",
"127 520 LINE",
"9 520 LINE",
"193 0 LINE"
);
}
);
width = 538;
},
{
layerId = "9E6B41AB-2970-4C41-8B35-4DBE0D296A43";
paths = (
{
closed = 1;
nodes = (
"426 0 LINE",
"574 520 LINE",
"372 520 LINE",
"290 120 LINE",
"288 120 LINE",
"206 520 LINE",
"4 520 LINE",
"152 0 LINE"
);
}
);
width = 578;
}
);
leftKerningGroup = v;
leftMetricsKey = "=|k*.4";
rightKerningGroup = v;
rightMetricsKey = "=|";
unicode = 0076;
},
{
glyphname = w;
lastChange = "2025-01-21 12:56:24 +0000";
layers = (
{
anchors = (
{
name = bottom;
position = "{372, 0}";
},
{
name = top;
position = "{372, 520}";
}
);
layerId = "D65C9A1E-0FCA-4B2D-8EDF-9F36CA9182A1";
leftMetricsKey = "=v*2";
paths = (
{
closed = 1;
nodes = (
"222 0 LINE",
"371 499 LINE",
"373 499 LINE",
"522 0 LINE",
"552 0 LINE",
"712 520 LINE",
"691 520 LINE",
"538 21 LINE",
"536 21 LINE",
"387 520 LINE",
"357 520 LINE",
"208 21 LINE",
"206 21 LINE",
"53 520 LINE",
"32 520 LINE",
"192 0 LINE"
);
}
);
width = 744;
},
{
anchors = (
{
name = bottom;
position = "{392, 0}";
},
{
name = top;
position = "{392, 520}";
}
);
layerId = "9527F797-22C1-480E-A1FE-2CDBEBE1FD4C";
leftMetricsKey = "=v*2.4";
paths = (
{
closed = 1;
nodes = (
"302 0 LINE",
"391 405 LINE",
"393 405 LINE",
"482 0 LINE",
"622 0 LINE",
"762 520 LINE",
"644 520 LINE",
"556 105 LINE",
"554 105 LINE",
"465 520 LINE",
"319 520 LINE",
"230 105 LINE",
"228 105 LINE",
"140 520 LINE",
"22 520 LINE",
"162 0 LINE"
);
}
);
width = 784;
},
{
anchors = (
{
name = bottom;
position = "{411, 0}";
},
{
name = top;
position = "{411, 520}";
}
);
layerId = "9E6B41AB-2970-4C41-8B35-4DBE0D296A43";
leftMetricsKey = "=v*2.8";
paths = (
{
closed = 1;
nodes = (
"366 0 LINE",
"410 350 LINE",
"412 350 LINE",
"456 0 LINE",
"691 0 LINE",
"811 520 LINE",
"617 520 LINE",
"577 170 LINE",
"575 170 LINE",
"529 520 LINE",
"293 520 LINE",
"247 170 LINE",
"245 170 LINE",
"205 520 LINE",
"11 520 LINE",
"131 0 LINE"
);
}
);
width = 822;
}
);
leftKerningGroup = v;
leftMetricsKey = "=v*2.8";
rightKerningGroup = v;
rightMetricsKey = "=|";
unicode = 0077;
},
{
glyphname = x;
lastChange = "2025-01-21 12:56:24 +0000";
layers = (
{
layerId = "D65C9A1E-0FCA-4B2D-8EDF-9F36CA9182A1";
leftMetricsKey = "=|k";
paths = (
{
closed = 1;
nodes = (
"66 0 LINE",
"259 247 LINE",
"261 247 LINE",
"454 0 LINE",
"480 0 LINE",
"273 263 LINE",
"475 520 LINE",
"449 520 LINE",
"261 279 LINE",
"259 279 LINE",
"71 520 LINE",
"45 520 LINE",
"247 263 LINE",
"40 0 LINE"
);
}
);
width = 520;
},
{
layerId = "9527F797-22C1-480E-A1FE-2CDBEBE1FD4C";
leftMetricsKey = "=|k*1.4";
paths = (
{
closed = 1;
nodes = (
"156 0 LINE",
"276 204 LINE",
"278 204 LINE",
"398 0 LINE",
"522 0 LINE",
"351 262 LINE",
"520 520 LINE",
"396 520 LINE",
"278 320 LINE",
"276 320 LINE",
"158 520 LINE",
"34 520 LINE",
"203 262 LINE",
"32 0 LINE"
);
}
);
width = 554;
},
{
layerId = "9E6B41AB-2970-4C41-8B35-4DBE0D296A43";
leftMetricsKey = "=|k*1.8";
paths = (
{
closed = 1;
nodes = (
"222 0 LINE",
"289 160 LINE",
"291 160 LINE",
"358 0 LINE",
"560 0 LINE",
"425 260 LINE",
"560 520 LINE",
"358 520 LINE",
"291 360 LINE",
"289 360 LINE",
"222 520 LINE",
"20 520 LINE",
"155 260 LINE",
"20 0 LINE"
);
}
);
width = 580;
}
);
leftKerningGroup = x;
leftMetricsKey = "=|k*1.8";
rightKerningGroup = x;
rightMetricsKey = "=|";
unicode = 0078;
},
{
glyphname = y;
lastChange = "2025-01-21 12:56:24 +0000";
layers = (
{
anchors = (
{
name = bottom;
position = "{261, 0}";
},
{
name = dotR;
position = "{300, -210}";
},
{
name = top;
position = "{261, 520}";
}
);
layerId = "D65C9A1E-0FCA-4B2D-8EDF-9F36CA9182A1";
leftMetricsKey = "=v*1.6";
rightMetricsKey = "=v";
paths = (
{
closed = 1;
nodes = (
"163 -210 LINE",
"496 520 LINE",
"474 520 LINE",
"253 35 LINE",
"251 35 LINE",
"47 520 LINE",
"26 518 LINE",
"242 9 LINE",
"141 -210 LINE"
);
}
);
width = 512;
},
{
anchors = (
{
name = bottom;
position = "{273, 0}";
},
{
name = dotR;
position = "{370, -210}";
},
{
name = top;
position = "{273, 520}";
}
);
layerId = "9527F797-22C1-480E-A1FE-2CDBEBE1FD4C";
leftMetricsKey = "=v*.9";
paths = (
{
closed = 1;
nodes = (
"240 -210 LINE",
"538 520 LINE",
"422 520 LINE",
"271 118 LINE",
"269 118 LINE",
"124 520 LINE",
"8 519 LINE",
"216 5 LINE",
"126 -210 LINE"
);
}
);
width = 543;
},
{
anchors = (
{
name = bottom;
position = "{296, 0}";
},
{
name = dotR;
position = "{440, -210}";
},
{
name = top;
position = "{296, 520}";
}
);
layerId = "9E6B41AB-2970-4C41-8B35-4DBE0D296A43";
leftMetricsKey = "=v*.2";
rightMetricsKey = "=v*.2";
paths = (
{
closed = 1;
nodes = (
"329 -210 LINE",
"591 520 LINE",
"381 520 LINE",
"301 170 LINE",
"299 170 LINE",
"211 520 LINE",
"1 520 LINE",
"202 0 LINE",
"124 -210 LINE"
);
}
);
width = 592;
}
);
leftKerningGroup = v;
leftMetricsKey = "=v*.2";
rightKerningGroup = v;
rightMetricsKey = "=v*.6";
unicode = 0079;
},
{
glyphname = z;
lastChange = "2025-01-21 12:56:24 +0000";
layers = (
{
anchors = (
{
name = bottom;
position = "{254, 0}";
},
{
name = center;
position = "{254, 260}";
},
{
name = top;
position = "{254, 520}";
}
);
layerId = "D65C9A1E-0FCA-4B2D-8EDF-9F36CA9182A1";
leftMetricsKey = "=h*.6";
paths = (
{
closed = 1;
nodes = (
"449 0 LINE",
"449 20 LINE",
"86 20 LINE",
"86 22 LINE",
"449 500 LINE",
"449 520 LINE",
"59 520 LINE",
"59 500 LINE",
"422 500 LINE",
"422 498 LINE",
"59 20 LINE",
"59 0 LINE"
);
}
);
width = 508;
},
{
anchors = (
{
name = bottom;
position = "{273, 0}";
},
{
name = center;
position = "{273, 260}";
},
{
name = top;
position = "{273, 520}";
}
);
layerId = "9527F797-22C1-480E-A1FE-2CDBEBE1FD4C";
leftMetricsKey = "=h*.75";
paths = (
{
closed = 1;
nodes = (
"488 0 LINE",
"488 90 LINE",
"199 90 LINE",
"199 92 LINE",
"488 430 LINE",
"488 520 LINE",
"58 520 LINE",
"58 430 LINE",
"347 430 LINE",
"347 428 LINE",
"58 90 LINE",
"58 0 LINE"
);
}
);
width = 546;
},
{
anchors = (
{
name = bottom;
position = "{284, 0}";
},
{
name = center;
position = "{284, 260}";
},
{
name = top;
position = "{284, 520}";
}
);
layerId = "9E6B41AB-2970-4C41-8B35-4DBE0D296A43";
leftMetricsKey = "=h*.9";
paths = (
{
closed = 1;
nodes = (
"519 0 LINE",
"519 140 LINE",
"296 140 LINE",
"296 142 LINE",
"519 380 LINE",
"519 520 LINE",
"49 520 LINE",
"49 380 LINE",
"272 380 LINE",
"272 378 LINE",
"49 140 LINE",
"49 0 LINE"
);
}
);
width = 568;
}
);
leftKerningGroup = z;
leftMetricsKey = "=h*.9";
rightKerningGroup = z;
rightMetricsKey = "=|";
unicode = 007A;
},
{
glyphname = f_f;
lastChange = "2025-01-21 12:56:24 +0000";
layers = (
{
layerId = "D65C9A1E-0FCA-4B2D-8EDF-9F36CA9182A1";
paths = (
{
closed = 1;
nodes = (
"214 0 LINE",
"214 480 LINE",
"514 480 LINE",
"514 0 LINE",
"534 0 LINE",
"534 480 LINE",
"738 480 LINE",
"738 500 LINE",
"534 500 LINE",
"534 620 LINE SMOOTH",
"534 711 OFFCURVE",
"571 750 OFFCURVE",
"658 750 CURVE SMOOTH",
"685 750 OFFCURVE",
"706 746 OFFCURVE",
"733 736 CURVE",
"740 755 LINE",
"710 766 OFFCURVE",
"686 770 OFFCURVE",
"658 770 CURVE SMOOTH",
"560 770 OFFCURVE",
"514 722 OFFCURVE",
"514 620 CURVE SMOOTH",
"514 500 LINE",
"214 500 LINE",
"214 620 LINE SMOOTH",
"214 711 OFFCURVE",
"251 750 OFFCURVE",
"338 750 CURVE SMOOTH",
"365 750 OFFCURVE",
"386 746 OFFCURVE",
"413 736 CURVE",
"420 755 LINE",
"390 766 OFFCURVE",
"366 770 OFFCURVE",
"338 770 CURVE SMOOTH",
"240 770 OFFCURVE",
"194 722 OFFCURVE",
"194 620 CURVE SMOOTH",
"194 500 LINE",
"30 500 LINE",
"30 480 LINE",
"194 480 LINE",
"194 0 LINE"
);
}
);
width = 770;
},
{
layerId = "9527F797-22C1-480E-A1FE-2CDBEBE1FD4C";
paths = (
{
closed = 1;
nodes = (
"270 0 LINE",
"270 410 LINE",
"521 410 LINE",
"521 0 LINE",
"630 0 LINE",
"630 410 LINE",
"800 410 LINE",
"800 500 LINE",
"630 500 LINE",
"630 577 LINE SMOOTH",
"630 650 OFFCURVE",
"654 677 OFFCURVE",
"719 677 CURVE SMOOTH",
"743 677 OFFCURVE",
"766 673 OFFCURVE",
"790 665 CURVE",
"803 755 LINE",
"775 764 OFFCURVE",
"739 770 OFFCURVE",
"702 770 CURVE SMOOTH",
"582 770 OFFCURVE",
"521 708 OFFCURVE",
"521 585 CURVE SMOOTH",
"521 500 LINE",
"270 500 LINE",
"270 577 LINE SMOOTH",
"270 650 OFFCURVE",
"294 677 OFFCURVE",
"359 677 CURVE SMOOTH",
"383 677 OFFCURVE",
"406 673 OFFCURVE",
"430 665 CURVE",
"443 755 LINE",
"415 764 OFFCURVE",
"379 770 OFFCURVE",
"342 770 CURVE SMOOTH",
"222 770 OFFCURVE",
"161 708 OFFCURVE",
"161 585 CURVE SMOOTH",
"161 500 LINE",
"23 500 LINE",
"23 410 LINE",
"161 410 LINE",
"161 0 LINE"
);
}
);
width = 826;
},
{
layerId = "9E6B41AB-2970-4C41-8B35-4DBE0D296A43";
paths = (
{
closed = 1;
nodes = (
"325 0 LINE",
"325 360 LINE",
"525 360 LINE",
"525 0 LINE",
"723 0 LINE",
"723 360 LINE",
"859 360 LINE",
"859 500 LINE",
"723 500 LINE",
"723 550 LINE SMOOTH",
"723 605 OFFCURVE",
"736 620 OFFCURVE",
"778 620 CURVE SMOOTH",
"797 620 OFFCURVE",
"819 617 OFFCURVE",
"844 610 CURVE",
"864 755 LINE",
"825 765 OFFCURVE",
"779 770 OFFCURVE",
"743 770 CURVE SMOOTH",
"601 770 OFFCURVE",
"525 693 OFFCURVE",
"525 550 CURVE SMOOTH",
"525 500 LINE",
"325 500 LINE",
"325 550 LINE SMOOTH",
"325 605 OFFCURVE",
"338 620 OFFCURVE",
"380 620 CURVE SMOOTH",
"399 620 OFFCURVE",
"421 617 OFFCURVE",
"446 610 CURVE",
"466 755 LINE",
"427 765 OFFCURVE",
"381 770 OFFCURVE",
"345 770 CURVE SMOOTH",
"203 770 OFFCURVE",
"127 693 OFFCURVE",
"127 550 CURVE SMOOTH",
"127 500 LINE",
"16 500 LINE",
"16 360 LINE",
"127 360 LINE",
"127 0 LINE"
);
}
);
width = 880;
}
);
leftKerningGroup = f;
leftMetricsKey = f;
rightKerningGroup = f;
rightMetricsKey = f;
},
{
glyphname = m_p_l_u_s_f_o_n_t_s;
lastChange = "2025-01-21 12:56:24 +0000";
layers = (
{
layerId = "D65C9A1E-0FCA-4B2D-8EDF-9F36CA9182A1";
paths = (
{
closed = 1;
nodes = (
"1820 0 LINE",
"1820 270 LINE",
"2140 270 LINE",
"2140 430 LINE",
"1820 430 LINE",
"1820 565 LINE",
"2160 565 LINE",
"2160 730 LINE",
"1620 730 LINE",
"1620 0 LINE"
);
},
{
closed = 1;
nodes = (
"2854 -10 OFFCURVE",
"2995 129 OFFCURVE",
"2995 365 CURVE SMOOTH",
"2995 601 OFFCURVE",
"2854 740 OFFCURVE",
"2615 740 CURVE SMOOTH",
"2376 740 OFFCURVE",
"2235 601 OFFCURVE",
"2235 365 CURVE SMOOTH",
"2235 129 OFFCURVE",
"2376 -10 OFFCURVE",
"2615 -10 CURVE SMOOTH"
);
},
{
closed = 1;
nodes = (
"2499 160 OFFCURVE",
"2440 229 OFFCURVE",
"2440 365 CURVE SMOOTH",
"2440 501 OFFCURVE",
"2499 570 OFFCURVE",
"2615 570 CURVE SMOOTH",
"2731 570 OFFCURVE",
"2790 501 OFFCURVE",
"2790 365 CURVE SMOOTH",
"2790 229 OFFCURVE",
"2731 160 OFFCURVE",
"2615 160 CURVE SMOOTH"
);
},
{
closed = 1;
nodes = (
"3285 0 LINE",
"3285 390 LINE",
"3287 390 LINE",
"3505 0 LINE",
"3705 0 LINE",
"3705 730 LINE",
"3505 730 LINE",
"3505 340 LINE",
"3503 340 LINE",
"3285 730 LINE",
"3085 730 LINE",
"3085 0 LINE"
);
},
{
closed = 1;
nodes = (
"4202 0 LINE",
"4202 560 LINE",
"4409 560 LINE",
"4409 730 LINE",
"3789 730 LINE",
"3789 560 LINE",
"3996 560 LINE",
"3996 0 LINE"
);
},
{
closed = 1;
nodes = (
"310 0 LINE",
"310 420 LINE",
"312 420 LINE",
"400 155 LINE",
"580 155 LINE",
"668 420 LINE",
"670 420 LINE",
"670 0 LINE",
"870 0 LINE",
"870 560 LINE",
"1075 560 LINE",
"1075 355 LINE",
"1245 355 LINE",
"1245 560 LINE",
"1450 560 LINE",
"1450 730 LINE",
"1245 730 LINE",
"1245 935 LINE",
"1075 935 LINE",
"1075 730 LINE",
"622 730 LINE",
"491 340 LINE",
"489 340 LINE",
"358 730 LINE",
"110 730 LINE",
"110 0 LINE"
);
},
{
closed = 1;
nodes = (
"4950 -10 OFFCURVE",
"5063 69 OFFCURVE",
"5063 210 CURVE SMOOTH",
"5063 320 OFFCURVE",
"4995 384 OFFCURVE",
"4825 434 CURVE SMOOTH",
"4706 469 OFFCURVE",
"4679 488 OFFCURVE",
"4679 526 CURVE SMOOTH",
"4679 560 OFFCURVE",
"4710 575 OFFCURVE",
"4777 575 CURVE SMOOTH",
"4853 575 OFFCURVE",
"4935 556 OFFCURVE",
"5007 522 CURVE",
"5049 692 LINE",
"4978 722 OFFCURVE",
"4877 740 OFFCURVE",
"4780 740 CURVE SMOOTH",
"4580 740 OFFCURVE",
"4469 663 OFFCURVE",
"4469 525 CURVE SMOOTH",
"4469 413 OFFCURVE",
"4540 340 OFFCURVE",
"4697 297 CURVE SMOOTH",
"4823 262 OFFCURVE",
"4853 245 OFFCURVE",
"4853 210 CURVE SMOOTH",
"4853 174 OFFCURVE",
"4822 155 OFFCURVE",
"4763 155 CURVE SMOOTH",
"4689 155 OFFCURVE",
"4580 185 OFFCURVE",
"4511 224 CURVE",
"4469 54 LINE",
"4534 14 OFFCURVE",
"4640 -10 OFFCURVE",
"4750 -10 CURVE SMOOTH"
);
}
);
width = 5140;
},
{
layerId = "9E6B41AB-2970-4C41-8B35-4DBE0D296A43";
paths = (
{
closed = 1;
nodes = (
"1770 0 LINE",
"1770 270 LINE",
"2090 270 LINE",
"2090 430 LINE",
"1770 430 LINE",
"1770 565 LINE",
"2110 565 LINE",
"2110 730 LINE",
"1570 730 LINE",
"1570 0 LINE"
);
},
{
closed = 1;
nodes = (
"2804 -10 OFFCURVE",
"2945 129 OFFCURVE",
"2945 365 CURVE SMOOTH",
"2945 601 OFFCURVE",
"2804 740 OFFCURVE",
"2565 740 CURVE SMOOTH",
"2326 740 OFFCURVE",
"2185 601 OFFCURVE",
"2185 365 CURVE SMOOTH",
"2185 129 OFFCURVE",
"2326 -10 OFFCURVE",
"2565 -10 CURVE SMOOTH"
);
},
{
closed = 1;
nodes = (
"2449 160 OFFCURVE",
"2390 229 OFFCURVE",
"2390 365 CURVE SMOOTH",
"2390 501 OFFCURVE",
"2449 570 OFFCURVE",
"2565 570 CURVE SMOOTH",
"2681 570 OFFCURVE",
"2740 501 OFFCURVE",
"2740 365 CURVE SMOOTH",
"2740 229 OFFCURVE",
"2681 160 OFFCURVE",
"2565 160 CURVE SMOOTH"
);
},
{
closed = 1;
nodes = (
"3235 0 LINE",
"3235 390 LINE",
"3237 390 LINE",
"3455 0 LINE",
"3655 0 LINE",
"3655 730 LINE",
"3455 730 LINE",
"3455 340 LINE",
"3453 340 LINE",
"3235 730 LINE",
"3035 730 LINE",
"3035 0 LINE"
);
},
{
closed = 1;
nodes = (
"4152 0 LINE",
"4152 560 LINE",
"4359 560 LINE",
"4359 730 LINE",
"3739 730 LINE",
"3739 560 LINE",
"3946 560 LINE",
"3946 0 LINE"
);
},
{
closed = 1;
nodes = (
"260 0 LINE",
"260 420 LINE",
"262 420 LINE",
"350 155 LINE",
"530 155 LINE",
"618 420 LINE",
"620 420 LINE",
"620 0 LINE",
"820 0 LINE",
"820 560 LINE",
"1025 560 LINE",
"1025 355 LINE",
"1195 355 LINE",
"1195 560 LINE",
"1400 560 LINE",
"1400 730 LINE",
"1195 730 LINE",
"1195 935 LINE",
"1025 935 LINE",
"1025 730 LINE",
"572 730 LINE",
"441 340 LINE",
"439 340 LINE",
"308 730 LINE",
"60 730 LINE",
"60 0 LINE"
);
},
{
closed = 1;
nodes = (
"4900 -10 OFFCURVE",
"5013 69 OFFCURVE",
"5013 210 CURVE SMOOTH",
"5013 320 OFFCURVE",
"4945 384 OFFCURVE",
"4775 434 CURVE SMOOTH",
"4656 469 OFFCURVE",
"4629 488 OFFCURVE",
"4629 526 CURVE SMOOTH",
"4629 560 OFFCURVE",
"4660 575 OFFCURVE",
"4727 575 CURVE SMOOTH",
"4803 575 OFFCURVE",
"4885 556 OFFCURVE",
"4957 522 CURVE",
"4999 692 LINE",
"4928 722 OFFCURVE",
"4827 740 OFFCURVE",
"4730 740 CURVE SMOOTH",
"4530 740 OFFCURVE",
"4419 663 OFFCURVE",
"4419 525 CURVE SMOOTH",
"4419 413 OFFCURVE",
"4490 340 OFFCURVE",
"4647 297 CURVE SMOOTH",
"4773 262 OFFCURVE",
"4803 245 OFFCURVE",
"4803 210 CURVE SMOOTH",
"4803 174 OFFCURVE",
"4772 155 OFFCURVE",
"4713 155 CURVE SMOOTH",
"4639 155 OFFCURVE",
"4530 185 OFFCURVE",
"4461 224 CURVE",
"4419 54 LINE",
"4484 14 OFFCURVE",
"4590 -10 OFFCURVE",
"4700 -10 CURVE SMOOTH"
);
}
);
width = 5049;
},
{
layerId = "9527F797-22C1-480E-A1FE-2CDBEBE1FD4C";
paths = (
{
closed = 1;
nodes = (
"1795 0 LINE",
"1795 270 LINE",
"2115 270 LINE",
"2115 430 LINE",
"1795 430 LINE",
"1795 565 LINE",
"2135 565 LINE",
"2135 730 LINE",
"1595 730 LINE",
"1595 0 LINE"
);
},
{
closed = 1;
nodes = (
"2829 -10 OFFCURVE",
"2970 129 OFFCURVE",
"2970 365 CURVE SMOOTH",
"2970 601 OFFCURVE",
"2829 740 OFFCURVE",
"2590 740 CURVE SMOOTH",
"2351 740 OFFCURVE",
"2210 601 OFFCURVE",
"2210 365 CURVE SMOOTH",
"2210 129 OFFCURVE",
"2351 -10 OFFCURVE",
"2590 -10 CURVE SMOOTH"
);
},
{
closed = 1;
nodes = (
"2474 160 OFFCURVE",
"2415 229 OFFCURVE",
"2415 365 CURVE SMOOTH",
"2415 501 OFFCURVE",
"2474 570 OFFCURVE",
"2590 570 CURVE SMOOTH",
"2706 570 OFFCURVE",
"2765 501 OFFCURVE",
"2765 365 CURVE SMOOTH",
"2765 229 OFFCURVE",
"2706 160 OFFCURVE",
"2590 160 CURVE SMOOTH"
);
},
{
closed = 1;
nodes = (
"3260 0 LINE",
"3260 390 LINE",
"3262 390 LINE",
"3480 0 LINE",
"3680 0 LINE",
"3680 730 LINE",
"3480 730 LINE",
"3480 340 LINE",
"3478 340 LINE",
"3260 730 LINE",
"3060 730 LINE",
"3060 0 LINE"
);
},
{
closed = 1;
nodes = (
"4177 0 LINE",
"4177 560 LINE",
"4384 560 LINE",
"4384 730 LINE",
"3764 730 LINE",
"3764 560 LINE",
"3971 560 LINE",
"3971 0 LINE"
);
},
{
closed = 1;
nodes = (
"285 0 LINE",
"285 420 LINE",
"287 420 LINE",
"375 155 LINE",
"555 155 LINE",
"643 420 LINE",
"645 420 LINE",
"645 0 LINE",
"845 0 LINE",
"845 560 LINE",
"1050 560 LINE",
"1050 355 LINE",
"1220 355 LINE",
"1220 560 LINE",
"1425 560 LINE",
"1425 730 LINE",
"1220 730 LINE",
"1220 935 LINE",
"1050 935 LINE",
"1050 730 LINE",
"597 730 LINE",
"466 340 LINE",
"464 340 LINE",
"333 730 LINE",
"85 730 LINE",
"85 0 LINE"
);
},
{
closed = 1;
nodes = (
"4925 -10 OFFCURVE",
"5038 69 OFFCURVE",
"5038 210 CURVE SMOOTH",
"5038 320 OFFCURVE",
"4970 384 OFFCURVE",
"4800 434 CURVE SMOOTH",
"4681 469 OFFCURVE",
"4654 488 OFFCURVE",
"4654 526 CURVE SMOOTH",
"4654 560 OFFCURVE",
"4685 575 OFFCURVE",
"4752 575 CURVE SMOOTH",
"4828 575 OFFCURVE",
"4910 556 OFFCURVE",
"4982 522 CURVE",
"5024 692 LINE",
"4953 722 OFFCURVE",
"4852 740 OFFCURVE",
"4755 740 CURVE SMOOTH",
"4555 740 OFFCURVE",
"4444 663 OFFCURVE",
"4444 525 CURVE SMOOTH",
"4444 413 OFFCURVE",
"4515 340 OFFCURVE",
"4672 297 CURVE SMOOTH",
"4798 262 OFFCURVE",
"4828 245 OFFCURVE",
"4828 210 CURVE SMOOTH",
"4828 174 OFFCURVE",
"4797 155 OFFCURVE",
"4738 155 CURVE SMOOTH",
"4664 155 OFFCURVE",
"4555 185 OFFCURVE",
"4486 224 CURVE",
"4444 54 LINE",
"4509 14 OFFCURVE",
"4615 -10 OFFCURVE",
"4725 -10 CURVE SMOOTH"
);
}
);
width = 5093;
}
);
leftKerningGroup = H;
leftMetricsKey = "=M";
rightKerningGroup = S;
rightMetricsKey = "=S";
},
{
glyphname = ordfeminine;
lastChange = "2025-01-21 12:56:24 +0000";
layers = (
{
layerId = "D65C9A1E-0FCA-4B2D-8EDF-9F36CA9182A1";
paths = (
{
closed = 1;
nodes = (
"246 306 OFFCURVE",
"309 338 OFFCURVE",
"342 389 CURVE",
"344 389 LINE",
"344 314 LINE",
"364 314 LINE",
"364 574 LINE SMOOTH",
"364 695 OFFCURVE",
"326 738 OFFCURVE",
"217 738 CURVE SMOOTH",
"163 738 OFFCURVE",
"113 728 OFFCURVE",
"66 708 CURVE",
"75 689 LINE",
"119 708 OFFCURVE",
"166 718 OFFCURVE",
"217 718 CURVE SMOOTH",
"314 718 OFFCURVE",
"344 684 OFFCURVE",
"344 574 CURVE",
"271 574 LINE SMOOTH",
"118 574 OFFCURVE",
"36 523 OFFCURVE",
"36 430 CURVE SMOOTH",
"36 354 OFFCURVE",
"90 306 OFFCURVE",
"176 306 CURVE SMOOTH"
);
},
{
closed = 1;
nodes = (
"101 326 OFFCURVE",
"56 365 OFFCURVE",
"56 430 CURVE SMOOTH",
"56 511 OFFCURVE",
"130 554 OFFCURVE",
"271 554 CURVE SMOOTH",
"344 554 LINE",
"344 466 LINE SMOOTH",
"344 388 OFFCURVE",
"270 326 OFFCURVE",
"176 326 CURVE SMOOTH"
);
}
);
width = 435;
},
{
layerId = "9527F797-22C1-480E-A1FE-2CDBEBE1FD4C";
paths = (
{
closed = 1;
nodes = (
"214 306 OFFCURVE",
"269 324 OFFCURVE",
"301 352 CURVE",
"303 352 LINE",
"304 314 LINE",
"396 314 LINE",
"396 576 LINE SMOOTH",
"396 696 OFFCURVE",
"353 738 OFFCURVE",
"231 738 CURVE SMOOTH",
"170 738 OFFCURVE",
"107 729 OFFCURVE",
"59 713 CURVE",
"74 633 LINE",
"119 648 OFFCURVE",
"171 656 OFFCURVE",
"220 656 CURVE SMOOTH",
"284 656 OFFCURVE",
"299 642 OFFCURVE",
"299 584 CURVE",
"249 584 LINE SMOOTH",
"108 584 OFFCURVE",
"28 529 OFFCURVE",
"28 432 CURVE SMOOTH",
"28 355 OFFCURVE",
"79 306 OFFCURVE",
"162 306 CURVE SMOOTH"
);
},
{
closed = 1;
nodes = (
"148 386 OFFCURVE",
"124 405 OFFCURVE",
"124 440 CURVE SMOOTH",
"124 485 OFFCURVE",
"169 509 OFFCURVE",
"261 509 CURVE SMOOTH",
"299 509 LINE",
"299 464 LINE SMOOTH",
"299 421 OFFCURVE",
"251 386 OFFCURVE",
"193 386 CURVE SMOOTH"
);
}
);
width = 452;
},
{
layerId = "9E6B41AB-2970-4C41-8B35-4DBE0D296A43";
paths = (
{
closed = 1;
nodes = (
"192 306 OFFCURVE",
"235 322 OFFCURVE",
"266 352 CURVE",
"268 352 LINE",
"269 314 LINE",
"428 314 LINE",
"428 578 LINE SMOOTH",
"428 695 OFFCURVE",
"378 738 OFFCURVE",
"245 738 CURVE SMOOTH",
"177 738 OFFCURVE",
"105 731 OFFCURVE",
"52 717 CURVE",
"71 596 LINE",
"118 608 OFFCURVE",
"177 616 OFFCURVE",
"223 616 CURVE SMOOTH",
"257 616 OFFCURVE",
"261 612 OFFCURVE",
"261 578 CURVE",
"228 578 LINE SMOOTH",
"95 578 OFFCURVE",
"20 526 OFFCURVE",
"20 434 CURVE SMOOTH",
"20 356 OFFCURVE",
"70 306 OFFCURVE",
"148 306 CURVE SMOOTH"
);
},
{
closed = 1;
nodes = (
"183 424 OFFCURVE",
"171 433 OFFCURVE",
"171 450 CURVE SMOOTH",
"171 473 OFFCURVE",
"195 484 OFFCURVE",
"252 484 CURVE SMOOTH",
"261 484 LINE",
"261 462 LINE SMOOTH",
"261 439 OFFCURVE",
"242 424 OFFCURVE",
"209 424 CURVE SMOOTH"
);
}
);
width = 467;
},
{
associatedMasterId = "D65C9A1E-0FCA-4B2D-8EDF-9F36CA9182A1";
layerId = "02CE7075-E2BA-495E-B00B-7DF72736FD8B";
name = "{232}";
paths = (
{
closed = 1;
nodes = (
"234 306 OFFCURVE",
"296 332 OFFCURVE",
"328 371 CURVE",
"330 371 LINE",
"330 314 LINE",
"374 314 LINE",
"374 575 LINE SMOOTH",
"374 695 OFFCURVE",
"334 738 OFFCURVE",
"221 738 CURVE SMOOTH",
"158 738 OFFCURVE",
"96 724 OFFCURVE",
"43 700 CURVE",
"54 661 LINE",
"104 685 OFFCURVE",
"160 698 OFFCURVE",
"217 698 CURVE SMOOTH",
"303 698 OFFCURVE",
"328 670 OFFCURVE",
"328 577 CURVE",
"263 577 LINE SMOOTH",
"114 577 OFFCURVE",
"33 525 OFFCURVE",
"33 431 CURVE SMOOTH",
"33 354 OFFCURVE",
"86 306 OFFCURVE",
"171 306 CURVE SMOOTH"
);
},
{
closed = 1;
nodes = (
"116 346 OFFCURVE",
"78 378 OFFCURVE",
"78 433 CURVE SMOOTH",
"78 502 OFFCURVE",
"142 539 OFFCURVE",
"267 539 CURVE SMOOTH",
"328 539 LINE",
"328 465 LINE SMOOTH",
"328 399 OFFCURVE",
"263 346 OFFCURVE",
"181 346 CURVE SMOOTH"
);
}
);
width = 441;
}
);
leftKerningGroup = asterisk;
leftMetricsKey = "=a*.9";
rightKerningGroup = asterisk;
rightMetricsKey = "=a*.9";
unicode = 00AA;
},
{
glyphname = ordmasculine;
lastChange = "2025-01-21 12:56:24 +0000";
layers = (
{
layerId = "D65C9A1E-0FCA-4B2D-8EDF-9F36CA9182A1";
paths = (
{
closed = 1;
nodes = (
"357 306 OFFCURVE",
"429 388 OFFCURVE",
"429 522 CURVE SMOOTH",
"429 656 OFFCURVE",
"357 738 OFFCURVE",
"237 738 CURVE SMOOTH",
"119 738 OFFCURVE",
"45 656 OFFCURVE",
"45 522 CURVE SMOOTH",
"45 388 OFFCURVE",
"119 306 OFFCURVE",
"237 306 CURVE SMOOTH"
);
},
{
closed = 1;
nodes = (
"130 326 OFFCURVE",
"66 398 OFFCURVE",
"66 522 CURVE SMOOTH",
"66 646 OFFCURVE",
"130 718 OFFCURVE",
"238 718 CURVE SMOOTH",
"345 718 OFFCURVE",
"410 646 OFFCURVE",
"410 522 CURVE SMOOTH",
"410 398 OFFCURVE",
"345 326 OFFCURVE",
"238 326 CURVE SMOOTH"
);
}
);
width = 474;
},
{
layerId = "9527F797-22C1-480E-A1FE-2CDBEBE1FD4C";
paths = (
{
closed = 1;
nodes = (
"375 306 OFFCURVE",
"451 384 OFFCURVE",
"451 522 CURVE SMOOTH",
"451 660 OFFCURVE",
"375 738 OFFCURVE",
"243 738 CURVE SMOOTH",
"111 738 OFFCURVE",
"35 660 OFFCURVE",
"35 522 CURVE SMOOTH",
"35 384 OFFCURVE",
"111 306 OFFCURVE",
"243 306 CURVE SMOOTH"
);
},
{
closed = 1;
nodes = (
"169 388 OFFCURVE",
"131 434 OFFCURVE",
"131 522 CURVE SMOOTH",
"131 610 OFFCURVE",
"169 656 OFFCURVE",
"243 656 CURVE SMOOTH",
"317 656 OFFCURVE",
"355 610 OFFCURVE",
"355 522 CURVE SMOOTH",
"355 434 OFFCURVE",
"317 388 OFFCURVE",
"243 388 CURVE SMOOTH"
);
}
);
width = 486;
},
{
layerId = "9E6B41AB-2970-4C41-8B35-4DBE0D296A43";
paths = (
{
closed = 1;
nodes = (
"394 306 OFFCURVE",
"472 381 OFFCURVE",
"472 522 CURVE SMOOTH",
"472 663 OFFCURVE",
"394 738 OFFCURVE",
"248 738 CURVE SMOOTH",
"102 738 OFFCURVE",
"24 663 OFFCURVE",
"24 522 CURVE SMOOTH",
"24 381 OFFCURVE",
"102 306 OFFCURVE",
"248 306 CURVE SMOOTH"
);
},
{
closed = 1;
nodes = (
"207 428 OFFCURVE",
"190 454 OFFCURVE",
"190 522 CURVE SMOOTH",
"190 590 OFFCURVE",
"207 616 OFFCURVE",
"248 616 CURVE SMOOTH",
"289 616 OFFCURVE",
"306 590 OFFCURVE",
"306 522 CURVE SMOOTH",
"306 454 OFFCURVE",
"289 428 OFFCURVE",
"248 428 CURVE SMOOTH"
);
}
);
width = 496;
}
);
leftKerningGroup = asterisk;
leftMetricsKey = "=o*.9";
rightKerningGroup = asterisk;
rightMetricsKey = "=|";
unicode = 00BA;
},
{
color = 6;
glyphname = "close-han";
lastChange = "2025-01-22 03:29:35 +0000";
layers = (
{
layerId = "D65C9A1E-0FCA-4B2D-8EDF-9F36CA9182A1";
paths = (
{
closed = 1;
nodes = (
"361 235 OFFCURVE",
"582 468 OFFCURVE",
"895 752 CURVE",
"881 766 LINE",
"574 488 OFFCURVE",
"353 255 OFFCURVE",
"152 0 CURVE",
"159 -2 LINE",
"162 310 OFFCURVE",
"238 489 OFFCURVE",
"363 489 CURVE SMOOTH",
"502 489 OFFCURVE",
"651 383 OFFCURVE",
"801 173 CURVE",
"817 185 LINE",
"665 397 OFFCURVE",
"510 509 OFFCURVE",
"363 509 CURVE SMOOTH",
"220 509 OFFCURVE",
"139 311 OFFCURVE",
"139 -20 CURVE",
"157 -26 LINE"
);
}
);
vertWidth = 1000;
width = 1000;
},
{
layerId = "9527F797-22C1-480E-A1FE-2CDBEBE1FD4C";
paths = (
{
closed = 1;
nodes = (
"390 190 OFFCURVE",
"653 474 OFFCURVE",
"928 723 CURVE",
"854 790 LINE",
"597 557 OFFCURVE",
"345 286 OFFCURVE",
"177 67 CURVE",
"202 59 LINE",
"203 303 OFFCURVE",
"270 458 OFFCURVE",
"371 458 CURVE SMOOTH",
"491 458 OFFCURVE",
"649 331 OFFCURVE",
"772 138 CURVE",
"850 209 LINE",
"710 415 OFFCURVE",
"521 546 OFFCURVE",
"367 546 CURVE SMOOTH",
"198 546 OFFCURVE",
"106 343 OFFCURVE",
"106 -18 CURVE",
"208 -50 LINE"
);
}
);
width = 1000;
},
{
background = {
paths = (
{
closed = 1;
nodes = (
"444 173 OFFCURVE",
"759 507 OFFCURVE",
"962 690 CURVE",
"828 810 LINE",
"639 638 OFFCURVE",
"347 325 OFFCURVE",
"202 128 CURVE",
"245 114 LINE",
"245 231 OFFCURVE",
"275 422 OFFCURVE",
"379 422 CURVE SMOOTH",
"483 422 OFFCURVE",
"651 264 OFFCURVE",
"742 98 CURVE",
"882 228 LINE",
"778 389 OFFCURVE",
"560 578 OFFCURVE",
"371 578 CURVE SMOOTH",
"219 578 OFFCURVE",
"72 456 OFFCURVE",
"72 -22 CURVE",
"258 -80 LINE"
);
}
);
};
layerId = "9E6B41AB-2970-4C41-8B35-4DBE0D296A43";
paths = (
{
closed = 1;
nodes = (
"420 147 OFFCURVE",
"728 483 OFFCURVE",
"962 695 CURVE",
"828 815 LINE",
"624 629 OFFCURVE",
"337 316 OFFCURVE",
"202 133 CURVE",
"245 119 LINE",
"245 298 OFFCURVE",
"301 427 OFFCURVE",
"379 427 CURVE SMOOTH",
"479 427 OFFCURVE",
"647 277 OFFCURVE",
"742 103 CURVE",
"882 233 LINE",
"755 430 OFFCURVE",
"532 583 OFFCURVE",
"371 583 CURVE SMOOTH",
"176 583 OFFCURVE",
"72 375 OFFCURVE",
"72 -17 CURVE",
"258 -75 LINE"
);
}
);
width = 1000;
}
);
note = uni3006;
unicode = 3006;
},
{
color = 6;
glyphname = "iterationmark-han";
lastChange = "2025-01-22 03:29:35 +0000";
layers = (
{
layerId = "D65C9A1E-0FCA-4B2D-8EDF-9F36CA9182A1";
paths = (
{
closed = 1;
nodes = (
"252 369 OFFCURVE",
"390 586 OFFCURVE",
"454 784 CURVE",
"434 790 LINE",
"372 596 OFFCURVE",
"238 383 OFFCURVE",
"101 267 CURVE",
"113 251 LINE"
);
},
{
closed = 1;
nodes = (
"364 610 LINE",
"364 590 LINE",
"839 590 LINE",
"839 610 LINE"
);
},
{
closed = 1;
nodes = (
"702 265 OFFCURVE",
"808 435 OFFCURVE",
"839 590 CURVE",
"819 594 LINE",
"788 441 OFFCURVE",
"687 279 OFFCURVE",
"553 165 CURVE",
"565 149 LINE"
);
},
{
closed = 1;
nodes = (
"630 110 OFFCURVE",
"524 207 OFFCURVE",
"380 320 CURVE",
"368 304 LINE",
"512 191 OFFCURVE",
"616 96 OFFCURVE",
"732 -30 CURVE",
"746 -16 LINE"
);
}
);
vertWidth = 1000;
width = 1000;
},
{
layerId = "9527F797-22C1-480E-A1FE-2CDBEBE1FD4C";
paths = (
{
closed = 1;
nodes = (
"302 345 OFFCURVE",
"427 557 OFFCURVE",
"499 784 CURVE",
"387 805 LINE",
"325 606 OFFCURVE",
"212 418 OFFCURVE",
"68 271 CURVE",
"157 204 LINE"
);
},
{
closed = 1;
nodes = (
"369 650 LINE",
"369 558 LINE",
"862 558 LINE",
"862 650 LINE"
);
},
{
closed = 1;
nodes = (
"725 236 OFFCURVE",
"829 407 OFFCURVE",
"862 558 CURVE",
"754 584 LINE",
"710 425 OFFCURVE",
"636 307 OFFCURVE",
"515 197 CURVE",
"600 124 LINE"
);
},
{
closed = 1;
nodes = (
"681 137 OFFCURVE",
"557 253 OFFCURVE",
"422 354 CURVE",
"351 273 LINE",
"487 171 OFFCURVE",
"592 75 OFFCURVE",
"709 -55 CURVE",
"789 15 LINE"
);
}
);
width = 1000;
},
{
background = {
paths = (
{
closed = 0;
nodes = (
"335 810 LINE",
"237 501 OFFCURVE",
"30 265 QCURVE",
"180 170 LINE",
"318 324 OFFCURVE",
"411 515 QCURVE",
"690 515 LINE",
"650 396 OFFCURVE",
"558 276 QCURVE",
"506 320 OFFCURVE",
"450 360 QCURVE",
"325 235 LINE",
"520 91 OFFCURVE",
"680 -90 QCURVE",
"815 30 LINE",
"758 94 OFFCURVE",
"692 156 QCURVE",
"833 337 OFFCURVE",
"880 515 QCURVE",
"880 670 LINE",
"478 670 LINE",
"504 742 OFFCURVE",
"515 780 QCURVE",
"335 810 LINE"
);
}
);
};
layerId = "9E6B41AB-2970-4C41-8B35-4DBE0D296A43";
paths = (
{
closed = 1;
nodes = (
"328 334 OFFCURVE",
"440 540 OFFCURVE",
"520 790 CURVE",
"340 820 LINE",
"277 615 OFFCURVE",
"185 451 OFFCURVE",
"35 275 CURVE",
"181 176 LINE"
);
},
{
closed = 1;
nodes = (
"373 680 LINE",
"373 525 LINE",
"885 525 LINE",
"885 680 LINE"
);
},
{
closed = 1;
nodes = (
"751 210 OFFCURVE",
"850 378 OFFCURVE",
"885 525 CURVE",
"712 570 LINE",
"655 407 OFFCURVE",
"608 331 OFFCURVE",
"500 225 CURVE",
"634 99 LINE"
);
},
{
closed = 1;
nodes = (
"722 156 OFFCURVE",
"581 288 OFFCURVE",
"460 375 CURVE",
"334 242 LINE",
"460 152 OFFCURVE",
"568 53 OFFCURVE",
"685 -80 CURVE",
"820 40 LINE"
);
}
);
width = 1000;
}
);
note = uni3005;
unicode = 3005;
},
{
color = 6;
glyphname = "ninojiten-han";
lastChange = "2025-01-22 03:29:35 +0000";
layers = (
{
layerId = "D65C9A1E-0FCA-4B2D-8EDF-9F36CA9182A1";
paths = (
{
closed = 1;
nodes = (
"522 -31 OFFCURVE",
"686 11 OFFCURVE",
"686 98 CURVE SMOOTH",
"686 216 OFFCURVE",
"371 296 OFFCURVE",
"371 374 CURVE SMOOTH",
"371 446 OFFCURVE",
"661 439 OFFCURVE",
"661 553 CURVE SMOOTH",
"661 633 OFFCURVE",
"516 733 OFFCURVE",
"320 799 CURVE",
"314 781 LINE",
"508 715 OFFCURVE",
"641 619 OFFCURVE",
"641 553 CURVE SMOOTH",
"641 458 OFFCURVE",
"351 468 OFFCURVE",
"351 374 CURVE SMOOTH",
"351 279 OFFCURVE",
"666 201 OFFCURVE",
"666 98 CURVE SMOOTH",
"666 30 OFFCURVE",
"517 -11 OFFCURVE",
"364 -39 CURVE",
"368 -59 LINE"
);
}
);
vertWidth = 1000;
width = 1000;
},
{
background = {
paths = (
{
closed = 1;
nodes = (
"320 15 QCURVE",
"348 -82 LINE",
"562 -53 OFFCURVE",
"735 37 OFFCURVE",
"735 105 QCURVE SMOOTH",
"735 145 OFFCURVE",
"655 225 OFFCURVE",
"552 280 QCURVE SMOOTH",
"477 320 OFFCURVE",
"432 353 OFFCURVE",
"432 365 QCURVE SMOOTH",
"432 375 OFFCURVE",
"470 393 OFFCURVE",
"540 412 QCURVE SMOOTH",
"631 437 OFFCURVE",
"710 500 OFFCURVE",
"710 542 QCURVE SMOOTH",
"710 610 OFFCURVE",
"511 758 OFFCURVE",
"320 818 QCURVE",
"278 722 LINE",
"429 673 OFFCURVE",
"588 579 OFFCURVE",
"588 550 QCURVE SMOOTH",
"588 539 OFFCURVE",
"570 523 OFFCURVE",
"504 499 OFFCURVE",
"438 482 QCURVE SMOOTH",
"302 447 OFFCURVE",
"302 370 QCURVE SMOOTH",
"302 333 OFFCURVE",
"376 260 OFFCURVE",
"470 212 QCURVE SMOOTH",
"555 168 OFFCURVE",
"608 128 OFFCURVE",
"608 110 QCURVE SMOOTH",
"608 53 OFFCURVE"
);
}
);
};
layerId = "9527F797-22C1-480E-A1FE-2CDBEBE1FD4C";
paths = (
{
closed = 1;
nodes = (
"609 -39 OFFCURVE",
"735 21 OFFCURVE",
"735 108 CURVE SMOOTH",
"735 243 OFFCURVE",
"432 319 OFFCURVE",
"432 370 CURVE SMOOTH",
"432 419 OFFCURVE",
"710 412 OFFCURVE",
"710 544 CURVE SMOOTH",
"710 645 OFFCURVE",
"547 753 OFFCURVE",
"323 819 CURVE",
"285 725 LINE",
"443 678 OFFCURVE",
"592 601 OFFCURVE",
"592 554 CURVE SMOOTH",
"592 489 OFFCURVE",
"307 504 OFFCURVE",
"307 377 CURVE SMOOTH",
"307 246 OFFCURVE",
"612 182 OFFCURVE",
"612 114 CURVE SMOOTH",
"612 64 OFFCURVE",
"444 37 OFFCURVE",
"321 18 CURVE",
"348 -79 LINE"
);
}
);
width = 1000;
},
{
layerId = "9E6B41AB-2970-4C41-8B35-4DBE0D296A43";
paths = (
{
closed = 1;
nodes = (
"466 -84 OFFCURVE",
"785 -52 OFFCURVE",
"785 118 CURVE SMOOTH",
"785 266 OFFCURVE",
"495 318 OFFCURVE",
"495 365 CURVE SMOOTH",
"495 408 OFFCURVE",
"760 389 OFFCURVE",
"760 535 CURVE SMOOTH",
"760 663 OFFCURVE",
"578 775 OFFCURVE",
"325 840 CURVE",
"255 680 LINE",
"377 650 OFFCURVE",
"545 585 OFFCURVE",
"545 555 CURVE SMOOTH",
"545 500 OFFCURVE",
"265 518 OFFCURVE",
"265 379 CURVE SMOOTH",
"265 231 OFFCURVE",
"560 183 OFFCURVE",
"560 130 CURVE SMOOTH",
"560 91 OFFCURVE",
"377 76 OFFCURVE",
"290 65 CURVE",
"330 -100 LINE"
);
}
);
width = 1000;
}
);
note = uni303B;
unicode = 303B;
},
{
glyphname = "a-hira";
lastChange = "2025-01-21 12:56:24 +0000";
layers = (
{
layerId = "D65C9A1E-0FCA-4B2D-8EDF-9F36CA9182A1";
paths = (
{
closed = 1;
nodes = (
"395 101 LINE",
"395 488 LINE",
"395 488 LINE",
"395 805 LINE",
"375 805 LINE",
"375 488 LINE",
"375 488 LINE",
"375 101 LINE"
);
},
{
closed = 1;
nodes = (
"890 645 LINE",
"890 665 LINE",
"110 665 LINE",
"110 645 LINE"
);
},
{
closed = 1;
nodes = (
"601 -34 LINE",
"769 -14 OFFCURVE",
"890 103 OFFCURVE",
"890 247 CURVE SMOOTH",
"890 409 OFFCURVE",
"743 515 OFFCURVE",
"520 515 CURVE SMOOTH",
"292 515 OFFCURVE",
"110 361 OFFCURVE",
"110 167 CURVE SMOOTH",
"110 74 OFFCURVE",
"152 7 OFFCURVE",
"213 6 CURVE SMOOTH",
"321 5 OFFCURVE",
"590 239 OFFCURVE",
"736 460 CURVE",
"720 472 LINE",
"579 257 OFFCURVE",
"314 25 OFFCURVE",
"213 26 CURVE SMOOTH",
"165 27 OFFCURVE",
"130 85 OFFCURVE",
"130 167 CURVE SMOOTH",
"130 350 OFFCURVE",
"303 495 OFFCURVE",
"520 495 CURVE SMOOTH",
"733 495 OFFCURVE",
"870 397 OFFCURVE",
"870 247 CURVE SMOOTH",
"870 113 OFFCURVE",
"757 4 OFFCURVE",
"599 -14 CURVE"
);
}
);
width = 1000;
},
{
layerId = "9527F797-22C1-480E-A1FE-2CDBEBE1FD4C";
paths = (
{
closed = 1;
nodes = (
"447 78 LINE",
"447 447 LINE",
"447 447 LINE",
"447 810 LINE",
"347 810 LINE",
"347 447 LINE",
"347 447 LINE",
"347 78 LINE"
);
},
{
closed = 1;
nodes = (
"900 605 LINE",
"900 690 LINE",
"100 690 LINE",
"100 605 LINE"
);
},
{
closed = 1;
nodes = (
"628 -56 LINE",
"794 -30 OFFCURVE",
"910 93 OFFCURVE",
"910 241 CURVE SMOOTH",
"910 415 OFFCURVE",
"763 520 OFFCURVE",
"520 520 CURVE SMOOTH",
"274 520 OFFCURVE",
"90 368 OFFCURVE",
"90 164 CURVE SMOOTH",
"90 50 OFFCURVE",
"147 -25 OFFCURVE",
"237 -25 CURVE SMOOTH",
"376 -25 OFFCURVE",
"604 157 OFFCURVE",
"772 401 CURVE",
"691 451 LINE",
"558 262 OFFCURVE",
"338 71 OFFCURVE",
"252 71 CURVE SMOOTH",
"214 71 OFFCURVE",
"191 109 OFFCURVE",
"191 167 CURVE SMOOTH",
"191 318 OFFCURVE",
"340 433 OFFCURVE",
"536 433 CURVE SMOOTH",
"703 433 OFFCURVE",
"807 359 OFFCURVE",
"807 241 CURVE SMOOTH",
"807 136 OFFCURVE",
"726 55 OFFCURVE",
"598 34 CURVE"
);
}
);
width = 1000;
},
{
layerId = "9E6B41AB-2970-4C41-8B35-4DBE0D296A43";
paths = (
{
closed = 1;
nodes = (
"488 55 LINE",
"488 405 LINE",
"498 405 LINE",
"498 815 LINE",
"318 815 LINE",
"318 405 LINE",
"328 405 LINE",
"328 55 LINE"
);
},
{
closed = 1;
nodes = (
"910 565 LINE",
"910 715 LINE",
"90 715 LINE",
"90 565 LINE"
);
},
{
closed = 1;
nodes = (
"655 -78 LINE",
"818 -45 OFFCURVE",
"930 82 OFFCURVE",
"930 234 CURVE SMOOTH",
"930 421 OFFCURVE",
"783 525 OFFCURVE",
"520 525 CURVE SMOOTH",
"256 525 OFFCURVE",
"70 374 OFFCURVE",
"70 160 CURVE SMOOTH",
"70 26 OFFCURVE",
"142 -55 OFFCURVE",
"260 -55 CURVE SMOOTH",
"422 -55 OFFCURVE",
"616 91 OFFCURVE",
"788 341 CURVE",
"661 430 LINE",
"523 236 OFFCURVE",
"370 100 OFFCURVE",
"291 100 CURVE SMOOTH",
"260 100 OFFCURVE",
"245 121 OFFCURVE",
"245 166 CURVE SMOOTH",
"245 297 OFFCURVE",
"363 380 OFFCURVE",
"551 380 CURVE SMOOTH",
"676 380 OFFCURVE",
"750 326 OFFCURVE",
"750 235 CURVE SMOOTH",
"750 154 OFFCURVE",
"691 94 OFFCURVE",
"585 67 CURVE"
);
}
);
width = 1000;
},
{
associatedMasterId = "9527F797-22C1-480E-A1FE-2CDBEBE1FD4C";
layerId = "ED9AD003-790A-45B3-87D4-A016D5568221";
name = "{767}";
paths = (
{
closed = 1;
nodes = (
"481 63 LINE",
"481 419 LINE",
"481 419 LINE",
"481 813 LINE",
"328 813 LINE",
"328 419 LINE",
"328 419 LINE",
"328 63 LINE"
);
},
{
closed = 1;
nodes = (
"907 578 LINE",
"907 707 LINE",
"93 707 LINE",
"93 578 LINE"
);
},
{
closed = 1;
nodes = (
"646 -71 LINE",
"810 -40 OFFCURVE",
"923 86 OFFCURVE",
"923 236 CURVE SMOOTH",
"923 419 OFFCURVE",
"776 523 OFFCURVE",
"520 523 CURVE SMOOTH",
"262 523 OFFCURVE",
"77 372 OFFCURVE",
"77 161 CURVE SMOOTH",
"77 34 OFFCURVE",
"144 -45 OFFCURVE",
"252 -45 CURVE SMOOTH",
"407 -45 OFFCURVE",
"612 113 OFFCURVE",
"783 361 CURVE",
"671 437 LINE",
"535 245 OFFCURVE",
"359 90 OFFCURVE",
"278 90 CURVE SMOOTH",
"245 90 OFFCURVE",
"227 117 OFFCURVE",
"227 166 CURVE SMOOTH",
"227 304 OFFCURVE",
"355 398 OFFCURVE",
"546 398 CURVE SMOOTH",
"685 398 OFFCURVE",
"769 337 OFFCURVE",
"769 237 CURVE SMOOTH",
"769 148 OFFCURVE",
"703 81 OFFCURVE",
"589 56 CURVE"
);
}
);
width = 1000;
}
);
unicode = 3042;
},
{
glyphname = "asmall-hira";
lastChange = "2025-01-21 12:56:24 +0000";
layers = (
{
layerId = "D65C9A1E-0FCA-4B2D-8EDF-9F36CA9182A1";
paths = (
{
closed = 1;
nodes = (
"418 73 LINE",
"418 382 LINE",
"418 382 LINE",
"418 636 LINE",
"398 636 LINE",
"398 382 LINE",
"398 382 LINE",
"398 73 LINE"
);
},
{
closed = 1;
nodes = (
"812 506 LINE",
"812 526 LINE",
"188 526 LINE",
"188 506 LINE"
);
},
{
closed = 1;
nodes = (
"581 -35 LINE",
"715.2 -19.2 OFFCURVE",
"812 74.4 OFFCURVE",
"812 189.6 CURVE SMOOTH",
"812 319.2 OFFCURVE",
"694.4 404 OFFCURVE",
"516 404 CURVE SMOOTH",
"333.6 404 OFFCURVE",
"188 280.8 OFFCURVE",
"188 125.6 CURVE SMOOTH",
"188 51.2 OFFCURVE",
"221.6 -2.4 OFFCURVE",
"270.4 -3.2 CURVE SMOOTH",
"356.8 -4 OFFCURVE",
"572 183.2 OFFCURVE",
"689 360 CURVE",
"672 371 LINE",
"560 201 OFFCURVE",
"348 16 OFFCURVE",
"271 17 CURVE SMOOTH",
"235 17 OFFCURVE",
"208 62 OFFCURVE",
"208 126 CURVE SMOOTH",
"208 269 OFFCURVE",
"344 384 OFFCURVE",
"516 384 CURVE SMOOTH",
"684 384 OFFCURVE",
"792 307 OFFCURVE",
"792 190 CURVE SMOOTH",
"792 85 OFFCURVE",
"703 0 OFFCURVE",
"579 -15 CURVE"
);
}
);
width = 1000;
},
{
layerId = "9527F797-22C1-480E-A1FE-2CDBEBE1FD4C";
paths = (
{
closed = 1;
nodes = (
"464 55 LINE",
"464 349 LINE",
"466 349 LINE",
"466 640 LINE",
"368 640 LINE",
"368 349 LINE",
"370 349 LINE",
"370 55 LINE"
);
},
{
closed = 1;
nodes = (
"820 473 LINE",
"820 557 LINE",
"180 557 LINE",
"180 473 LINE"
);
},
{
closed = 1;
nodes = (
"604 -58 LINE",
"738 -36 OFFCURVE",
"833 64 OFFCURVE",
"833 184 CURVE SMOOTH",
"833 327 OFFCURVE",
"713 413 OFFCURVE",
"516 413 CURVE SMOOTH",
"317 413 OFFCURVE",
"167 289 OFFCURVE",
"167 123 CURVE SMOOTH",
"167 30 OFFCURVE",
"215 -32 OFFCURVE",
"289 -33 CURVE SMOOTH",
"397 -33 OFFCURVE",
"582 120 OFFCURVE",
"709 310 CURVE",
"637 360 LINE",
"532 204 OFFCURVE",
"368 55 OFFCURVE",
"302 56 CURVE SMOOTH",
"278 56 OFFCURVE",
"263 83 OFFCURVE",
"263 126 CURVE SMOOTH",
"263 244 OFFCURVE",
"374 329 OFFCURVE",
"529 329 CURVE SMOOTH",
"656 329 OFFCURVE",
"735 274 OFFCURVE",
"735 185 CURVE SMOOTH",
"735 106 OFFCURVE",
"671 43 OFFCURVE",
"572 26 CURVE"
);
}
);
width = 1000;
},
{
layerId = "9E6B41AB-2970-4C41-8B35-4DBE0D296A43";
paths = (
{
closed = 1;
nodes = (
"488 36 LINE",
"488 316 LINE",
"508 316 LINE",
"508 644 LINE",
"344 644 LINE",
"344 316 LINE",
"364 316 LINE",
"364 36 LINE"
);
},
{
closed = 1;
nodes = (
"828 444 LINE",
"828 584 LINE",
"172 584 LINE",
"172 444 LINE"
);
},
{
closed = 1;
nodes = (
"626 -80 LINE",
"760 -53 OFFCURVE",
"854 53 OFFCURVE",
"854 179 CURVE SMOOTH",
"854 335 OFFCURVE",
"732 422 OFFCURVE",
"516 422 CURVE SMOOTH",
"300 422 OFFCURVE",
"146 297 OFFCURVE",
"146 120 CURVE SMOOTH",
"146 8 OFFCURVE",
"208 -62 OFFCURVE",
"308 -62 CURVE SMOOTH",
"437 -62 OFFCURVE",
"587 56 OFFCURVE",
"722 263 CURVE",
"625 332 LINE",
"506 175 OFFCURVE",
"398 82 OFFCURVE",
"333 82 CURVE SMOOTH",
"314 82 OFFCURVE",
"306 94 OFFCURVE",
"306 125 CURVE SMOOTH",
"306 224 OFFCURVE",
"396 286 OFFCURVE",
"541 286 CURVE SMOOTH",
"636 286 OFFCURVE",
"690 247 OFFCURVE",
"690 180 CURVE SMOOTH",
"690 120 OFFCURVE",
"646 76 OFFCURVE",
"566 55 CURVE"
);
}
);
width = 1000;
}
);
unicode = 3041;
},
